<?xml version="1.0" encoding="UTF-8"?><svg id="Layer_2" xmlns="http://www.w3.org/2000/svg" viewBox="0 0 152.54 60"><defs><style>.cls-1{fill:#f2a661;}.cls-2{fill:#dd4317;}</style></defs><g id="Layer_4"><g id="Group_2239"><path id="Path_4595" class="cls-2" d="M6.19,.89C16.33-3.6,23.13,10.35,28.83,11.22c7.51,1.15,5.65-6.46,11.84-9.06s9.15,1.24,12.09,5.71c2.94,4.47,7.19,6.17,11.34,2.13s10.5-5,13.68,1.6,8.97,6.12,11.92,2.54,9.38-5.57,13.33,1.79c3.95,7.36,9.05,6.46,13.57,4.69,6.1-2.39,12.55-.14,14.85,5.1,4.88,11.13-7.76,17.65-12,18.15-2.62,.13-4.92,1.78-5.87,4.23-1.21,2.69-1.91,8.41-7.13,9.21-6.25,.96-6.2-2.94-10.97-5.71-3.01-1.75-5.96-1.39-8.9,3.84-2.75,4.92-13.83,7.05-17.45,.14s-8.13-4.22-11.15-.25c-3.02,3.97-9.76,4.87-13.01-.7-3.26-5.57-.12-9.11-4.92-11.54-4.33-2.19-8.24,5.5-15.87,6.43s-12.83-9.75-6.96-15.27c4.56-4.29,3.01-7.35-.53-9.42s-9.28-2.74-14.63-8.27C-1.1,13.34-1.27,4.19,6.19,.89Z"/><path id="Path_4596" class="cls-1" d="M151.55,28.12c-12.34,2.06-24.28,3.45-35.29,4.27-.2-.06-.42-.05-.61,.04-3.78,.28-7.45,.49-10.99,.63-1.35-7.66-8.42-13.58-8.73-13.83-.34-.31-.87-.27-1.18,.07-.31,.34-.27,.87,.07,1.18,.01,.01,.03,.02,.04,.04,.07,.06,6.75,5.65,8.1,12.61-6.15,.22-11.88,.25-17.06,.11-4.44-11.19-15.85-17.34-16.34-17.6-.41-.21-.91-.04-1.12,.37-.2,.4-.05,.89,.34,1.1,.11,.06,10.88,5.87,15.29,16.07-8.7-.31-15.75-1.11-20.53-2.29-3.46-.85-6.75-1.73-9.85-2.61-3.78-13.36-8.53-17.44-8.74-17.61-.36-.29-.89-.23-1.17,.13-.28,.35-.23,.85,.1,1.15,.05,.04,4.35,3.8,7.91,15.79-9.9-2.8-19.59-6.28-28.99-10.43-.41-.21-.91-.05-1.13,.35s-.05,.91,.35,1.13c.02,0,.04,.02,.06,.03,.1,.05,6.4,3,17.18,6.7-6.35,7.88-12.12,10.98-12.22,11.03-.41,.2-.58,.7-.38,1.12s.7,.58,1.12,.38c.01,0,.02-.01,.04-.02,.26-.14,6.38-3.39,13.12-11.94,3.52,1.18,7.47,2.42,11.79,3.66h.04c3.25,.94,6.71,1.87,10.36,2.77,1.45,.36,3.02,.67,4.7,.95-2.95,4.07-6.51,7.64-10.57,10.6-1.72,1.28-3.56,2.37-5.5,3.26-.42,.19-.61,.68-.42,1.1,.18,.4,.64,.6,1.06,.44,.38-.16,9.39-3.94,17.27-15.1v-.02c7.84,.98,15.72,1.41,23.6,1.27-3.48,4.35-7.97,7.78-13.08,10-.42,.18-.62,.67-.44,1.1,.17,.4,.63,.6,1.04,.46,5.7-2.43,10.66-6.33,14.36-11.3,.06-.09,.13-.18,.19-.27,6.14-.09,12.59-.38,19.1-.84-2.92,4.52-6.59,8.51-10.85,11.79-.36,.28-.43,.81-.15,1.17,.27,.35,.77,.43,1.13,.18,3.81-2.92,7.17-6.38,9.97-10.27,.67-.95,1.32-1.96,1.92-3.02,12.15-.92,24.44-2.42,35.32-4.24,.46-.07,.77-.5,.7-.95-.07-.46-.5-.77-.95-.7,0,0-.01,0-.02,0h0Z"/></g></g></svg>