<?xml version="1.0" encoding="UTF-8"?><svg id="Layer_2" xmlns="http://www.w3.org/2000/svg" viewBox="0 0 298.81 130"><defs><style>.cls-1{fill:#f9f6eb;}.cls-2{fill:#f5b881;}.cls-3{fill:#fff;}.cls-4{fill:#f2a661;}.cls-5{fill:#faefe1;}.cls-6{fill:#88290b;}.cls-7{fill:#c45e3f;}.cls-8{fill:#b5360f;}.cls-9{fill:#8f0e14;}</style></defs><g id="Layer_4"><g id="Group_2245"><g id="Group_2241"><ellipse id="Ellipse_3" class="cls-3" cx="89.04" cy="63.38" rx="43.49" ry="15.14"/><ellipse id="Ellipse_4" class="cls-1" cx="88.04" cy="63.37" rx="30.39" ry="8.99"/><path id="Path_4605" class="cls-9" d="M124.95,37.66c.23-2.27-1.42-4.31-3.69-4.56-.24,0-.48,0-.72,.05-.52-1.32-1.75-2.23-3.17-2.33-.96-.03-1.89,.34-2.56,1.02-.2-1.24-1.04-2.29-2.2-2.76-1.08-.39-2.28-.24-3.23,.41,.03-2.15-1.65-3.94-3.79-4.05-1.12,.01-2.18,.55-2.85,1.44-.9-2.15-3.38-3.16-5.53-2.25-2.1,.88-3.12,3.27-2.31,5.39l-31.52,36.98,.06,1.83c.02,.78,.68,1.39,1.46,1.37,.06,0,.12,0,.18-.02l52.59-8.26c1.96-.31,3.13-1.21,3.43-2.33l3.8-21.29h0c.04-.21,.06-.43,.07-.64Z"/><path id="Path_4606" class="cls-2" d="M62.78,48.04l.58,18.96,54.34-8.36,3.15-16.88-58.07,6.27Z"/><path id="Path_4607" class="cls-4" d="M95.78,29.93l24.61,10.61c.47,.21,.68,.77,.47,1.24-.13,.29-.41,.5-.73,.54l-56.33,6.33c-.51,.07-.99-.29-1.06-.8-.05-.39,.14-.77,.49-.96l31.72-16.94c.26-.14,.56-.15,.83-.03Z"/><path id="Path_4608" class="cls-3" d="M87.78,31.86s-6.6-1.51-8.61,3.17c-2.01,4.68,2.37,7.1,6.14,7.7,3.78,.6,10.17-.75,11.38-4.08,1.21-3.32-3.52-5.84-8.91-6.79Z"/><path id="Path_4609" class="cls-5" d="M90.43,21.75s-.34,4.01,1.53,5.62c2.06,1.78,3.68,2.7,3.5,5.86-.04,1.21-.63,2.34-1.59,3.07-1.74,1.49-6.27,1.91-9.31-.45-1.93-1.2-2.64-3.66-1.65-5.7,.59-1.95,2.35-3.3,4.38-3.37-.39-2.23,.97-4.4,3.15-5.02Z"/><path id="Path_4610" class="cls-3" d="M90.43,21.75s-.34,4.01,1.53,5.62c2.06,1.78,3.68,2.7,3.5,5.86s-4.41,4.2-7.94,3.19-5.63-3.61-4.62-6.28c.59-1.95,2.35-3.3,4.38-3.37-.39-2.23,.97-4.4,3.15-5.02Z"/><path id="Path_4611" class="cls-5" d="M87.28,26.77c-.41,.03-.81,.1-1.21,.21,.21,.51,.6,.93,1.1,1.17,.84,.55,1.87,.72,2.84,.46-2.36-.18-2.73-1.85-2.73-1.85Z"/></g><g id="Group_2242"><ellipse id="Ellipse_5" class="cls-3" cx="177.75" cy="96.69" rx="85.2" ry="33.31"/><ellipse id="Ellipse_6" class="cls-1" cx="177.75" cy="89.97" rx="68.04" ry="25.43"/><path id="Path_4612" class="cls-3" d="M252.24,31.53h-9.03l-1.52-6.18c-.62-2.53-3.18-4.09-5.71-3.46s-4.09,3.18-3.46,5.71c0,0,0,0,0,0l1.74,7.06-14.99,13.78c-1.92,1.77-2.05,4.76-.28,6.68,1.77,1.92,4.76,2.05,6.68,.28l15.69-14.43h10.89c2.61,.04,4.76-2.05,4.79-4.65,.04-2.61-2.05-4.76-4.65-4.79-.05,0-.09,0-.14,0h0Z"/><path id="Path_4613" class="cls-6" d="M230.87,42.62c-9.24-8.19-42.11,4.11-47.25,24.65-5.14,20.54,16.23,33.07,34.72,18.86,13.31-10.23,19.72-37.15,12.53-43.51Z"/><path id="Path_4614" class="cls-8" d="M163.26,30.27c-31.57,3.36-50.74,23.21-57.31,44.78s15.82,29.99,29.27,32.87c13.45,2.88,55.16,11.09,97.68-4.72,42.52-15.82,9.45-43.11,0-49.51-20.34-13.76-40.67-26.5-69.64-23.42Z"/><path id="Path_4615" class="cls-6" d="M168.6,44.44c-5.3-5.87-45.34,13.09-38.56,33.42,6.78,20.34,29.73,33.54,42.26,25.12,12.53-8.42-6.57-29.37-19.1-33.07,0,0,21.15-19.1,15.4-25.47Z"/><path id="Path_4616" class="cls-7" d="M168.6,44.44c-5.3-5.87-42.93,11.71-36.15,32.04,6.78,20.34,27.32,34.92,39.85,26.5,12.53-8.42-6.57-29.37-19.1-33.07,0,0,21.15-19.1,15.4-25.47Z"/><path id="Path_4617" class="cls-3" d="M278.09,50.81h-9.03l-1.52-6.18c-.62-2.53-3.18-4.09-5.71-3.46s-4.09,3.18-3.46,5.71c0,0,0,0,0,0l1.74,7.06-14.99,13.79c-1.92,1.77-2.04,4.76-.28,6.68,1.77,1.92,4.76,2.04,6.68,.28l15.69-14.43h10.89c2.61,.04,4.76-2.05,4.79-4.65,.04-2.61-2.05-4.76-4.65-4.79-.05,0-.09,0-.14,0h0Z"/><path id="Path_4618" class="cls-6" d="M256.73,61.9c-9.24-8.19-44.52,2.97-49.65,23.51-5.14,20.54,18.64,34.21,37.12,20,13.31-10.23,19.72-37.15,12.53-43.51Z"/><path id="Path_4619" class="cls-7" d="M256.73,61.9c-9.24-8.19-42.11,4.11-47.25,24.65-5.14,20.54,16.23,33.07,34.72,18.86,13.31-10.23,19.72-37.15,12.53-43.52Z"/></g><g id="Group_2243"><path id="Path_4620" class="cls-9" d="M45.01,111.93c-.35,.74-1.24,1.04-1.97,.69-.06-.03-.12-.07-.18-.1-4.54-3.08-11.06-1.59-15.44-7.74-4.39-6.17,1.44-14.18,10.43-16.47,8.52-2.17,17.97,.74,17.19,8.58-.8,8.02-7.33,9.59-10.02,15.04Z"/><path id="Path_4621" class="cls-4" d="M36.6,80.86c-6.42,1.6-13.56,7.55-13.47,13.36,.09,5.8,6,8.89,10.39,5.47,4.39-3.42,9.86-5.56,14.95-4.81,5.91,.87,8.15-7.11,2.99-11.6-3.67-3.19-7.91-4.14-14.86-2.41Z"/><path id="Path_4622" class="cls-4" d="M39.16,74.85s.1,.06,.14,.09c.82,.6,.99,1.75,.39,2.56,0,0,0,0,0,0-3.22,4.38-2.31,7.13-2.27,7.25l-.02-.04-3.4,1.38c-.19-.47-1.71-4.71,2.72-10.76,.56-.76,1.61-.97,2.42-.49Z"/></g><path id="Path_4623" class="cls-3" d="M275.62,89.44c6.35-1.43,8.59-3.67,10.02-10.02,.14-.62,.75-1.01,1.38-.88,.44,.1,.78,.44,.88,.88,1.43,6.35,3.67,8.59,10.02,10.02,.62,.14,1.01,.75,.88,1.38-.1,.44-.44,.78-.88,.88-6.35,1.43-8.59,3.67-10.02,10.02-.14,.62-.75,1.01-1.38,.88-.44-.1-.78-.44-.88-.88-1.43-6.35-3.67-8.59-10.02-10.02-.62-.14-1.01-.75-.88-1.38,.1-.44,.44-.78,.88-.88Z"/><path id="Path_4626" class="cls-3" d="M.72,54.95c5.05-1.13,6.84-2.92,7.97-7.97,.11-.5,.6-.81,1.09-.7,.35,.08,.62,.35,.7,.7,1.13,5.05,2.92,6.84,7.97,7.97,.5,.11,.81,.6,.7,1.09-.08,.35-.35,.62-.7,.7-5.05,1.13-6.84,2.92-7.97,7.97-.11,.5-.6,.81-1.09,.7-.35-.08-.62-.35-.7-.7-1.13-5.05-2.92-6.84-7.97-7.97-.5-.11-.81-.6-.7-1.09,.08-.35,.35-.62,.7-.7Z"/><path id="Path_4627" class="cls-3" d="M203.72,8.69c5.05-1.13,6.84-2.92,7.97-7.97,.11-.5,.6-.81,1.09-.7,.35,.08,.62,.35,.7,.7,1.13,5.05,2.92,6.84,7.97,7.97,.5,.11,.81,.6,.7,1.09-.08,.35-.35,.62-.7,.7-5.05,1.13-6.84,2.92-7.97,7.97-.11,.5-.6,.81-1.09,.7-.35-.08-.62-.35-.7-.7-1.13-5.05-2.92-6.84-7.97-7.97-.5-.11-.81-.6-.7-1.09,.08-.35,.35-.62,.7-.7Z"/><g id="Group_2244"><path id="Path_4624" class="cls-9" d="M40.65,.48c-2.01,3.88-2.41,8.39-1.11,12.55-2.86-2.79-6.53-4.6-10.49-5.17-.48-.07-.92,.26-.99,.74-.02,.17,0,.33,.07,.49,1.13,2.45,3.94,7.51,8.58,9.37,0,0-5.15-.58-11.66,3.2-.42,.24-.56,.77-.32,1.19,.11,.19,.29,.33,.5,.4,3.74,1.2,7.72,1.46,11.59,.74-2.85,2.98-4.68,6.79-5.21,10.88-.05,.48,.3,.9,.78,.95,.14,.01,.28,0,.41-.06,3.58-1.5,6.58-4.12,8.54-7.47,0,0-.5,4.91,4.17,11.06,.29,.38,.84,.46,1.22,.17,.12-.09,.22-.22,.28-.37,1.01-2.49,2.79-8.02,1.1-12.67,0,0,3.31,3.69,10.28,5.67,.46,.13,.94-.13,1.08-.59,.06-.2,.04-.41-.04-.6-1.07-2.36-3.48-6.69-7.47-8.77,0,0,4.27-.48,11.1-3.88,.43-.21,.61-.73,.4-1.16-.1-.2-.27-.35-.47-.43-2.51-.93-7.39-2.23-12.27-.73,2.47-3.01,4.26-6.53,5.23-10.31,.11-.47-.18-.94-.65-1.05-.19-.05-.39-.02-.57,.06-2.39,1.14-6.93,3.66-8.64,7,0,0,.3-5.03-3.94-11.3-.28-.39-.82-.48-1.21-.2-.11,.08-.21,.19-.27,.31Z"/><path id="Path_4625" class="cls-8" d="M57.01,18.34c-.04-.29-.31-.5-.6-.47l-11.21,1.41,6.62-8.62c.18-.23,.15-.57-.09-.75-.23-.18-.57-.15-.75,.09,0,0,0,0-.01,.01l-6.61,8.6-1.38-11.18c-.04-.29-.3-.5-.6-.47-.29,.04-.5,.3-.47,.6l1.4,11.32-8.8-6.73c-.23-.19-.57-.15-.75,.08-.19,.23-.15,.57,.08,.75,0,0,.01,.01,.02,.02l8.67,6.62-10.85,1.37c-.29,.04-.5,.3-.47,.6,.03,.27,.26,.47,.53,.47,.02,0,.05,0,.07,0l10.97-1.38-6.65,8.66c-.18,.24-.13,.57,.11,.75,.23,.17,.56,.13,.74-.1l6.64-8.64,1.35,10.95c.03,.27,.26,.47,.53,.47,.02,0,.04,0,.07,0,.29-.04,.5-.3,.47-.6,0,0,0,0,0,0l-1.34-10.89,8.68,6.63c.23,.19,.57,.15,.75-.08,.19-.23,.15-.57-.08-.75,0,0-.01-.01-.02-.02l-8.77-6.7,11.29-1.42c.29-.04,.5-.31,.46-.6,0,0,0,0,0,0Z"/></g></g></g></svg>