<?xml version="1.0" encoding="UTF-8"?><svg id="Layer_2" xmlns="http://www.w3.org/2000/svg" viewBox="0 0 148.48 100.01"><defs><style>.cls-1{fill:#f5b881;}.cls-2{fill:#fff;}.cls-3{fill:#f2a661;}.cls-4{fill:#8f0e14;}.cls-5{fill:#dd4317;}</style></defs><g id="Layer_4"><g id="Group_2262"><g id="Group_2259"><path id="Path_4666" class="cls-4" d="M41.1,33.87c-.88,0-1.6-.72-1.6-1.6,0-.29,.08-.57,.22-.81,2.58-4.38,3.58-9.52,2.84-14.55-1.04-7.11-3.32-10.3-4.62-11.6-.56-.57-.62-1.46-.13-2.09,1.25-1.61,3.01-2.74,4.99-3.21,1.52-.37,8.63,10.99,10.24,14.4,1.75,3.71,8.88,9.1,11.23,17.45,.23,.85-.27,1.73-1.12,1.96-.14,.04-.28,.06-.42,.06h-21.63Z"/><path id="Path_4667" class="cls-3" d="M24.52,29.88c-6.6-1.35-14.98,6.03-21.01,23.08-6.65,18.79-4.74,43.65,13.57,40.87,14.93-2.26,4.62-26.34,8.24-38.81,3.62-12.47,8.04-23.33-.8-25.14Z"/><path id="Path_4668" class="cls-3" d="M73.7,29.87c6.51-1.33,14.76,5.94,20.7,22.73,6.55,18.51,4.67,42.99-13.37,40.26-14.71-2.23-4.56-25.95-8.12-38.23s-7.92-22.98,.79-24.76Z"/><path id="Path_4669" class="cls-4" d="M60.34,28.93c-9.76,1.9-11.76,26.79-11.76,34.42s.83,34.24,18.15,33.62,20.94-26.25,17.93-40.29c-3.36-15.66-11.74-30.2-24.32-27.76Z"/><path id="Path_4670" class="cls-1" d="M60.34,28.93c-9.76,1.9-11.76,26.79-11.76,34.42s.83,34.24,18.15,33.62,18.57-26.61,15.47-40.64c-3.09-14.03-9.29-29.85-21.87-27.41Z"/><path id="Path_4671" class="cls-4" d="M41.01,27.26c-6.68-3.69-19.53,5.97-26.17,23.27s-2.59,47.32,14.3,48.33,17.7-21.72,15.68-31.77c-2.02-10.05,5.63-34.59-3.82-39.82Z"/><path id="Path_4672" class="cls-1" d="M41.01,27.26c-6.68-3.69-17.09,6.03-23.73,23.33-6.64,17.29-5.03,47.26,11.86,48.26s17.7-21.72,15.68-31.77c-2.02-10.05,5.63-34.59-3.82-39.82Z"/><path id="Path_4673" class="cls-4" d="M48.64,27.31c-7.55,0-17.07,21.91-17.87,32.9-1.08,14.9,1.26,39.8,17.87,39.8,12.42,0,19.12-21.75,17.41-41.34-1.43-16.49-9.61-31.36-17.41-31.36Z"/><path id="Path_4674" class="cls-3" d="M48.64,27.31c-7.55,0-13.63,22.48-14.59,33.45-1.03,11.86-2.02,39.25,14.59,39.25,22.86,0,17.06-72.68,0-72.7Z"/></g><g id="Group_2260"><circle id="Ellipse_31" class="cls-5" cx="140.33" cy="45.91" r="8.15"/><circle id="Ellipse_32" class="cls-4" cx="130.78" cy="60.94" r="8.15"/><path id="Path_4675" class="cls-4" d="M138.97,40.86c-1.96-5.14-5.17-9.71-9.33-13.3,1.22-6.03,1.81-11.19,1.81-11.26,.04-.37-.23-.71-.6-.75-.37-.04-.71,.23-.75,.6h0c-.67,5.6-1.69,11.16-3.06,16.63-6.48-1.2-13.18,.22-18.62,3.95-.31,.22-.38,.64-.17,.95s.64,.38,.95,.17h0c5.12-3.46,11.39-4.8,17.48-3.74-.18,.63-.36,1.25-.55,1.85-3.16,10.06-7.33,14.47-7.37,14.52-.26,.27-.25,.7,.02,.96s.7,.25,.96-.02c.16-.16,3.34-3.52,6.32-11.14,1.38,1.49,4.43,6,4.04,16.53-.01,.37,.28,.69,.65,.7h.03c.37,0,.67-.29,.68-.65,.45-12.19-3.52-16.77-4.88-17.97,.29-.8,.57-1.63,.85-2.51,.27-.85,.52-1.72,.76-2.6h0c.42-1.55,.79-3.13,1.13-4.68,3.71,3.36,6.57,7.54,8.35,12.21,.12,.36,.5,.55,.86,.43s.55-.5,.43-.86h0Z"/><circle id="Ellipse_33" class="cls-4" cx="106.48" cy="40.35" r="6.4"/><circle id="Ellipse_34" class="cls-5" cx="117.73" cy="55.95" r="9.2"/></g><path id="Path_4676" class="cls-2" d="M79.73,8.54c4.96-1.11,6.72-2.87,7.83-7.83,.1-.49,.58-.8,1.07-.69,.35,.07,.62,.34,.69,.69,1.11,4.96,2.87,6.72,7.83,7.83,.49,.1,.8,.58,.69,1.07-.07,.35-.35,.62-.69,.69-4.96,1.11-6.72,2.87-7.83,7.83-.1,.49-.58,.8-1.07,.69-.35-.07-.62-.34-.69-.69-1.11-4.96-2.87-6.72-7.83-7.83-.49-.1-.8-.58-.69-1.07,.07-.35,.35-.62,.69-.69Z"/></g></g></svg>