<?xml version="1.0" encoding="UTF-8"?><svg id="Layer_2" xmlns="http://www.w3.org/2000/svg" viewBox="0 0 183.95 92.87"><defs><style>.cls-1{fill:#f2a661;}.cls-2{fill:#8f0e14;}.cls-3{fill:#d5ae98;}.cls-4{fill:#dd4317;}</style></defs><g id="Layer_4"><g id="Group_2261"><ellipse id="Ellipse_35" class="cls-1" cx="166.06" cy="28.87" rx="19.82" ry="9.39" transform="translate(7.04 84.76) rotate(-29.23)"/><ellipse id="Ellipse_36" class="cls-3" cx="134.95" cy="14.45" rx="16.06" ry="7.61" transform="translate(55.6 124.56) rotate(-60.33)"/><ellipse id="Ellipse_37" class="cls-4" cx="102.28" cy="20.33" rx="16.06" ry="7.61" transform="translate(33.99 99.14) rotate(-60.33)"/><ellipse id="Ellipse_38" class="cls-1" cx="67.65" cy="24.74" rx="16.06" ry="7.61" transform="translate(24 82.04) rotate(-72.79)"/><ellipse id="Ellipse_39" class="cls-3" cx="37.19" cy="40.41" rx="16.06" ry="7.61" transform="translate(-12.41 63.98) rotate(-72.79)"/><ellipse id="Ellipse_40" class="cls-4" cx="147.29" cy="65.33" rx="7.6" ry="16.05" transform="translate(7.62 145.67) rotate(-53.83)"/><ellipse id="Ellipse_41" class="cls-1" cx="115.86" cy="72.17" rx="7.6" ry="16.05" transform="translate(-10.78 123.1) rotate(-53.83)"/><ellipse id="Ellipse_42" class="cls-3" cx="81.31" cy="74.05" rx="7.61" ry="16.06" transform="translate(-18.6 120.01) rotate(-67.03)"/><ellipse id="Ellipse_43" class="cls-4" cx="57.35" cy="83.47" rx="7.61" ry="16.06" transform="translate(-41.88 103.69) rotate(-67.03)"/><path id="Path_4677" class="cls-2" d="M148.43,64.6c-9.72-8.03-20.8-14.25-32.71-18.38,11.3-1.18,33.01-5.79,50.79-16.61,.41-.25,.54-.78,.29-1.19s-.78-.54-1.19-.29c-18.45,11.22-41.21,15.67-51.75,16.52-.82,.07-1.63,.14-2.43,.21h-.04c-.67,.06-1.33,.13-1.98,.2,18.01-11.4,26.12-30.16,26.21-30.36,.19-.44-.02-.95-.46-1.13-.44-.19-.95,.02-1.13,.46-.09,.21-8.98,20.77-28.86,31.52-7.24,.92-14.41,2.25-21.5,3.98,11.05-12.31,19.29-28.65,19.38-28.83,.21-.43,.04-.94-.39-1.16-.43-.21-.94-.04-1.16,.39h0c-.09,.18-9.12,18.1-20.9,30.36-2.41,.61-4.85,1.27-7.33,1.97-.03,0-.06,.01-.08,.02-5.85,1.65-11.99,3.52-18.76,5.6,6.28-10.08,10.93-21.08,13.8-32.6,.09-.47-.22-.92-.69-1.01-.45-.08-.89,.2-1,.65-2.99,11.99-7.95,23.39-14.68,33.75l-3.95,1.22c-7.87,2.49-15.45,5.81-22.62,9.89,12.46-18.94,12.75-28.93,12.75-29.37,0-.48-.37-.87-.85-.88s-.87,.37-.88,.85c-.26,2.74-.89,5.43-1.89,7.99-1.67,4.81-5.21,12.77-12.55,23.38-2.4,1.43-4.66,2.87-6.74,4.26-.11,.04-.22,.11-.3,.2-5.1,3.38-9.97,7.1-14.57,11.13-.35,.32-.37,.87-.05,1.22,0,0,0,0,0,0,.32,.35,.87,.38,1.22,.05,0,0,0,0,0,0,4.57-3.99,9.39-7.67,14.44-11.02,20.75-5.36,40.57,6.81,40.77,6.93,.4,.25,.94,.13,1.19-.27,.25-.4,.13-.94-.27-1.19-.19-.12-17.94-11.03-37.74-8.04,7.4-4.71,15.26-8.65,23.46-11.75,14.99-.53,37.38,11.4,37.6,11.52,.41,.24,.94,.1,1.18-.31,.24-.41,.1-.94-.31-1.18-.02,0-.03-.02-.05-.03-4.36-2.27-8.83-4.3-13.41-6.08-7.89-3.09-14.74-4.92-20.45-5.47,.19-.06,.37-.12,.56-.18l3.98-1.23,.1-.03c.1-.01,.21-.04,.3-.09,7.55-2.33,14.3-4.4,20.69-6.2,10.01,1.8,20.78,6.82,28.07,10.73,4.7,2.51,9.27,5.26,13.69,8.24,.39,.27,.93,.18,1.2-.22,.27-.39,.18-.93-.22-1.2-4.47-3.01-9.09-5.79-13.84-8.33-6.61-3.55-16.05-8-25.28-10.22,11.22-3.14,22.7-5.28,34.3-6.4,13.09,4.02,25.27,10.57,35.85,19.26,.37,.31,.91,.26,1.22-.11,.29-.35,.26-.86-.06-1.17h0Z"/></g></g></svg>