<?xml version="1.0" encoding="UTF-8"?><svg id="Layer_2" xmlns="http://www.w3.org/2000/svg" viewBox="0 0 136.86 100"><defs><style>.cls-1{fill:#fff;}.cls-2{fill:#f2a661;}.cls-3{fill:#8f0e14;}.cls-4{fill:#dd4317;}.cls-5{fill:#d83232;}</style></defs><g id="Layer_4"><g id="Group_2268"><g id="Group_2267"><ellipse id="Ellipse_44" class="cls-3" cx="68.76" cy="77.94" rx="50.6" ry="22.06"/><path id="Path_4678" class="cls-3" d="M86.33,0h-.21c-1.37,.02-2.71,.45-3.83,1.24-2.84,1.95-7.84,3.24-13.53,3.24s-10.69-1.29-13.53-3.24C54.11,.45,52.77,.02,51.4,0h-1.8c-3.28,0-6.05,2.43-6.47,5.68l-8.79,67.06c-.41,3.14,1.49,6.11,4.5,7.08,9.7,2.94,19.79,4.38,29.92,4.28,9.56,.08,19.09-1.19,28.3-3.78,3.07-.92,5.01-3.93,4.59-7.1L92.8,5.68C92.37,2.43,89.6,0,86.33,0Z"/><g id="Group_2265"><g id="Group_2264"><path id="Path_4679" class="cls-4" d="M35.27,65.61l-.94,7.13c-.41,3.14,1.49,6.11,4.5,7.08,9.7,2.94,19.79,4.38,29.92,4.28,9.56,.08,19.09-1.19,28.3-3.78,3.07-.92,5.01-3.93,4.59-7.1l-.92-7.04c-8.71,3.1-19.84,4.96-31.97,4.96-12.84,0-24.56-2.1-33.49-5.53Z"/></g></g><g id="Group_2266"><path id="Path_4680" class="cls-5" d="M61.74,70.93l-.65,12.91c2.5,.17,5.06,.25,7.67,.26s5.17-.08,7.67-.25l-.65-12.92c-2.29,.14-4.63,.21-7.02,.21-2.38,0-4.72-.07-7.02-.21Z"/><path id="Path_4681" class="cls-2" d="M75.78,70.92l.65,12.92c-2.5,.17-5.06,.25-7.67,.25-2.61,0-5.17-.08-7.67-.26l.65-12.91c2.29,.14,4.63,.21,7.02,.21,2.38,0,4.72-.07,7.02-.21m0-2.45h-.15c-2.29,.14-4.6,.21-6.87,.21s-4.6-.07-6.87-.21h-.15c-1.3,0-2.38,1.02-2.45,2.33l-.65,12.91c-.07,1.34,.95,2.48,2.28,2.57,2.61,.17,5.24,.26,7.83,.26s5.26-.09,7.83-.26c1.33-.09,2.35-1.23,2.28-2.57l-.65-12.92c-.07-1.3-1.14-2.33-2.45-2.33h0Z"/></g></g><path id="Path_4623" class="cls-1" d="M113.66,10.93c6.35-1.43,8.59-3.67,10.02-10.02,.14-.62,.75-1.01,1.38-.88,.44,.1,.78,.44,.88,.88,1.43,6.35,3.67,8.59,10.02,10.02,.62,.14,1.01,.75,.88,1.38-.1,.44-.44,.78-.88,.88-6.35,1.43-8.59,3.67-10.02,10.02-.14,.62-.75,1.01-1.38,.88-.44-.1-.78-.44-.88-.88-1.43-6.35-3.67-8.59-10.02-10.02-.62-.14-1.01-.75-.88-1.38,.1-.44,.44-.78,.88-.88Z"/><path id="Path_4623-2" class="cls-1" d="M.68,43.07c4.79-1.07,6.48-2.77,7.55-7.55,.1-.47,.57-.77,1.04-.66,.33,.07,.59,.33,.66,.66,1.08,4.79,2.77,6.48,7.55,7.55,.47,.1,.77,.57,.66,1.04-.07,.33-.33,.59-.66,.66-4.79,1.07-6.48,2.77-7.55,7.55-.1,.47-.57,.77-1.04,.66-.33-.07-.59-.33-.66-.66-1.08-4.79-2.77-6.48-7.55-7.55-.47-.1-.77-.57-.66-1.04,.07-.33,.33-.59,.66-.66Z"/></g></g></svg>