<?xml version="1.0" encoding="UTF-8"?><svg id="Layer_2" xmlns="http://www.w3.org/2000/svg" xmlns:xlink="http://www.w3.org/1999/xlink" viewBox="0 0 215.53 130"><defs><style>.cls-1{fill:none;}.cls-2{clip-path:url(#clippath);}.cls-3{fill:#e4cbbd;}.cls-4{fill:#e9c18d;}.cls-5{fill:#fff;}.cls-6{fill:#fff6ef;}.cls-7{fill:#f2a661;}.cls-8{fill:#faefe1;}.cls-9{fill:#c45e3f;}.cls-10{fill:#b5360f;}.cls-11{fill:#8f0e14;}.cls-12{fill:#dd4317;}</style><clipPath id="clippath"><path class="cls-1" d="M102.24,53.17c-19.42,0-35.3-3.24-36.59-7.35l6.6,41.12c1.23,7.65,7.83,13.28,15.58,13.28h28.81c7.75,0,14.35-5.63,15.58-13.28l6.6-41.12c-1.28,4.1-17.17,7.35-36.59,7.35Z"/></clipPath></defs><g id="Layer_4"><g id="Group_2258"><g id="Group_2250"><ellipse id="Ellipse_7" class="cls-11" cx="102.24" cy="45.29" rx="36.67" ry="7.88"/><path id="Path_4628" class="cls-11" d="M131.76,88.58l-.98-4.4c.18-.04,18.36-4.26,21.04-17.17,.99-4.76,.54-8.69-1.31-11.37-1.31-1.89-3.35-3.15-5.62-3.49-2.78-.42-5.59,.52-7.55,2.53l-3.38-2.99c3-3.16,7.35-4.65,11.65-3.99,3.49,.53,6.61,2.48,8.61,5.39,1.78,2.59,3.58,7.27,2.01,14.84-1.37,6.61-6.09,12.29-13.63,16.43-3.42,1.87-7.06,3.29-10.84,4.23Z"/><ellipse id="Ellipse_8" class="cls-4" cx="102.55" cy="48.19" rx="30.85" ry="11.74"/><g id="Group_2246"><path id="Path_4629" class="cls-9" d="M79.87,15.08l-8.13,1.8,14.75,66.53h0c.09,.59,.51,1.32,1.88,1.77,.96,.35,2.04-.02,2.58-.89,.47,.33,1.05,.44,1.61,.3,.41-.09,.79-.3,1.1-.59,.77-.54,1.15-1.48,.95-2.4h0L79.87,15.08Z"/><ellipse id="Ellipse_9" class="cls-11" cx="75.81" cy="15.98" rx="4.16" ry="2.47" transform="translate(-1.66 16.79) rotate(-12.5)"/><path id="Path_4630" class="cls-9" d="M92.56,84.59c-.55,.14-1.14,.03-1.61-.3-.54,.87-1.62,1.24-2.58,.89-1.48-.48-1.85-1.31-1.89-1.91-.13-1.66,1.67-2.93,3.5-3.34s4,0,4.59,1.55c.22,.57,.23,1.47-.91,2.53-.31,.29-.69,.49-1.1,.58Z"/><path id="Path_4631" class="cls-11" d="M90.95,84.28c.43,.31,.97,.42,1.48,.32l-14.8-66.77-2.69,.6,14.8,66.77c.51-.13,.95-.46,1.21-.92Z"/><path id="Path_4632" class="cls-9" d="M77.79,17.98c-.55,.14-1.14,.03-1.61-.3-.54,.87-1.62,1.24-2.58,.89-1.48-.48-1.85-1.31-1.89-1.91-.13-1.66,1.67-2.93,3.5-3.34,1.83-.41,4,0,4.59,1.55,.22,.57,.23,1.47-.91,2.53-.31,.29-.69,.49-1.1,.58Zm-.57-2c-.14,.03-.28,.08-.4,.16-.19,.11-.32,.3-.35,.52-.01,.15,.05,.3,.15,.41,.56,.36,1.3,.26,1.76-.22,.46-.43,.96-1.08,.72-1.72-.43-1.14-2.24-1.41-3.72-1.08s-3.01,1.33-2.92,2.55c.05,.68,.78,1.06,1.38,1.25,.62,.25,1.33,.02,1.69-.54,.05-.14,.04-.3-.03-.44-.12-.19-.32-.31-.54-.33,0,0-.86-.1-1.1,.59-.07,.19-.29,.29-.49,.22-.19-.07-.28-.28-.22-.47,.31-.77,1.12-1.22,1.94-1.08,.19,.34,.62,.46,.95,.27,.21-.11,.34-.32,.36-.56,.68-.47,1.6-.41,2.21,.16,.15,.14,.16,.38,.02,.53-.14,.15-.38,.16-.53,.02,0,0-.02-.02-.03-.03-.22-.22-.54-.31-.84-.23h0Z"/></g><path id="Path_4633" class="cls-6" d="M89.91,35.51c-7.56,.43-16.54,3.28-19.03,8.56-2.49,5.28,3.68,15.4,28.09,16.82,25.2,1.46,42.18-7.2,34.89-15.41-9.47-10.67-34.66-10.49-43.96-9.96Z"/><path id="Path_4634" class="cls-8" d="M122.71,38.76c4.51,1.52,8.47,3.68,11.17,6.72,5.66,6.38-3.34,13.04-19.47,15,0,0,12.83-2.54,16.62-8.43,3.53-5.49-2.05-9.59-8.32-13.28Z"/><path id="Path_4635" class="cls-8" d="M98.98,60.89c-24.41-1.42-30.58-11.54-28.09-16.82,2.49-5.28,11.47-8.13,19.03-8.56,0,0-11.5,2.9-13.8,8.74-2.3,5.84,7.84,13.94,22.87,16.64Z"/><path id="Path_4636" class="cls-6" d="M97.38,24.92c-6.25,.7-15.36,2.28-16.82,9.29-1.23,5.93,4.92,12.33,18.65,14.56,14.61,2.37,32.85-1.9,32.2-11.31-.65-9.41-24.1-13.67-34.04-12.55Z"/><path id="Path_4637" class="cls-8" d="M99.21,48.77c-13.73-2.23-19.88-8.63-18.65-14.56,1.46-7.01,10.57-8.59,16.82-9.29,2.15-.21,4.31-.23,6.46-.08,0,0-16.66-.09-19.16,8.03-2.02,6.54,4.5,12.42,14.53,15.9Z"/><path id="Path_4638" class="cls-8" d="M111.64,49.25c10.8-.85,20.25-4.97,19.77-11.79-.33-4.66-6.23-8.05-13.31-10.16,0,0,11.62,4.27,11.15,10.71-.61,8.38-17.6,11.23-17.6,11.23Z"/><path id="Path_4639" class="cls-6" d="M122.07,7.73c-2.01,4.53-6.26,7.66-11.19,8.24-8.61,1.23-15.89,4.72-16.71,9.43-.82,4.72,1.63,12.27,20.61,10.87,13.84-1.03,12.3-10.66,9.33-14.91-2.39-3.41-3.07-7.02-2.04-13.63Z"/><path id="Path_4640" class="cls-8" d="M114.78,36.27c13.84-1.03,12.3-10.66,9.33-14.91,0,0,2.31,4.96,.31,8.79-1.72,3.3-6.47,5.41-9.64,6.12Z"/><path id="Path_4641" class="cls-8" d="M102.79,35.69c-8.07-1.87-9.22-6.84-8.62-10.28,.58-3.35,4.42-6.07,9.67-7.81,0,0-6.88,2.83-7.31,8.41-.51,6.66,6.26,9.68,6.26,9.68Z"/><path id="Path_4642" class="cls-3" d="M102.24,53.17c-19.42,0-35.3-3.24-36.59-7.35l6.6,41.12c1.23,7.65,7.83,13.28,15.58,13.28h28.81c7.75,0,14.35-5.63,15.58-13.28l6.6-41.12c-1.28,4.1-17.17,7.35-36.59,7.35Z"/><g id="Group_2247"><path id="Path_4643" class="cls-11" d="M65.57,45.29c0,4.35,16.42,7.88,36.67,7.88s36.67-3.53,36.67-7.88h-.82c0,.71-.86,1.54-2.43,2.34-2.44,1.12-5.02,1.94-7.66,2.44-17.04,3.05-34.48,3.05-51.52,0-2.64-.5-5.22-1.31-7.66-2.44-1.57-.8-2.43-1.63-2.43-2.34h-.82Z"/></g><g id="Group_2249"><g class="cls-2"><g id="Group_2248"><circle id="Ellipse_10" class="cls-11" cx="76.55" cy="60.48" r="2.87"/><circle id="Ellipse_11" class="cls-11" cx="85.77" cy="72.19" r="2.7"/><circle id="Ellipse_12" class="cls-11" cx="69.73" cy="69.08" r="2.7"/><circle id="Ellipse_13" class="cls-11" cx="102.98" cy="73.19" r="2.7"/><circle id="Ellipse_14" class="cls-11" cx="120.44" cy="72.19" r="2.7"/><circle id="Ellipse_15" class="cls-11" cx="136.1" cy="69.08" r="2.7"/><circle id="Ellipse_16" class="cls-11" cx="87.42" cy="91.86" r="2.28"/><circle id="Ellipse_17" class="cls-11" cx="73.99" cy="89.58" r="2.28"/><circle id="Ellipse_18" class="cls-11" cx="103" cy="92.71" r="2.28"/><circle id="Ellipse_19" class="cls-11" cx="117.73" cy="91.86" r="2.28"/><circle id="Ellipse_20" class="cls-11" cx="131.82" cy="89.58" r="2.28"/><circle id="Ellipse_21" class="cls-11" cx="93.21" cy="62.89" r="2.87"/><circle id="Ellipse_22" class="cls-11" cx="111.91" cy="62.89" r="2.87"/><circle id="Ellipse_23" class="cls-11" cx="127.86" cy="60.89" r="2.87"/><circle id="Ellipse_24" class="cls-11" cx="79.08" cy="80.94" r="2.59"/><circle id="Ellipse_25" class="cls-11" cx="94.1" cy="83.11" r="2.59"/><circle id="Ellipse_26" class="cls-11" cx="110.95" cy="83.11" r="2.59"/><circle id="Ellipse_27" class="cls-11" cx="125.33" cy="81.31" r="2.59"/></g></g></g></g><g id="Group_2251"><path id="Path_4645" class="cls-7" d="M165.92,84.46s2.79-2.08,1.02-6.02c-1.78-3.94-4.34-11.41-.7-13.51,2.13-1.23,3.62,3.25,5.42,1.9,2.09-1.56-4.1-10.73,1.16-19.38,4.76-7.83,8.45,1.7,11.49-.28,2.19-1.43,.32-3.45,2.8-8.74,2.43-5.18,5.93-2.36,7.01-.02,1.09,2.34,2.27,3.81,3.95,3.42,1.48-.34,3.6-9.25,9.34-8.51,5.39,.7,6.01,7.05,4.85,11.48-1.06,4.05-6.89,8.46-4.75,10.74,1.8,1.91,3.16-1.79,6.03-1.04s3.08,6.02-2.13,11.09-8.35,4.32-8.35,5.51c0,1.44,3.06,1.67,4.51,2.17,1.64,.57,1.96,2.77,.23,4.65-1.45,1.59-4.87,3.11-8.78,3-3.32-.09-5.87-1.24-5.99,.18-.13,1.57,3.67,2.55,3.36,4.58-.44,2.81-5.91,4.73-12.7,3.77-10.88-1.53-13.09-6.12-17.74-4.99Z"/><path id="Path_4646" class="cls-11" d="M202.09,64.51c-4.04,.26-8.02,1.16-11.78,2.65,3.53-4.11,6.67-8.54,9.37-13.23,.17-.34,.04-.75-.3-.93-.33-.17-.73-.05-.91,.27-3.27,5.65-7.17,10.91-11.62,15.68l-.04,.02c1.29-4.11,1.59-8.47,.88-12.72-.08-.37-.45-.61-.82-.53s-.61,.45-.53,.82c.79,5.01,.14,10.14-1.86,14.79-.87,.83-1.77,1.65-2.7,2.43-1.49,1.26-2.95,2.38-4.36,3.39,2.1-5.49,1.02-8.36,.96-8.49-.15-.35-.56-.51-.9-.36-.33,.14-.5,.52-.38,.86,.01,.03,1.13,3.15-1.7,9.22-.03,.06-.05,.13-.06,.19-3.94,2.7-8.24,4.84-12.77,6.37-.37,.1-.58,.48-.47,.85,.08,.3,.35,.5,.66,.5,.06,0,.13,0,.19-.03,3.94-1.28,7.69-3.06,11.19-5.28,3.8-1.43,7.94-1.7,11.9-.78,.37,.1,.74-.12,.84-.48,.1-.36-.11-.74-.47-.84-2.81-.68-5.72-.79-8.57-.34,1.56-1.1,3.18-2.34,4.83-3.74,1.77-1.51,3.46-3.11,5.06-4.8,5.9-3.68,14.34-4.13,14.42-4.13,.38-.02,.67-.34,.65-.72-.02-.38-.34-.67-.72-.66Z"/></g><path id="Path_4647" class="cls-5" d="M16.47,13.15c7.65-1.72,10.35-4.42,12.06-12.06,.17-.75,.91-1.22,1.66-1.06,.53,.12,.94,.53,1.06,1.06,1.72,7.65,4.42,10.35,12.06,12.06,.75,.16,1.22,.91,1.06,1.66-.12,.53-.53,.94-1.06,1.06-7.65,1.72-10.35,4.42-12.06,12.06-.17,.75-.91,1.22-1.66,1.06-.53-.12-.94-.53-1.06-1.06-1.72-7.65-4.42-10.35-12.06-12.06-.75-.16-1.22-.91-1.06-1.66,.12-.53,.53-.94,1.06-1.06Z"/><path id="Path_4663" class="cls-5" d="M39.5,37.4c4.87-1.09,6.59-2.82,7.69-7.69,.11-.48,.58-.78,1.06-.67,.34,.07,.6,.34,.67,.67,1.09,4.87,2.82,6.59,7.69,7.69,.48,.1,.78,.58,.68,1.05-.07,.34-.34,.6-.68,.68-4.87,1.09-6.59,2.82-7.69,7.69-.11,.48-.58,.78-1.06,.67-.34-.07-.6-.34-.67-.67-1.09-4.87-2.82-6.59-7.69-7.69-.48-.1-.78-.58-.68-1.05,.07-.34,.34-.6,.68-.68Z"/><g id="Group_2256"><path id="Path_4650" class="cls-12" d="M53.7,105.15c-.51,0-.82-.02-.89-.03l.13-1.59c7.42,.05,14.51-3.09,19.45-8.63,2.33-2.56,3.23-5.05,2.54-7-.59-1.46-1.93-2.49-3.49-2.67-1.96-.29-3.91,.55-5.06,2.16-1.22,1.72-2.24,3.57-3.05,5.51-.28,.62-.55,1.21-.81,1.72-1.65,3.17-3.39,4.91-6.04,7.54l-.71,.71-1.13-1.13,.71-.71c2.63-2.62,4.21-4.19,5.75-7.15,.24-.47,.49-1.01,.77-1.64,.86-2.05,1.94-4,3.23-5.81,1.5-2.09,4.04-3.16,6.58-2.78,2.15,.26,3.98,1.69,4.76,3.71,.52,1.47,.85,4.53-2.86,8.6-5.05,5.7-12.25,9.03-19.86,9.18Z"/><path id="Path_4651" class="cls-12" d="M55.08,104.22l-.53-.71c-.02,.11-.03,.18-.03,.2l-1.58-.25c.33-2.16,.2-4.37-.36-6.48-.39-1.09-.75-2.02-1.07-2.83-1.03-2.21-1.62-4.6-1.73-7.04-.2-2.02,.74-3.99,2.45-5.1,1.63-.95,3.64-.93,5.25,.04,2.1,1.23,3.25,3.73,3.16,6.85-.11,5.58-2.06,10.97-5.55,15.33Zm-.31-21.33c-.61,0-1.21,.16-1.73,.47-1.21,.81-1.86,2.23-1.68,3.67,.11,2.26,.66,4.48,1.63,6.52,.32,.83,.69,1.76,1.09,2.88,.57,1.88,.77,3.85,.59,5.8,2.68-3.97,4.19-8.61,4.37-13.4,.08-2.52-.79-4.49-2.37-5.42-.57-.34-1.23-.52-1.9-.52h0Z"/><path id="Path_4652" class="cls-12" d="M53.04,104.62c-2.78-4.37-6.44-8.1-10.76-10.95-.37-.23-.48-.72-.25-1.09h0c.23-.38,.73-.49,1.1-.26,0,0,0,0,0,0,4.55,2.97,8.4,6.9,11.29,11.5l-1.38,.8Z"/><path id="Path_4653" class="cls-12" d="M58.52,104.94l-.7-1.43c.38-.19,9.45-4.49,25.8-3.58,.44,.03,.78,.41,.75,.85,0,0,0,0,0,0h0c-.03,.44-.41,.77-.84,.74-6.14-.39-12.31,.06-18.33,1.33-2.29,.47-4.53,1.17-6.68,2.09Z"/><g id="Group_2253"><path id="Path_4654" class="cls-10" d="M6.65,110.75l99.75,8.82c1.99,.18,3.85-2.41,4.15-5.78s-1.08-6.24-3.07-6.41h0L7.73,98.56l-1.07,12.19Z"/><ellipse id="Ellipse_28" class="cls-11" cx="7.19" cy="104.66" rx="6.12" ry="3.62" transform="translate(-97.69 102.6) rotate(-84.95)"/><path id="Path_4655" class="cls-10" d="M4.03,102.16c-.1,.84,.17,1.67,.75,2.29-1.16,.95-1.5,2.59-.8,3.93,.99,2.07,2.26,2.44,3.15,2.4,2.44-.13,3.96-2.99,4.2-5.74,.24-2.75-.75-5.83-3.13-6.39-.87-.2-2.19-.06-3.52,1.81-.36,.5-.59,1.09-.65,1.71Zm3.03,.45c-.02,.21-.07,.42-.15,.61-.13,.3-.38,.52-.7,.61-.22,.04-.45,0-.63-.15-.63-.75-.63-1.84-.01-2.6,.54-.75,1.39-1.6,2.37-1.37,1.74,.41,2.48,2.99,2.28,5.22s-1.37,4.64-3.16,4.74c-1,.05-1.69-.93-2.09-1.77-.48-.85-.28-1.93,.47-2.56,.2-.1,.43-.12,.64-.03,.29,.14,.51,.4,.58,.72,.19,.65-.08,1.35-.65,1.71-.27,.15-.37,.48-.22,.75,.14,.25,.45,.36,.72,.24,1.06-.6,1.56-1.86,1.2-3.03-.53-.22-.78-.82-.56-1.35,.13-.31,.4-.54,.74-.62,.56-1.09,.29-2.41-.65-3.19-.24-.18-.59-.13-.77,.11s-.13,.59,.11,.77h0c.37,.28,.56,.73,.5,1.19h0Z"/></g><g id="Group_2254"><path id="Path_4656" class="cls-10" d="M3.7,128.28l100.13-1.3c2-.03,3.59-2.79,3.54-6.16s-1.7-6.1-3.7-6.07h0l-100.13,1.3,.16,12.23Z"/><ellipse id="Ellipse_29" class="cls-11" cx="3.63" cy="122.17" rx="3.62" ry="6.12" transform="translate(-1.59 .06) rotate(-.74)"/><path id="Path_4657" class="cls-10" d="M.23,120c-.01,.84,.34,1.65,.97,2.2-1.06,1.07-1.23,2.73-.4,3.99,1.19,1.96,2.49,2.2,3.37,2.07,2.41-.38,3.64-3.37,3.6-6.14s-1.34-5.73-3.76-6.04c-.89-.12-2.18,.16-3.32,2.15-.31,.54-.48,1.15-.47,1.78Zm3.06,.15c0,.21-.03,.42-.09,.63-.09,.31-.33,.56-.63,.67-.21,.07-.45,.04-.64-.08-.7-.68-.82-1.77-.27-2.59,.46-.8,1.22-1.74,2.21-1.61,1.78,.23,2.77,2.73,2.79,4.96,.03,2.23-.9,4.75-2.67,5.03-.99,.16-1.77-.76-2.26-1.55-.56-.8-.48-1.89,.2-2.59,.19-.12,.42-.16,.64-.1,.31,.11,.55,.35,.65,.66,.25,.63,.06,1.35-.47,1.77-.26,.17-.33,.51-.17,.77s.51,.33,.77,.17c1-.71,1.37-2.01,.89-3.14-.55-.16-.86-.74-.69-1.29,.1-.32,.35-.58,.67-.68,.45-1.14,.04-2.43-.97-3.11-.26-.16-.6-.07-.76,.19s-.07,.6,.19,.76h0c.39,.24,.62,.67,.6,1.13h0Z"/></g><g id="Group_2255"><path id="Path_4658" class="cls-9" d="M10.69,107.93l-.17,12.27,100.41,1.37h0c.87,.06,2.07-.29,3.17-2.1,.83-1.26,.66-2.93-.4-4,.63-.56,.99-1.36,.98-2.21,0-.62-.15-1.24-.47-1.78-1.05-1.84-2.24-2.22-3.12-2.18h0s-100.41-1.37-100.41-1.37Z"/><ellipse id="Ellipse_30" class="cls-11" cx="10.6" cy="114.06" rx="6.14" ry="3.64" transform="translate(-103.59 123.11) rotate(-89.22)"/><path id="Path_4659" class="cls-9" d="M114.68,113.26c.01,.84-.34,1.65-.98,2.21,1.06,1.07,1.23,2.74,.4,4-1.19,1.96-2.5,2.21-3.38,2.07-2.42-.38-3.64-3.39-3.61-6.16s1.35-5.74,3.77-6.06c.89-.12,2.19,.17,3.33,2.16,.31,.54,.47,1.15,.47,1.78Z"/><path id="Path_4660" class="cls-11" d="M113.7,115.46c.59-.51,.94-1.24,.97-2.02l-100.78-1.37-.05,4.06,100.77,1.37c0-.78-.33-1.52-.9-2.04Z"/><path id="Path_4661" class="cls-9" d="M14.15,111.89c.01,.84-.34,1.65-.98,2.21,1.06,1.07,1.23,2.74,.4,4-1.19,1.96-2.5,2.21-3.38,2.07-2.42-.38-3.64-3.39-3.61-6.16,.04-2.77,1.35-5.74,3.77-6.06,.89-.12,2.19,.17,3.33,2.16,.31,.54,.47,1.15,.47,1.78Zm-3.07,.14c0,.21,.03,.42,.09,.63,.09,.31,.33,.56,.63,.68,.22,.07,.45,.04,.64-.08,.7-.69,.82-1.78,.28-2.59-.46-.81-1.22-1.74-2.22-1.61-1.78,.23-2.78,2.73-2.81,4.97s.9,4.77,2.67,5.05c1,.16,1.78-.76,2.26-1.55,.57-.8,.48-1.89-.2-2.6-.19-.12-.42-.16-.64-.1-.31,.11-.55,.35-.65,.66-.25,.63-.06,1.35,.47,1.78,.26,.17,.33,.51,.17,.77-.17,.26-.51,.33-.77,.17-1-.71-1.37-2.02-.89-3.15,.55-.16,.86-.74,.7-1.29-.1-.33-.35-.58-.67-.69-.45-1.14-.04-2.44,.98-3.12,.26-.16,.6-.08,.76,.18,.16,.26,.08,.6-.18,.76,0,0,0,0,0,0-.4,.24-.63,.68-.61,1.14Z"/></g><path id="Path_4662" class="cls-12" d="M53.65,102.62c1.1-1.15,2.6-2.31,3.79-1.68,2.04,1.08,2.04,5.71,0,13.05-4.13,14.87-6.44,16.01-7.49,16.01-.1,0-.19,0-.29-.02-1.17-.15-1.72-1.31-1.98-2.26l1.68-.02c.15,.39,.33,.68,.51,.7,.55-.09,2.74-2.92,6.04-14.83,2.3-8.27,1.31-10.93,.79-11.21-.33,.06-.64,.23-.88,.47l-2.17-.19Z"/></g><g id="Group_2257"><path id="Path_4664" class="cls-11" d="M154.08,90.09c-1.61,3.11-1.94,6.74-.9,10.09-2.3-2.24-5.25-3.69-8.43-4.16-.38-.05-.74,.21-.79,.59-.02,.13,0,.27,.06,.39,.91,1.97,3.17,6.04,6.89,7.53,0,0-4.14-.47-9.37,2.58-.33,.19-.45,.62-.26,.96,.09,.15,.23,.27,.4,.32,3.01,.97,6.21,1.17,9.31,.6-2.29,2.39-3.76,5.46-4.19,8.74-.03,.39,.25,.73,.63,.76,.11,0,.22,0,.32-.05,2.88-1.21,5.28-3.31,6.86-6,0,0-.4,3.95,3.35,8.89,.23,.31,.67,.37,.98,.14,.1-.08,.18-.18,.23-.3,.81-2,2.24-6.45,.89-10.18,2.31,2.21,5.15,3.78,8.26,4.56,.37,.11,.76-.11,.87-.48,.05-.16,.03-.33-.03-.48-.86-1.9-2.8-5.38-6.01-7.05,3.12-.56,6.13-1.62,8.92-3.12,.35-.17,.49-.59,.31-.94-.08-.16-.21-.28-.38-.34-3.14-1.24-6.59-1.44-9.86-.59,1.99-2.42,3.42-5.25,4.2-8.28,.09-.38-.15-.75-.52-.84-.15-.04-.31-.02-.46,.05-1.92,.92-5.57,2.94-6.94,5.63,0,0,.24-4.05-3.17-9.08-.22-.32-.65-.4-.97-.18-.09,.06-.17,.15-.22,.25Z"/><path id="Path_4665" class="cls-10" d="M167.22,104.44c-.03-.24-.25-.4-.48-.37l-9.01,1.14,5.32-6.93c.15-.18,.13-.46-.06-.61-.18-.15-.46-.13-.61,.06,0,0-.01,.02-.02,.02l-5.31,6.91-1.11-8.99c-.04-.23-.26-.39-.49-.36-.22,.04-.38,.24-.36,.46l1.12,9.09-7.08-5.4c-.18-.15-.45-.13-.61,.06-.15,.18-.13,.45,.06,.61,0,0,.02,.02,.03,.02l6.96,5.32-8.72,1.1c-.24,.03-.4,.25-.37,.49,.03,.21,.21,.37,.42,.37,.02,0,.04,0,.05,0l8.81-1.11-5.34,6.96c-.14,.19-.09,.46,.1,.6,.18,.13,.44,.1,.58-.08l5.33-6.94,1.08,8.8c.03,.22,.21,.38,.43,.38,.02,0,.04,0,.05,0,.24-.03,.4-.24,.38-.48,0,0,0,0,0,0l-1.08-8.75,6.98,5.33c.2,.14,.46,.09,.6-.11,.13-.18,.09-.43-.08-.58l-7.05-5.38,9.07-1.14c.24-.03,.4-.24,.38-.48,0,0,0,0,0-.01Z"/></g></g></g></svg>