<svg xmlns="http://www.w3.org/2000/svg" viewBox="0 0 836.78 575.39"><defs><style>.cls-1{fill:#5993ff;}.cls-2{fill:#f8c31b;}.cls-3{fill:#f34e00;}.cls-4{fill:#323d5c;}</style></defs><g id="Layer_2" data-name="Layer 2"><g id="Layer_5" data-name="Layer 5"><path class="cls-1" d="M146.38,59.72c-26.78,14.4-38,42.48-45.58,75.71-1.8,7.88-13,7.88-14.84,0-7.61-33.23-18.8-61.31-45.58-75.71A7.61,7.61,0,0,1,42,45.66C67.8,38.63,78.66,29,86.12,5.33a7.61,7.61,0,0,1,14.52,0C108.1,29,119,38.63,144.77,45.66A7.61,7.61,0,0,1,146.38,59.72Z"/><ellipse class="cls-2" cx="415.86" cy="249.47" rx="429.48" ry="210.71" transform="translate(-54.14 129.99) rotate(-16.7)"/><path class="cls-3" d="M831.15,378.49A104.4,104.4,0,0,0,795,356c-20.58-7.63-52.79-12-89.32,10.36-37.56,23-48.54,55.68-57.37,81.93-8.58,25.51-14.77,43.93-39.82,56-14.53,7-27.45,8.84-38.6,7.72,10.26-33.3,2.66-69.92-19-91.32-14.33-14.14-32.5-19-49.9-13.24-16.56,5.45-27.69,18.67-30.56,36.26C465.92,471.05,482.47,506,510,528.34c-7.08,4.1-16.28,6.88-28.22,7-14.26.2-30-3.14-48.33-28.6-6.63-9.2-31.45-39.61-72.4-44.65-29.45-3.62-58.8,6.71-87.21,30.72a20,20,0,0,0,25.81,30.56c19.56-16.53,38.58-23.79,56.52-21.58,19.74,2.43,36.1,16.23,44.83,28.34,14.19,19.69,38.05,45.79,81.32,45.21,27-.36,50-10,66.35-26.89a104.37,104.37,0,0,0,53.08.53,123,123,0,0,0,24.05-8.71C666,520.91,676.74,489.1,686.18,461c8.15-24.22,15.19-45.15,40.36-60.57,17.89-11,35.8-13.46,53.24-7.42a67.17,67.17,0,0,1,22.69,13.36,20,20,0,0,0,28.68-27.9ZM532.92,495.34c-17.41-15.2-24.65-35.45-23.06-45.2.56-3.48,1.74-4.1,3.6-4.71l.43-.13c2.63-.64,5.61.65,8.84,3.84C531.43,457.73,537.24,475.85,532.92,495.34Z"/><path class="cls-1" d="M550.84,420.61c-14.33-14.14-32.5-19-49.9-13.24-16.56,5.45-27.69,18.67-30.56,36.26a57,57,0,0,0-.71,9.58l6.73-2c26.9-8.07,52.83-17.23,77.57-27.29C553,422.8,551.92,421.68,550.84,420.61Z"/><path class="cls-1" d="M283.41,485.27a759.29,759.29,0,0,0,109.46-13.4,95.84,95.84,0,0,0-31.79-9.81C334.91,458.84,308.83,466.65,283.41,485.27Z"/><path class="cls-4" d="M278.69,200.13,268.58,320.35c-4.71,57.43-19.28,116.36-96.19,123.43l-37.3,3.42c-9.9.92-17.65-6.6-16.75-16.08l26.29-315c.78-10.65,9.35-19.66,19.26-20.57l37.29-3.43C278.1,85,283.4,142.7,278.69,200.13ZM232.45,323.67l10.11-120.22c2.26-26.65,1.55-47.15-6.1-60-5.46-8.32-14.42-16.31-37.73-14.16l-19.81,1.82L155.67,408.88l19.23-1.77c26.22-2.4,36.43-12.75,41-20.22C224.13,373.8,229.94,353.87,232.45,323.67Z"/><path class="cls-4" d="M481.56,393.62c.39,10.55-6.81,21.79-17.83,23.39-11.65,1.07-18.49-3-19.4-12.91L437.48,336,385,340.79l-18.26,69.85c-2.7,9.06-9.68,16.17-20.75,17.18-11.66,1.07-17.92-9.52-14.81-20.38L413.46,87.26c2.32-6.67,8.56-15.47,19.63-16.49,9.91-.91,15.69,4.44,17.08,13.12Zm-46.23-93.88c-2.3-25.06-6.73-111.62-9.62-136.62L392.21,303.7Z"/><path class="cls-4" d="M712.21,160.3l-10.1,120.22c-4.71,57.43-19.28,116.36-96.2,123.42l-37.29,3.43c-9.91.91-17.65-6.61-16.76-16.09l26.29-315c.79-10.65,9.36-19.67,19.27-20.58l37.29-3.42C711.63,45.18,716.93,102.86,712.21,160.3ZM666,283.84l10.11-120.22c2.25-26.65,1.54-47.15-6.1-60-5.47-8.31-14.43-16.3-37.73-14.16l-19.82,1.82L589.19,369.05l19.23-1.77c26.22-2.41,36.43-12.75,41-20.23C657.66,334,663.47,314,666,283.84Z"/><path class="cls-2" d="M234.8,93.84c-9.3-2.28-20.4-3-33.62-1.76l-37.29,3.43c-9.91.91-18.48,9.92-19.26,20.57l-2.55,30.59A694.62,694.62,0,0,1,234.8,93.84Z"/><path class="cls-2" d="M597.76,404.69l8.15-.75c41.21-3.78,64.52-22.46,78-47.81A701.63,701.63,0,0,1,597.76,404.69Z"/></g></g></svg>