<svg xmlns="http://www.w3.org/2000/svg" viewBox="0 0 725.15 486.79"><defs><style>.cls-1{fill:#f34e00;}.cls-2{fill:#5993ff;}.cls-3{fill:#f8c31b;}</style></defs><g id="Layer_2" data-name="Layer 2"><g id="Layer_5" data-name="Layer 5"><path class="cls-1" d="M101.07,374.59a20.72,20.72,0,0,0,26.23,0l67.79-55.47a57.45,57.45,0,1,0-80.91-80.24h0a57.45,57.45,0,1,0-80.92,80.23Z"/><path class="cls-2" d="M391.09,325c-34.83,4.55-58.34,36.65-54.16,70.49,0,0,3.49,15.45-7.31,31.16a45.55,45.55,0,0,1-28,18.38l-.27.05a11,11,0,0,0-4.82,19.37,102.44,102.44,0,0,0,83.87,20.36c8.9-1.77,44.61-9.51,67.26-46.59,20.23-33.11,14.75-62.23,13.33-66.9C450.46,336.66,420.37,321.18,391.09,325Z"/><path class="cls-2" d="M650.62,375.79l-.27,0a45.55,45.55,0,0,1-32.86-6.31c-16-10.39-18.65-26-18.65-26-9.05-32.87-43-53.56-77-44.47-28.53,7.65-50.42,33.45-47,69.51.47,4.87,6.52,33.87,37.86,56.74,35.1,25.63,71.05,19.15,80,17.39a102.42,102.42,0,0,0,69.75-50.84A11,11,0,0,0,650.62,375.79Z"/><path class="cls-2" d="M144.6,78.5C109.4,97.42,94.69,134.33,84.69,178c-2.37,10.36-17.13,10.36-19.51,0-10-43.67-24.7-80.58-59.9-99.5A10,10,0,0,1,7.4,60c33.91-9.24,48.19-21.86,58-53,2.94-9.33,16.16-9.33,19.09,0,9.81,31.16,24.08,43.78,58,53A10,10,0,0,1,144.6,78.5Z"/><path class="cls-3" d="M708.31,41.09C546.7,50.63,487.46,85.32,470.69,100.94c-17.14,16-33.86,18.81-33.86,18.81L419,123.28l-17.79,3.53s-16.54,3.77-38.48-4.45c-21.46-8-89.46-17.49-242.47,35.4a12.66,12.66,0,0,0-8.3,14.42l3.42,17.23a12.53,12.53,0,0,0,7.72,9.28c5.88,2.27,14.61,8.07,19.94,22.87,8.61,23.92,32.88,92.6,66.81,110.05s87.91,15.3,136.86-14.58c50.46-30.81,61-94.79,62.06-135.63,0,0,3.72-19,17.45-21.76s24.43,13.45,24.43,13.45c16.59,37.33,50.74,92.45,109.15,101.66,56.64,8.93,107.36-9.7,132-38.78s20.9-101.82,19.73-127.22c-.72-15.71,5.13-24.4,9.7-28.74a12.52,12.52,0,0,0,3.59-11.53l-3.42-17.23A12.64,12.64,0,0,0,708.31,41.09Z"/><path class="cls-2" d="M217.09,269.28a57.47,57.47,0,0,0-75-50.17c.32.79.64,1.6.95,2.45,7.24,20.1,25.52,71.79,51.3,98.15l.72-.59A57.34,57.34,0,0,0,217.09,269.28Z"/></g></g></svg>