<svg xmlns="http://www.w3.org/2000/svg" viewBox="0 0 724.87 435.08"><defs><style>.cls-1{fill:#f34e00;}.cls-2{fill:#5993ff;}.cls-3{fill:#f8c31b;}</style></defs><g id="Layer_2" data-name="Layer 2"><g id="Layer_5" data-name="Layer 5"><path class="cls-1" d="M554.77,75.88c-34,18.29-48.23,54-57.9,96.18-2.3,10-16.57,10-18.86,0-9.67-42.21-23.88-77.89-57.91-96.18a9.68,9.68,0,0,1,2-17.87c32.78-8.93,46.58-21.12,56.06-51.24a9.68,9.68,0,0,1,18.46,0c9.47,30.12,23.27,42.31,56.06,51.24A9.68,9.68,0,0,1,554.77,75.88Z"/><path class="cls-2" d="M70,300.68c25.12,3.73,74.43,6.11,143.36-13.54s109.58-47.65,129-64.06a22.12,22.12,0,0,0,4.48-28.62l-89.52-143c-7.42-11.85-27.83-19.39-46.54-14.06a52.57,52.57,0,0,0-36.61,37.76h0A23.54,23.54,0,0,1,135,86.32h0a52.55,52.55,0,0,0-51-12.79C65.22,78.86,51.86,96,51.8,110l-.69,168.72A22.11,22.11,0,0,0,70,300.68Z"/><path class="cls-2" d="M386.88,204.82a31,31,0,0,0-14.08,8.55c-.53.55-54.29,55.55-156.34,84.64-101.08,28.8-174.29,11.28-177.35,10.52l-.17,0a31,31,0,0,0-15.91,60c3.64,1,90.55,23.38,210.44-10.78s181.93-99,184.5-101.77a31,31,0,0,0-31.09-51.09Z"/><path class="cls-3" d="M685,131.54c1.72,1.55,42,38.91,39.81,111.2a177.71,177.71,0,0,1-13.28,62.9c-8.78,20.81-21.48,37.74-36.76,49-16.44,12.09-39.57,13.81-58.91,4.4-21.37-10.4-34.11-32.18-35-59.74-.65-21.35,7.49-39,13.43-51.83,2.09-4.52,4.7-10.16,5-12.37,3-19.83-13.51-23.6-16.85-24.15a21.82,21.82,0,0,0-16.69,4.84c-4.5,3.91-6.69,9.92-6.51,17.87a349.34,349.34,0,0,0,3.52,39.65c2.1,16,4.08,31.13,1.91,49.17-3.28,27.2-20.88,47.68-45.93,53.44-24.18,5.56-49.26-4.43-62.4-24.86-17.52-27.22-8.12-48.72-1.26-64.42,3.88-8.9,6.95-15.93,6.26-24.08-.74-8.63-8.12-10.19-10.55-10.7-20.58-4.33-40.31,19-47.17,36.06-18.31,45.63,1.56,90,27.77,111.83a20,20,0,1,1-25.63,30.71c-20.5-17.1-36-41.16-43.75-67.75A136.39,136.39,0,0,1,366.53,273c8.47-21.11,22.17-38.11,39.62-49.16,17-10.79,35.82-14.75,52.93-11.15,24,5.06,40.14,22.85,42.15,46.44,1.56,18.27-4.55,32.25-9.46,43.49-6.08,13.93-7.44,17.93-1.76,26.76,4.68,7.27,13.32,9,19.81,7.53,4.94-1.14,13.48-5.15,15.18-19.25,1.57-13,0-24.58-1.86-39.18a387.33,387.33,0,0,1-3.85-43.92c-.46-19.85,6.74-37.26,20.28-49a61.14,61.14,0,0,1,86.61,6.82c7.75,9.22,16.24,25.15,12.7,48.66-1.18,7.85-4.62,15.3-8.27,23.19-5,10.77-10.12,21.91-9.76,33.83.27,8.76,2.66,20.21,12.49,25,6.63,3.24,13.93,2.12,17.71-.66,19.42-14.28,32.67-46,33.75-80.88,1.64-53-25.65-79.34-26.82-80.44l.15.13h0a20,20,0,0,1,13.41-34.82A19.46,19.46,0,0,1,685,131.54Z"/><path class="cls-1" d="M366.53,273a139.69,139.69,0,0,0-8.23,29.46c38.25-24.11,58.24-45,59.67-46.54a31.06,31.06,0,0,0,2.58-39.4,84.9,84.9,0,0,0-14.4,7.32C388.7,234.9,375,251.9,366.53,273Z"/></g></g></svg>