<svg xmlns="http://www.w3.org/2000/svg" viewBox="0 0 582.33 161.67"><defs><style>.cls-1{fill:#5993ff;}</style></defs><g id="Layer_2" data-name="Layer 2"><g id="Layer_5" data-name="Layer 5"><path class="cls-1" d="M579.59,50.67a104.28,104.28,0,0,0-29.78-30.48C531.63,7.88,501.39-4,460.59,9c-42,13.41-60.41,42.52-75.24,65.92-14.4,22.72-24.8,39.14-52,44.91-15.78,3.35-28.76,2-39.33-1.7,17.9-29.89,19.24-67.27,3.29-93.22C286.75,7.74,270.25-1.28,252,.15c-17.38,1.35-31.35,11.54-38.32,27.94-10.84,25.5-3.1,63.4,18.35,91.65-7.85,2.29-17.45,2.8-29.08.12-13.9-3.21-28.37-10.19-40.13-39.29-4.25-10.52-21.11-46-59.68-60.61C75.38,9.43,44.42,12.48,11.11,29A20,20,0,1,0,28.9,64.85c22.93-11.39,43.13-13.91,60-7.49,18.6,7.06,31.2,24.36,36.79,38.2,9.09,22.5,26.06,53.53,68.22,63.27,26.3,6.08,50.95,2.22,70.84-10.32a104.23,104.23,0,0,0,51.43,13.16,122.58,122.58,0,0,0,25.43-2.73c43.68-9.26,61.65-37.61,77.5-62.63,13.68-21.59,25.5-40.24,53.62-49.22,20-6.39,38-4.55,53.48,5.47a67.35,67.35,0,0,1,18.85,18.38,20,20,0,0,0,37.24-10.11A21.33,21.33,0,0,0,579.59,50.67ZM262.11,93.13c-13.29-18.91-15.5-40.29-11.63-49.39,1.38-3.24,2.66-3.56,4.62-3.71a3.24,3.24,0,0,1,.44,0c2.72,0,5.3,2,7.68,5.83C269.62,56.25,271,75.24,262.11,93.13Z"/></g></g></svg>