<svg xmlns="http://www.w3.org/2000/svg" viewBox="0 0 279.7 297.14"><defs><style>.cls-1{fill:#f34e00;}.cls-2{fill:#5993ff;}.cls-3{fill:#f8c31b;}</style></defs><g id="Layer_2" data-name="Layer 2"><g id="Layer_5" data-name="Layer 5"><path class="cls-1" d="M191.88,154.79c-46.71,25.1-66.22,74.09-79.49,132-3.16,13.75-22.74,13.75-25.89,0C73.22,228.88,53.71,179.89,7,154.79a13.28,13.28,0,0,1,2.81-24.53c45-12.26,63.94-29,76.95-70.35,3.9-12.38,21.44-12.38,25.34,0,13,41.35,32,58.09,77,70.35A13.29,13.29,0,0,1,191.88,154.79Z"/><path class="cls-2" d="M273.35,94.34c-42.3,22.74-60,67.1-72,119.58-2.85,12.46-20.59,12.46-23.45,0-12-52.48-29.69-96.84-72-119.58a12,12,0,0,1,2.54-22.21C149.22,61,166.38,45.86,178.16,8.42c3.53-11.23,19.42-11.23,23,0,11.78,37.44,28.94,52.6,69.7,63.71A12,12,0,0,1,273.35,94.34Z"/><path class="cls-3" d="M188.93,130.26c-41.12-11.2-60.48-26.16-73.44-60.2q-3.45,1.05-7.16,2.07a12,12,0,0,0-2.54,22.21c30.77,16.54,48.5,44.54,60.51,78.77a119.75,119.75,0,0,1,25.44-18.32A13.28,13.28,0,0,0,188.93,130.26Z"/></g></g></svg>