<svg xmlns="http://www.w3.org/2000/svg" viewBox="0 0 576.56 633.11"><defs><style>.cls-1{fill:#5993ff;}.cls-2{fill:#f8c31b;}.cls-3{fill:#f34e00;}</style></defs><g id="Layer_2" data-name="Layer 2"><g id="Layer_5" data-name="Layer 5"><path class="cls-1" d="M233,193.79a17.29,17.29,0,0,0,12.78,8.2c10.09,1.17,28.08,1.41,49.77-6.42s35.38-19.51,42.39-26.86a17.26,17.26,0,0,0,4.6-14.47L321.93,14.88A17.3,17.3,0,0,0,305.75.14c-13.39-.77-37.13,1.34-75.33,15.14S172.6,42.61,162.79,51.75a17.31,17.31,0,0,0-3,21.68Z"/><path class="cls-1" d="M502.4,509.57,360.74,202.89a17.26,17.26,0,0,0-26.21-6.46,118.69,118.69,0,0,1-32.45,17.34,118.49,118.49,0,0,1-36,7.39,17.26,17.26,0,0,0-16,21.71l86.92,326.45a17.28,17.28,0,0,0,8.44,10.73L439,631a17.28,17.28,0,0,0,24.32-8.78l39.47-99A17.27,17.27,0,0,0,502.4,509.57Z"/><path class="cls-2" d="M543,110.89c-38.7,20.8-54.87,61.4-65.87,109.41-2.61,11.4-18.84,11.4-21.46,0-11-48-27.16-88.61-65.87-109.41a11,11,0,0,1,2.33-20.32c37.29-10.16,53-24,63.77-58.3,3.23-10.27,17.77-10.27,21,0,10.78,34.26,26.48,48.14,63.77,58.3A11,11,0,0,1,543,110.89Z"/><path class="cls-3" d="M573,282.36c-24,12.9-34,38.06-40.84,67.82a6.82,6.82,0,0,1-13.3,0C512,320.42,502,295.26,478,282.36a6.82,6.82,0,0,1,1.44-12.6c23.12-6.3,32.85-14.9,39.54-36.14a6.82,6.82,0,0,1,13,0c6.68,21.24,16.41,29.84,39.53,36.14A6.82,6.82,0,0,1,573,282.36Z"/><path class="cls-3" d="M41.32,228.83C39.39,230.7-5.92,275.53.65,347.3a80,80,0,0,0,32.44,57.79,89.26,89.26,0,0,0,41.82,16.65,86.7,86.7,0,0,0,34.67,43c24.84,15.85,57.2,19.47,91.13,10.2q4-1.11,7.8-2.26c1,1,2,2,3,2.89A85.68,85.68,0,0,0,270.35,499a90.62,90.62,0,0,0,23-3c75.5-19.76,92.73-100.91,93.43-104.36a20,20,0,0,0-39.19-8A122.92,122.92,0,0,1,334,416.82c-12.68,21.38-29.75,35-50.74,40.49-14.43,3.78-25.91.76-34.14-3.64a125.21,125.21,0,0,0,24.31-23.09c20.74-25.15,31.56-59.21,26.92-84.75-2.74-15.11-10.54-26.74-22.57-33.65-13.88-8-29.94-8.49-45.23-1.44-24.59,11.35-43.36,40-50.19,76.63a96.33,96.33,0,0,0,4.09,49.91c-21.43,5.07-41,2.87-55.32-6.29a46.21,46.21,0,0,1-14.33-14.36C148,406.1,174.6,384,189.8,355.42,198.57,339,203.54,324.78,205,312.1c2.87-25.09-8.41-39.61-18.38-47.37-12.27-9.56-27.09-12.9-41.75-9.41-22.87,5.44-44.13,26.75-59.87,60-10.34,21.85-15.85,43.24-16.49,63.86a48.4,48.4,0,0,1-11.65-6.26,40,40,0,0,1-16.36-29.27c-4.79-52.21,27.38-84.84,28.76-86.2l-.09.08h0a20,20,0,0,0-13.91-34.34A21.68,21.68,0,0,0,41.32,228.83Zm67.29,148.22c.91-14.08,5.07-28.83,12.54-44.62,11.95-25.25,25.22-36.36,33-38.2a9.51,9.51,0,0,1,2.18-.28,9.12,9.12,0,0,1,5.73,2.34c1.55,1.2,4.14,3.22,3.22,11.26-.86,7.5-4.48,17.28-10.76,29.07C144.8,354.83,128.23,369.25,108.61,377.05Zm115.11,45.51a56.25,56.25,0,0,1-2.07-27.85c4.92-26.38,17.42-42.94,27.63-47.65a11.72,11.72,0,0,1,4.86-1.25,7.18,7.18,0,0,1,3.68,1c.56.33,2.27,1.31,3.15,6.13,2.49,13.7-5.61,36.6-18.42,52.14A83.87,83.87,0,0,1,223.72,422.56Z"/><path class="cls-2" d="M371.15,368a20,20,0,0,0-23.55,15.6A123,123,0,0,1,334,416.82c-8.05,13.56-17.87,24-29.33,31.22l10.61,39.86c57-27.85,70.91-93.17,71.54-96.25A20,20,0,0,0,371.15,368Z"/><path class="cls-2" d="M291.91,400.23c8.08-18.6,11.36-38.21,8.41-54.41-2.74-15.1-10.54-26.74-22.57-33.65a48.27,48.27,0,0,0-10.48-4.49Z"/></g></g></svg>