<svg xmlns="http://www.w3.org/2000/svg" viewBox="0 0 18.85 35"><g id="Layer_2" data-name="Layer 2"><g id="Layer_1-2" data-name="Layer 1"><path d="M18.45.73a.48.48,0,0,1,.4.52,23.14,23.14,0,0,1-.55,4.62c.05.42-.21.91-.7.85-3.46-.46-4.72,2.67-5.18,6.18,1.65.1,3.29.23,4.88.37a.52.52,0,0,1,.49.46A.41.41,0,0,1,18,14a10.91,10.91,0,0,1,.31,2.91,3.14,3.14,0,0,1-.4,2.2.64.64,0,0,1-.6.78c-1.69,0-3.4.05-5.12.06,0,.17,0,.34,0,.49-.12,4.61.08,9.19,0,13.79a.44.44,0,0,1-.56.44.39.39,0,0,1-.11.06A10.16,10.16,0,0,1,8.78,35a13.18,13.18,0,0,1-2.66-.12.39.39,0,0,1-.54-.29c-.79-4.55-.66-9.35-.64-14v-.87c-1.4-.09-2.8-.23-4.17-.43A.36.36,0,0,1,.44,19c-.51-.34-.39-1.22-.4-1.78a13,13,0,0,1,.19-3.74.45.45,0,0,1,.23-.26.39.39,0,0,1,.28-.13c1.4-.17,2.85-.27,4.31-.32a39.51,39.51,0,0,1,.39-3.94A10,10,0,0,1,18,.31.62.62,0,0,1,18.45.73Z"/></g></g></svg>