<svg xmlns="http://www.w3.org/2000/svg" viewBox="0 0 300 300"><defs><style></style></defs><g id="Layer_2" data-name="Layer 2"><g id="Capa_1" data-name="Capa 1"><path d="M217.21,0H82.79A82.88,82.88,0,0,0,0,82.79V217.21A82.88,82.88,0,0,0,82.79,300H217.21A82.88,82.88,0,0,0,300,217.21V82.79A82.88,82.88,0,0,0,217.21,0Zm56.17,217.21a56.24,56.24,0,0,1-56.17,56.17H82.79a56.24,56.24,0,0,1-56.17-56.17V82.79A56.24,56.24,0,0,1,82.79,26.62H217.21a56.24,56.24,0,0,1,56.17,56.17V217.21Z"/><path class="cls-1" d="M150,72.7A77.3,77.3,0,1,0,227.3,150,77.39,77.39,0,0,0,150,72.7Zm0,128A50.68,50.68,0,1,1,200.68,150,50.73,50.73,0,0,1,150,200.68Z"/><path class="cls-1" d="M230.54,50.13a19.51,19.51,0,1,0,13.81,5.72A19.59,19.59,0,0,0,230.54,50.13Z"/></g></g></svg>