<svg xmlns="http://www.w3.org/2000/svg" width="13.002" height="13.002" viewBox="0 0 13.002 13.002">
    <g id="Layer_2" data-name="Layer 2">
        <g id="Layer_1" data-name="Layer 1">
            <path id="Path_2830" d="M10.743 6.256a.882.882 0 0 0 1.25 1.244l4.5-4.5v2.89a.875.875 0 1 0 1.75 0v-4A1.865 1.865 0 0 0 17.744.6l-.075-.1a1.865 1.865 0 0 0-1.3-.5h-4a.875.875 0 0 0 0 1.75h2.87z" data-name="Path 2830" transform="translate(-5.242)"/>
            <path id="Path_2831" d="M10.876 9.5a.88.88 0 0 0-.875.875v2a.125.125 0 0 1-.125.125h-8a.125.125 0 0 1-.125-.125v-8a.125.125 0 0 1 .125-.125h2a.875.875 0 1 0 0-1.75h-2A1.875 1.875 0 0 0 0 4.375v8a1.875 1.875 0 0 0 1.875 1.875h8a1.875 1.875 0 0 0 1.875-1.875v-2a.88.88 0 0 0-.875-.875z" data-name="Path 2831" transform="translate(0 -1.25)"/>
        </g>
    </g>
</svg>
