<svg xmlns="http://www.w3.org/2000/svg" viewBox="0 0 35.39 35"><g id="Layer_2" data-name="Layer 2"><g id="Layer_1-2" data-name="Layer 1"><path d="M27.91.14C23.34.1,18.76-.08,14.18,0,8.88.17,4.74.49,1.61,4.73A23.46,23.46,0,0,0,.18,11.57q-.06,1-.12,2c-.17,4.18.11,8.5,0,11.92A10.6,10.6,0,0,0,3,31.31c5.36,5.11,16.27,3.52,23.41,3.24,3.43-1.26,6.29-2.29,7.82-6.21,1.22-3.08,1-7,1.1-10.32C35.49,11.21,35.8,1.81,27.91.14ZM23.4,24.07c-4,3.29-9.63,2-12.88-1.65a.64.64,0,0,0-.31-.22c-2-3.48-1.81-8.38.85-11.32a9.24,9.24,0,0,1,14.37,1A9.23,9.23,0,0,1,23.4,24.07Zm2.54-14.5a3.38,3.38,0,0,1-1.25-2A2.28,2.28,0,0,1,25.31,6c1.51-1.38,4.31-.67,4.29,1.58C29.58,9.23,27.4,10.6,25.94,9.57Z"/><path d="M14.52,12.34c-1.9,1.11-2.65,4.15-1.9,6.25,1.14,3.2,5.18,5.73,8.4,3.76C27.54,18.36,19.89,7.53,14.52,12.34Z"/></g></g></svg>