<svg xmlns="http://www.w3.org/2000/svg" viewBox="0 0 51.5 35"><g id="Layer_2" data-name="Layer 2"><g id="Layer_1-2" data-name="Layer 1"><path d="M44.73.42c8,2.43,6.84,9.91,6.52,17.42-.17,4,.43,10.2-1.32,13.9-1.11,2.37-3.35,2.46-5.66,2.56-11.31.52-22.82,1-34.12.47C3.75,34.48-.57,32.55.22,26.28A98.63,98.63,0,0,1,.79,7.92c.33-3.09,1-6.19,4.31-7.21C7.43,0,10.42.73,12.85.63,16,.51,19.1.07,22.25,0,29.49-.07,36.73.08,44,.12A1.1,1.1,0,0,1,44.73.42Zm-11,15.68c-2.82-1.54-5.65-3.06-8.52-4.48-1.83-.92-3.68-1.83-5.55-2.68-.08,0-.38-.14-.71-.26.81,5.39.1,11.33-.13,16.85C23.94,22.6,28.86,19.41,33.73,16.1Z"/></g></g></svg>