<?xml version="1.0" encoding="utf-8"?>
<!-- Generator: Adobe Illustrator 23.0.3, SVG Export Plug-In . SVG Version: 6.00 Build 0)  -->
<svg version="1.1" id="Capa_1" xmlns="http://www.w3.org/2000/svg" xmlns:xlink="http://www.w3.org/1999/xlink" x="0px" y="0px"
	 viewBox="0 0 600 600" style="enable-background:new 0 0 600 600;" xml:space="preserve">
<style type="text/css">
	<!-- .st0{fill:#0B4667;} -->
	.st1{fill:#FFFFFF;}
</style>
<g>
	<path class="st0" d="M300,0c165.7,0,300,134.3,300,300S465.7,600,300,600S0,465.7,0,300S134.3,0,300,0z"/>
</g>
<g>
	<g>
		<path class="st1" d="M367.2,149.3H232.8c-45.6,0-82.8,37.1-82.8,82.8v134.4c0,45.7,37.1,82.8,82.8,82.8h134.4
			c45.7,0,82.8-37.1,82.8-82.8V232.1C450,186.5,412.9,149.3,367.2,149.3z M423.4,366.6c0,31-25.2,56.2-56.2,56.2H232.8
			c-31,0-56.2-25.2-56.2-56.2V232.1c0-31,25.2-56.2,56.2-56.2h134.4c31,0,56.2,25.2,56.2,56.2L423.4,366.6L423.4,366.6z"/>
		<path class="st1" d="M300,222.1c-42.6,0-77.3,34.7-77.3,77.3c0,42.6,34.7,77.3,77.3,77.3s77.3-34.7,77.3-77.3
			C377.3,256.7,342.6,222.1,300,222.1z M300,350c-27.9,0-50.7-22.7-50.7-50.7c0-27.9,22.7-50.7,50.7-50.7
			c27.9,0,50.7,22.7,50.7,50.7C350.7,327.3,327.9,350,300,350z"/>
		<path class="st1" d="M380.5,199.5c-5.1,0-10.2,2.1-13.8,5.7c-3.6,3.6-5.7,8.7-5.7,13.8c0,5.1,2.1,10.2,5.7,13.8
			c3.6,3.6,8.7,5.7,13.8,5.7c5.1,0,10.2-2.1,13.8-5.7c3.6-3.6,5.7-8.7,5.7-13.8c0-5.1-2.1-10.2-5.7-13.8
			C390.7,201.6,385.7,199.5,380.5,199.5z"/>
	</g>
	<g>
	</g>
	<g>
	</g>
	<g>
	</g>
	<g>
	</g>
	<g>
	</g>
	<g>
	</g>
	<g>
	</g>
	<g>
	</g>
	<g>
	</g>
	<g>
	</g>
	<g>
	</g>
	<g>
	</g>
	<g>
	</g>
	<g>
	</g>
	<g>
	</g>
</g>
</svg>
