<svg xmlns="http://www.w3.org/2000/svg" viewBox="0 0 304.77 300"><defs><style>.cls-1{fill:#fff;}</style></defs><g id="Layer_2" data-name="Layer 2"><g id="Layer_1-2" data-name="Layer 1"><path class="cls-1" d="M304.4,227.25c-1.33-4.4-7.69-7.5-7.69-7.5h0l-1.58-.82a122.9,122.9,0,0,1-27.9-18.29,94.29,94.29,0,0,1-16.16-18.41,69.06,69.06,0,0,1-8.92-18.38c-.6-2.37-.51-3.32,0-4.55a7.62,7.62,0,0,1,2.21-2.5c3.57-2.53,9.33-6.26,12.87-8.54,3.07-2,5.7-3.7,7.25-4.78,5-3.48,8.38-7,10.37-10.85a18.69,18.69,0,0,0,.89-15.72c-2.72-7.21-9.46-11.51-18-11.51a28.55,28.55,0,0,0-5.82.63,92.39,92.39,0,0,0-13.44,4.33.4.4,0,0,1-.57-.41c.41-9.64.88-22.61-.19-34.92-.95-11.13-3.26-20.53-7-28.72a78.85,78.85,0,0,0-32.24-34.57C184.86,4,169.36,0,152.41,0s-32.4,4-46,11.74A78.6,78.6,0,0,0,74.12,46.31c-3.77,8.19-6.05,17.56-7,28.72-1.08,12.37-.64,24.3-.19,34.92a.43.43,0,0,1-.61.41A92.39,92.39,0,0,0,52.89,106a28.1,28.1,0,0,0-5.82-.63c-8.54,0-15.28,4.3-18,11.51a18.69,18.69,0,0,0,.89,15.72c2,3.83,5.4,7.37,10.37,10.85,1.52,1.08,4.18,2.79,7.24,4.78,3.45,2.25,9.05,5.88,12.66,8.38a7.54,7.54,0,0,1,2.43,2.66c.51,1.27.6,2.21-.06,4.74a69.75,69.75,0,0,1-8.86,18.19,93.43,93.43,0,0,1-16.16,18.41,122.9,122.9,0,0,1-27.9,18.29c-.51.25-1.11.53-1.74.91h0s-6.33,3.23-7.53,7.41c-1.77,6.16,2.94,11.95,7.72,15.05,7.84,5.06,17.4,7.78,22.93,9.27,1.55.41,2.94.79,4.21,1.17a8.43,8.43,0,0,1,3.64,2.12c1.07,1.39,1.2,3.1,1.58,5h0c.6,3.26,2,7.28,6,10.06,4.43,3,10,3.26,17.14,3.54,7.44.29,16.67.63,27.27,4.15,4.9,1.61,9.36,4.36,14.49,7.52,10.75,6.62,24.13,14.84,47,14.84s36.35-8.26,47.16-14.9c5.13-3.13,9.53-5.85,14.33-7.43,10.6-3.51,19.84-3.86,27.27-4.15,7.12-.28,12.72-.47,17.15-3.54s5.53-7.4,6.1-10.72c.32-1.65.51-3.13,1.46-4.34a8.24,8.24,0,0,1,3.51-2c1.29-.41,2.75-.79,4.36-1.24,5.54-1.48,12.5-3.22,20.94-8C304.78,237.84,305.47,230.76,304.4,227.25Z"/></g></g></svg>