<svg xmlns="http://www.w3.org/2000/svg" viewBox="0 0 42.21 35"><g id="Layer_2" data-name="Layer 2"><g id="Layer_1-2" data-name="Layer 1"><path d="M.81,28.05c1.79-.21,3.59,0,5.38-.27A12.75,12.75,0,0,0,8.72,27a29.66,29.66,0,0,1-5.5-4.53,1,1,0,0,1,.71-1.71A8.72,8.72,0,0,0,6,20.61a28.19,28.19,0,0,1-4.16-7.28c-.29-.72.55-1.45,1.23-1.23a7.17,7.17,0,0,0,1.2.35A15.38,15.38,0,0,1,3.5,3.11a1,1,0,0,1,1.68-.44c4,3.93,9.05,5.83,14.46,6.73A8.89,8.89,0,0,1,25.24.48C28.11-.59,32,.14,33.87,2.55a12.89,12.89,0,0,1,4.51-1.33.94.94,0,0,1,1,1.36c-.52.87-1,1.8-1.56,2.68a21.48,21.48,0,0,1,3.38-.66,1,1,0,0,1,.69,1.65C40.6,7.32,39.27,8.53,37.86,9.5c0,9.4-2.79,17.29-11.19,22.64-7,4.47-20,3.72-26.09-2.37h0a.62.62,0,0,1-.46-.49.67.67,0,0,1,.24-1A.77.77,0,0,1,.81,28.05Z"/></g></g></svg>