<?xml version="1.0" encoding="utf-8"?>
<!-- Generator: Adobe Illustrator 23.0.6, SVG Export Plug-In . SVG Version: 6.00 Build 0)  -->
<svg version="1.1" id="Capa_1" xmlns="http://www.w3.org/2000/svg" xmlns:xlink="http://www.w3.org/1999/xlink" x="0px" y="0px"
	 viewBox="0 0 600 600" style="enable-background:new 0 0 600 600;" xml:space="preserve">
<style type="text/css">
	.st1{fill:#FFFFFF;stroke:#FFFFFF;stroke-width:0.4;}
</style>
<g>
    <circle class="st0" cx="300" cy="300" r="300"/>
    <path class="st1" d="M507.1,186.6c1.1-2.9,0.6-6.1-1.2-8.5c-2.7-3.6-4.9-6.5-63.4-9.3c-33-1.6-76.4-2.1-122.2-3
        c-84.4-0.6-183.1,1.2-208.4,8.4l-5.4,1.6l-0.5,5.4c-2.8,21-26.4,206.2,1.5,238.7c13.5,15.4,80.5,23.5,194.3,22.3
        c60.8,0.5,121.5-3.5,181.7-12.1c1.7-0.3,3.3-0.7,4.9-1.4c13.9-8.3,16.6-52.6,17.1-174c0-28.9,0.3-61.7,1.6-67l0.5-0.9L507.1,186.6z
        M484.9,188.6c-30.6,36.6-142.7,136.8-163,142.7c-8.7,2.5-20.9-9.7-33.9-22.9c-13.6-15.2-29.7-28-47.7-37.8
        c-38.6-23.8-74.7-51.6-107.6-82.8C250,180.9,367.7,181.1,484.9,188.6z M120.8,199.9c32.2,30,66.9,57.3,103.7,81.5
        C192,324.3,156,364.4,116.9,401.5C105.8,369.5,112.6,268.6,120.8,199.9z M128.9,413.4c40.4-38,77.4-79.4,110.5-123.8
        c13.6,8.7,26,19.1,36.9,30.9c17,17.5,32.3,32.6,50.6,27.3l1-0.3c17.7-9.4,34.1-21,49-34.5c27.5,36.1,56.9,70.6,88.1,103.5
        c-54.9,5.9-110.1,8.8-165.3,8.8C196,425.9,147.2,419.4,128.9,413.4z M481.1,408.3c-32.6-33.5-63.1-69.1-91.2-106.4
        c35.1-29.9,75.3-67.6,98.6-92.3c-0.2,10.9-0.4,25.5-0.5,45.1c1.4,51.4-0.8,102.8-6.8,153.8L481.1,408.3z"/>
</g>
</svg>
