<svg xmlns="http://www.w3.org/2000/svg" viewBox="0 0 500 500"><g id="Layer_2" data-name="Layer 2"><g id="Layer_1-2" data-name="Layer 1"><path d="M139.31,460.48c12.1-2,23.9,2.84,31.93,7.8L207,487.89c11.72,7.23,27.22,11.53,43.63,12.1h1c16.42-.57,31.91-4.87,43.64-12.1,12.63-7.29,29.44-29.74,52-35.38,10.28-2.58,27.93-2.66,35.11,1.19l12.94,6.14c8.75,4.69,21,11.67,28.86,11.68h0c9.24,0,17.41-3.47,23-9.74,4.25-4.79,9-13.41,7.48-27.36a20.42,20.42,0,0,1,4.42-15,21,21,0,0,1,14.3-7.87c14.05-1.52,21.32-6,25.22-16.86,4-10.66,1.27-23.12-24.71-48.8C450.94,323.22,435.62,309,426.34,290c-3.07-6.28-3.21-16.83,3.21-19.5l14.18-6.91a48.83,48.83,0,0,0,26.49-26.69,49.35,49.35,0,0,0,0-37.74C462.61,180.7,446.81,170,427,171.31c-9.94.64-16.05,5.26-22,7.75h0a1.38,1.38,0,0,1-1.91-1.28l1.31-21.89C404.35,70.55,336.25.24,251.53,0S97.85,69.12,97.85,154.4l1.25,23a1.37,1.37,0,0,1-1.9,1.28h0c-6-2.5-16.26-6.13-22.69-6.13-19.88,0-34.92,8.1-42.52,26.6a49.43,49.43,0,0,0,26.48,64.43l15.06,6.29c6.42,2.67,7.64,13.88,3.76,19.69-25.54,38.21-58.07,49.13-68.87,64.64-9.92,14.24-9.88,24.8-6,35.77s13.78,15,27.84,16.48a21.05,21.05,0,0,1,14.29,7.87,20.38,20.38,0,0,1,4.42,15c-1.52,13.95-2.06,22.67,4.35,30.86,5.58,6.27,16.46,12.22,25.67,12.92C112.79,475.78,126.48,462.64,139.31,460.48Z"/></g></g></svg>