<svg xmlns="http://www.w3.org/2000/svg" width="50.996" height="51" viewBox="0 0 50.996 51">
    <path data-name="Path 2931" d="m148.022 197.37-5.647-4.843-9.062 9.062 6.826-3.721a2.155 2.155 0 0 1 2.42.254l5.654 4.845 9.073-9.073-6.842 3.73a2.155 2.155 0 0 1-2.422-.254zm0 0" transform="translate(-119.794 -173.226)" style="stroke:#000"/>
    <path data-name="Path 2932" d="M49.995 23.99A24.548 24.548 0 0 0 25 .006 24.548 24.548 0 0 0 0 23.989v.041a23.6 23.6 0 0 0 7.844 17.446v6.044a2.449 2.449 0 0 0 2.45 2.48 2.434 2.434 0 0 0 1.293-.372l4.857-3.028a25.661 25.661 0 0 0 8.5 1.445h.517a24.549 24.549 0 0 0 24.53-23.988v-.067zm-8.55-4.126L29.674 31.635a2.458 2.458 0 0 1-3.323.127l-5.581-4.783-9.309 5.075a2.459 2.459 0 0 1-1.175.3 2.449 2.449 0 0 1-1.73-4.175l11.769-11.768a2.458 2.458 0 0 1 3.323-.127l5.576 4.781 9.309-5.075a2.45 2.45 0 0 1 2.913 3.874zm0 0" transform="translate(.5 .498)" style="stroke:#000"/>
</svg>
