<svg xmlns="http://www.w3.org/2000/svg" id="YouTube-White-Silhoutte" width="20" height="14.005" viewBox="0 0 20 14.005">
    <defs>
        <style>
        </style>
    </defs>
    <g id="Layer_1" data-name="Layer 1">
        <path id="Path_2653" d="M19.588 2.191A2.506 2.506 0 0 0 17.826.43C16.26 0 10 0 10 0S3.74 0 2.175.412A2.557 2.557 0 0 0 .412 2.191 26.414 26.414 0 0 0 0 7a26.314 26.314 0 0 0 .412 4.811 2.507 2.507 0 0 0 1.763 1.763C3.756 14 10 14 10 14s6.26 0 7.825-.412a2.506 2.506 0 0 0 1.763-1.763A26.435 26.435 0 0 0 20 7.018a25.063 25.063 0 0 0-.412-4.827zM8.008 10V4l5.206 3z" class="cls-1" data-name="Path 2653"/>
    </g>
</svg>
