<svg xmlns="http://www.w3.org/2000/svg" viewBox="0 0 404.02 142.96"><defs><style>.cls-1{fill:#85a2b3;}</style></defs><g id="Layer_2" data-name="Layer 2"><g id="Capa_1" data-name="Capa 1"><g id="Group_563" data-name="Group 563"><g id="Group_304" data-name="Group 304"><path id="Path_349" data-name="Path 349" class="cls-1" d="M57.1,11.83,2.34,104.74C-8.94,123.86,23.75,129.55,33,113.89L87.72,21C99,1.86,66.3-3.83,57.1,11.83Z"/></g><g id="Group_305" data-name="Group 305"><path id="Path_350" data-name="Path 350" class="cls-1" d="M156.69,19.1q-30,40.77-56.53,83.88c-9.32,15.26,25.17,14.52,32.29,2.94Q159,62.83,189,22c5.1-6.92-4.31-12.17-9.92-12.85a24.59,24.59,0,0,0-22.37,9.92Z"/></g><g id="Group_306" data-name="Group 306"><path id="Path_351" data-name="Path 351" class="cls-1" d="M253.81,9.46a315,315,0,0,1-48.54,84.08c-8.27,10.31,24.8,21.07,32.34,11.67a331.58,331.58,0,0,0,50.75-88.48c4.12-10.65-29.82-19.52-34.61-7.26Z"/></g><g id="Group_307" data-name="Group 307"><path id="Path_352" data-name="Path 352" class="cls-1" d="M369.44,7.85a474.91,474.91,0,0,1-60.28,125.06c-7.14,10.55,27.07,14.33,34.21,3.77a474.5,474.5,0,0,0,60.27-125c4.37-14-30.54-15.51-34.22-3.78Z"/></g></g></g></g></svg>