<svg xmlns="http://www.w3.org/2000/svg" viewBox="0 0 848.91 468.8"><defs><style>.cls-1{fill:#85a2b3;}.cls-2{fill:#f6e699;}</style></defs><g id="Layer_2" data-name="Layer 2"><g id="Capa_1" data-name="Capa 1"><g id="Group_591" data-name="Group 591"><g id="Group_323" data-name="Group 323"><g id="Group_199" data-name="Group 199"><path id="Path_318" data-name="Path 318" class="cls-1" d="M252.19,357.45a187.42,187.42,0,0,0,16.3,106.13c3.94,8.56,20.81,5.74,24.14-2.31,11.8-28.07,21.65-70.78,40.39-95.08,21.14-27.51,80.62-16.18,111.17-18.49,57.69-4.36,126.59-8.74,178.28-37.7,88.15-49.29,90.28-173.66,7.62-229.81C577.42,44.44,502.71,38.88,442,25.7,378.27,11.84,315.7-3,250.31,8.46c-93.37,16.38-234.85,53-248.88,165.4C-17.49,325.45,156.17,334.09,257.5,364.13c9.76,2.91,29.27-11.3,14.64-15.67C213,330.92,146.68,330.74,92.24,299.07A129.79,129.79,0,0,1,42.17,123.85c36.11-63.6,140.58-86.7,207.28-98.68,80.12-14.36,161.26,12.43,239,29.54C556.28,69.59,633.61,82.83,659.84,157.2a120,120,0,0,1-10.09,101.87c-27,44.59-77.37,55.29-125.13,62.82-31,4.88-62.22,8.22-93.46,10.1-28,1.71-60.59-3.6-87.81,4-45.11,12.58-58.71,86.36-74.2,123.08l24.13-2.31A178,178,0,0,1,277.19,355c1.54-11.64-23.62-7.87-25,2.39Z"/></g></g><g id="Group_324" data-name="Group 324"><g id="Group_250" data-name="Group 250"><g id="Group_247" data-name="Group 247"><g id="Group_246" data-name="Group 246"><path id="Path_342" data-name="Path 342" class="cls-2" d="M802.2,143.84c19.21,7.3,41.94-10.19,46.09-29a52.55,52.55,0,0,0-24.85-53.09c-18.41-10.5-40.77.57-50.86,17.68-14.91,25.44,1.32,49,18.69,67.77,7,7.4,28.22-10.35,21.6-17.51A79.25,79.25,0,0,1,791,97.3c-1-3.89-2.77-14.38.83-17.64,2.8-2.56,6.86-1.14,10.48.38a40.67,40.67,0,0,1,18.85,19.8c2.39,4.79,10.53,28.49-.58,24.2C811.55,120.58,792.44,140.09,802.2,143.84Z"/></g></g><g id="Group_249" data-name="Group 249"><g id="Group_248" data-name="Group 248"><path id="Path_343" data-name="Path 343" class="cls-2" d="M813.3,129.29c-9.36,4.17-19.58,25.69-3.13,18.37C819.61,143.45,829.75,122,813.3,129.29Z"/></g></g></g><g id="Group_252" data-name="Group 252"><g id="Group_247-2" data-name="Group 247-2"><g id="Group_246-2" data-name="Group 246-2"><path id="Path_342-2" data-name="Path 342-2" class="cls-2" d="M698.76,86.19c19.22,7.3,42-10.19,46.1-29A52.58,52.58,0,0,0,720,4.09c-18.42-10.5-40.78.57-50.86,17.69-14.92,25.44,1.32,49,18.68,67.76,7,7.4,28.22-10.34,21.6-17.5a79.45,79.45,0,0,1-21.89-32.38c-1-3.89-2.76-14.38.84-17.65,2.79-2.56,6.86-1.13,10.47.39A40.67,40.67,0,0,1,717.7,42.2c2.4,4.78,10.53,28.48-.58,24.2C708.11,62.94,689,82.45,698.76,86.19Z"/></g></g><g id="Group_249-2" data-name="Group 249-2"><g id="Group_248-2" data-name="Group 248-2"><path id="Path_343-2" data-name="Path 343-2" class="cls-2" d="M709.87,71.65c-9.36,4.16-19.58,25.69-3.14,18.37C716.18,85.81,726.32,64.32,709.87,71.65Z"/></g></g></g><g id="Group_251" data-name="Group 251"><g id="Group_247-3" data-name="Group 247-3"><g id="Group_246-3" data-name="Group 246-3"><path id="Path_342-3" data-name="Path 342-3" class="cls-2" d="M754.19,268.91c19.21,7.3,41.94-10.19,46.09-29a52.56,52.56,0,0,0-24.85-53.09c-18.41-10.5-40.77.57-50.86,17.68-14.91,25.44,1.32,49,18.68,67.77,7,7.4,28.23-10.35,21.61-17.5A79.28,79.28,0,0,1,743,222.37c-1-3.89-2.77-14.38.83-17.64,2.8-2.56,6.86-1.14,10.48.39a40.6,40.6,0,0,1,18.85,19.79c2.39,4.79,10.53,28.49-.58,24.2C763.54,245.65,744.43,265.16,754.19,268.91Z"/></g></g><g id="Group_249-3" data-name="Group 249-3"><g id="Group_248-3" data-name="Group 248-3"><path id="Path_343-3" data-name="Path 343-3" class="cls-2" d="M765.29,254.36c-9.36,4.17-19.58,25.69-3.14,18.37C771.6,268.52,781.74,247,765.29,254.36Z"/></g></g></g></g></g></g></g></svg>