<?xml version="1.0" encoding="UTF-8"?><svg id="Layer_2" xmlns="http://www.w3.org/2000/svg" viewBox="0 0 177.68 131.25"><defs><style>.cls-1{fill:#ba5b31;}.cls-1,.cls-2,.cls-3,.cls-4,.cls-5,.cls-6,.cls-7,.cls-8{stroke:#000;stroke-linecap:round;stroke-width:1.25px;}.cls-1,.cls-2,.cls-3,.cls-4,.cls-8{stroke-linejoin:round;}.cls-2{fill:#ffa4de;}.cls-3{fill:#f79952;}.cls-4,.cls-7{fill:none;}.cls-5{fill:#9478d6;}.cls-5,.cls-6,.cls-7{stroke-miterlimit:10;}.cls-6{fill:#fff;}.cls-8{fill:#43bf5e;}</style></defs><g id="Layer_1-2"><g id="Group_2228"><g id="Skeleton"><path id="Path_4521" class="cls-2" d="M48.94,55.1c0-15.32-10.84-27.78-24.16-27.78S.63,39.78,.63,55.1c-.06,6.92,2.26,13.65,6.59,19.05,.31,.38,.36,.9,.13,1.33l-2.15,4.04c-.73,1.37-.21,3.08,1.16,3.82l1.28,.68c1.37,.73,3.08,.21,3.82-1.16,0,0,0,0,0,0l1.19-2.24c.32-.59,1.06-.82,1.65-.5,0,0,.01,0,.02,.01,.53,.29,1.07,.57,1.62,.81,.49,.22,.78,.74,.7,1.28l-.4,2.82c-.22,1.54,.85,2.97,2.39,3.19l1.43,.2c1.54,.22,2.97-.85,3.19-2.39l.3-2.12c.09-.6,.61-1.05,1.22-1.04h.01c.79,0,1.58-.05,2.37-.14,.62-.07,1.2,.34,1.33,.95l.45,2.07c.33,1.52,1.84,2.48,3.36,2.15l1.41-.31c1.52-.33,2.49-1.84,2.15-3.36,0,0,0,0,0,0l-.68-3.09c-.11-.51,.12-1.03,.57-1.3,.54-.32,1.07-.66,1.59-1.02,.55-.39,1.31-.26,1.7,.29,.01,.02,.02,.03,.03,.05l1.51,2.36c.84,1.31,2.58,1.7,3.9,.86,0,0,0,0,0,0l1.22-.78c1.31-.84,1.7-2.58,.86-3.9,0,0,0,0,0,0l-2.71-4.22c-.26-.4-.26-.93,.01-1.33,3.36-5.04,5.13-10.98,5.09-17.04Z"/><g id="Group_2215"><ellipse id="Ellipse_5" cx="18.13" cy="67.1" rx="4.15" ry="5.07" transform="translate(-34.74 21.98) rotate(-34.41)"/><ellipse id="Ellipse_6" cx="31.43" cy="67.1" rx="5.07" ry="4.15" transform="translate(-41.69 55.12) rotate(-55.59)"/></g><g id="Group_2216"><ellipse id="Ellipse_7" cx="22.47" cy="74.3" rx="1.77" ry=".92" transform="translate(-51.53 50.85) rotate(-55.59)"/><ellipse id="Ellipse_8" cx="27.1" cy="74.3" rx=".92" ry="1.77" transform="translate(-37.24 28.31) rotate(-34.41)"/></g><line id="Line_109" class="cls-7" x1="45.53" y1="76.1" x2="42.09" y2="70.72"/><path id="Path_4522" class="cls-4" d="M37.28,31.33l-1.26,3.29c-.23,.6-.03,1.28,.49,1.66l2.78,2.03c.18,.13,.32,.31,.39,.52l1.94,5.3"/><line id="Line_110" class="cls-4" x1="35.09" y1="40.74" x2="38.08" y2="37.43"/><path id="Path_4523" class="cls-4" d="M23,27.4l2.99,3.65c.69,.84,.87,1.99,.47,3l-1.41,3.61"/><path id="Path_4524" class="cls-4" d="M11.35,32.41v5.74c0,.88-.37,1.73-1.02,2.33l-1.3,1.2c-.53,.49-.88,1.15-.99,1.86l-.45,2.88"/><path id="Path_4525" class="cls-4" d="M17.59,40.62l-2.75-3.41c-.36-.44-.84-.77-1.38-.93l-2.11-.65"/><path id="Path_4526" class="cls-7" d="M15.11,59.98c.64-1.67,2.51-2.51,4.18-1.87,.86,.33,1.55,1.01,1.87,1.87"/><path id="Path_4527" class="cls-7" d="M34.13,61.98c-.94,.54-2.03,.72-3.09,.52-.73-.14-1.41-.46-1.99-.93"/><line id="Line_111" class="cls-7" x1="5.96" y1="78.07" x2="9.23" y2="71.93"/></g><g id="Candle"><path id="Path_4533" class="cls-5" d="M81.56,81.72c0-1.21,.02-2.42,.07-3.63,.07-1.81-1.22-3.38-3.01-3.66-1.61-.26-2.98-1.3-4.67-1.3-2.76,0-5.51,.36-8.17,1.07-1.17,.33-2.1,1.24-2.43,2.42-4.85,16.33-5.14,33.68-.84,50.16,.32,1.21,1.24,2.17,2.44,2.53,2.92,.87,5.95,1.31,9,1.31,5.61,.02,11.12-1.49,15.94-4.34,1.58-.94,2.18-2.94,1.37-4.6-6.04-12.43-9.7-25.36-9.7-39.96Z"/><path id="Path_4534" class="cls-1" d="M77.86,111.92l-.37-9.66c-.05-.32,.18-.63,.5-.67,.03,0,.06,0,.09,0h0c.25,0,.47,.15,.55,.38l2.04,5.33c.54,1.4,2.02,2.21,3.48,1.89h0c1.64-.36,2.68-1.99,2.32-3.63-.01-.06-.03-.11-.04-.17-2.03-7.44-4.51-15.21-4.51-23.06,0-1.11,.02-2.25,.07-3.39,.11-2.71-1.83-5.08-4.51-5.5-1.18-.23-2.38-.34-3.58-.31-2.54-.12-5.09,.13-7.57,.74-1.77,.5-3.17,1.87-3.69,3.64-2.23,7.49-4.23,15.59-4.48,23.41-.05,1.63,1.21,3.01,2.84,3.11l.42,.03c1.62,.11,3.04-1.07,3.22-2.68l.54-4.67c.27-.79,1.07-1.26,1.89-1.11,1.5,.19,2.45,1,1.97,11.17s1.67,14.7,5.63,13.7c2.51-.63,3.25-3.82,3.2-8.54Z"/><ellipse id="Ellipse_12" class="cls-1" cx="72.35" cy="77.06" rx="9.05" ry="4.66"/><path id="Path_4535" class="cls-3" d="M72.2,77.06c-3.18-4.5-4.4-10.09-3.38-15.5,1.93-11.3,8.33-13.59,8.33-13.59,0,0-2.44,5.01-1.59,9.29,1.53-1.37,2.86-2.96,3.94-4.71,0,0,7.05,18.26-7.3,24.5Z"/><path id="Path_4536" class="cls-4" d="M75.56,62.19c-.13,5.13-1.27,10.18-3.36,14.87"/></g><path id="Path_4537" class="cls-8" d="M156.37,75.76l3.65-12.22c.13-.48,.63-.76,1.11-.62,.38,.11,.64,.45,.66,.84l.67,13.96c.02,.5,.44,.88,.94,.86,.16,0,.32-.06,.46-.15l9.54-6.22c.41-.28,.97-.17,1.25,.24,.23,.34,.2,.8-.08,1.11l-7.53,8.67c-.33,.37-.29,.94,.08,1.27,.1,.08,.21,.15,.33,.18l8.95,2.73c.48,.14,.75,.64,.62,1.11-.11,.38-.46,.65-.85,.65l-9.77,.28c-.5,.01-.89,.43-.88,.92,0,.09,.02,.19,.05,.28l3.35,9.58c.17,.47-.07,.98-.53,1.16-.38,.14-.81,.01-1.04-.32l-7.05-9.4c-.3-.4-.86-.48-1.26-.19-.1,.07-.18,.16-.24,.27l-5.32,9.01c-.25,.43-.79,.58-1.23,.34-.35-.2-.53-.61-.43-1l2.31-10.23c.11-.48-.19-.97-.67-1.08-.2-.05-.41-.02-.6,.07l-7.93,3.8c-.44,.22-.99,.05-1.21-.4-.19-.37-.1-.82,.22-1.09l8.54-7.64c.37-.33,.4-.9,.07-1.27,0,0-.02-.02-.03-.03l-7.63-7.9c-.35-.35-.35-.92,0-1.27,.27-.27,.69-.34,1.04-.17l9.18,4.41c.45,.22,.99,.03,1.2-.42,.02-.04,.04-.09,.05-.13Z"/><g id="Ghost_1"><g id="Group_2217"><path id="Path_4528" class="cls-6" d="M161.18,35.1c1.45-.13,2.91-.06,4.34,.21,2.77,.55,4.33,2.41,3.99,4.23-.58,3.1-3.38,4.27-6.07,5.8-1.39,.79-2.67,1.78-3.79,2.92"/><path id="Path_4529" class="cls-6" d="M125.11,2.3c-17.81,5.26-23.27,24.54-21.43,40.29,1.69,14.5,11,24.5,12.56,32.86,1.51,8.09-5.54,9.81-4.35,18.52,1.2,8.71,13.77,9.83,17.1,15.61,2.88,5,1.94,10.46,4.96,10.49,2.13,.02,2.73-3.21,2.82-6.45,.12-4.53-1.82-8.42-6.22-12.2-7.2-6.19-8.56-11.74-4.17-15.34,4.64-3.8,21.26-7.25,30.8-29.96,4.16-9.9,4.99-23.57,2.89-34.06-2.71-13.61-13.7-26.04-34.96-19.76Z"/><path id="Path_4530" class="cls-6" d="M122.64,38.65c3.11-1,6.41-1.22,9.62-.64,3.27,.65,5.11,2.84,4.71,4.99-.68,3.66-3.99,5.03-7.16,6.84-2.21,1.22-4.14,2.87-5.68,4.87"/><circle id="Ellipse_9" cx="140.73" cy="31.06" r="2.82"/><circle id="Ellipse_10" cx="153.95" cy="31.06" r="2.82"/><path id="Path_4531" d="M149.17,35.06c.44,0,.81,.34,.82,.78,0,.11-.02,.22-.06,.32-.61,1.43-2.26,2.11-3.7,1.5-.66-.28-1.18-.79-1.47-1.44-.19-.41-.01-.89,.4-1.08,.11-.05,.22-.07,.34-.08h3.68Z"/><path id="Path_4532" class="cls-6" d="M121.63,85c3.17,.18,6.33-.35,9.27-1.55"/></g><ellipse id="Ellipse_11" cx="130.42" cy="127.55" rx="18.64" ry="3.07"/></g></g></g></svg>