<?xml version="1.0" encoding="UTF-8"?><svg id="Layer_2" xmlns="http://www.w3.org/2000/svg" viewBox="0 0 234.28 131.25"><defs><style>.cls-1,.cls-2,.cls-3,.cls-4,.cls-5,.cls-6,.cls-7,.cls-8{stroke:#000;stroke-linecap:round;stroke-width:1.25px;}.cls-1,.cls-2,.cls-8{stroke-linejoin:round;}.cls-1,.cls-9,.cls-3{fill:#ffa4de;}.cls-2,.cls-6{fill:none;}.cls-10,.cls-8{fill:#43bf5e;}.cls-3,.cls-4,.cls-5,.cls-6,.cls-7{stroke-miterlimit:10;}.cls-4{fill:#fff;}.cls-5{fill:#f79952;}.cls-7{fill:#7956cc;}</style></defs><g id="Layer_1-2"><g id="Group_2214"><g id="Candy_3"><g id="Path_4508"><path class="cls-10" d="M158.47,122c-1.97,0-3.7-.71-4.52-1.86-.5-.7-.62-1.53-.34-2.33,.55-1.57,1.96-1.7,3.1-1.79,.99-.09,1.61-.17,1.93-.72,.1-.17,.12-.49-.06-.82-.16-.28-.58-.77-1.65-.81h0c-.59,0-1.24,.26-1.93,.53-.78,.31-1.58,.63-2.41,.66h-.16c-1.76,0-3.26-1.08-3.73-2.7-.45-1.56,.18-3.11,1.64-4.03,2.17-1.37,4.18-1.52,5.78-1.63,1.37-.1,2.16-.18,2.56-.76,.27-.39,.3-.9,.08-1.32-.29-.54-.92-.84-1.79-.84-.17,0-.35,.01-.54,.04-.36,.04-.97,.29-1.62,.54-1.26,.5-2.83,1.11-4.39,1.11-.91,0-1.72-.22-2.41-.65-1.19-.74-1.93-2.03-2.02-3.56-.11-1.91,.79-3.84,2.42-5.14,1.68-1.35,3.92-2.06,6.46-2.06,5.25,0,11.89,3.22,14.39,9.37,2.1,4.73,1.45,10.26-1.7,14.39-1.9,2.14-4.45,3.6-7.21,4.16-.62,.14-1.27,.21-1.9,.21h0Z"/><path d="M154.88,94.49c5.36,0,11.52,3.36,13.81,8.98,2.02,4.54,1.4,9.82-1.61,13.78-1.79,2.02-4.19,3.39-6.84,3.92-.61,.14-1.21,.2-1.77,.2-2.82,0-4.9-1.56-4.27-3.36,.78-2.25,3.92-.58,4.98-2.4,.49-.85-.11-2.49-2.22-2.57-.03,0-.05,0-.08,0-1.31,0-2.87,1.15-4.3,1.2-.05,0-.09,0-.13,0-3.13,0-4.52-3.83-1.76-5.58,3.87-2.44,7.28-.75,8.52-2.57,.82-1.2,.15-3.13-2.23-3.13-.19,0-.4,.01-.62,.04-1.18,.15-3.65,1.65-5.93,1.65-.73,0-1.44-.15-2.08-.55-2.38-1.47-2.38-5.4,.47-7.68,1.64-1.31,3.78-1.92,6.07-1.92m0-1.25c-2.69,0-5.06,.76-6.85,2.2-1.79,1.43-2.78,3.55-2.66,5.67,.1,1.73,.95,3.2,2.31,4.05,.79,.49,1.71,.74,2.74,.74,1.67,0,3.31-.64,4.62-1.16,.59-.23,1.19-.47,1.47-.5,.16-.02,.32-.03,.46-.03,.62,0,1.07,.18,1.24,.51,.11,.21,.1,.47-.04,.67-.23,.34-.95,.41-2.09,.49-1.59,.11-3.77,.27-6.07,1.73-1.68,1.06-2.43,2.92-1.9,4.73,.55,1.89,2.28,3.15,4.33,3.15,.06,0,.12,0,.18,0,.93-.03,1.83-.39,2.62-.71,.6-.24,1.23-.49,1.64-.49,.55,.02,.93,.17,1.12,.42,.11,.14,.1,.26,.09,.29-.15,.25-.57,.31-1.43,.39-1.18,.1-2.95,.26-3.63,2.21-.35,1-.2,2.02,.42,2.9,.93,1.31,2.86,2.13,5.03,2.13,.68,0,1.37-.08,2.05-.23,2.86-.58,5.54-2.11,7.5-4.31,.02-.02,.04-.05,.06-.07,3.29-4.32,3.96-10.08,1.76-15.04-2.6-6.37-9.49-9.73-14.96-9.73h0Z"/></g><path id="Path_4509" class="cls-6" d="M168.91,104.01c-1.97,5.25-7.36,7.05-7.36,7.05"/><path id="Path_4510" class="cls-6" d="M159.09,98.88s7.15,.24,9.31,3.92"/><path id="Path_4511" class="cls-6" d="M167.2,100.76s-3.94,2.12-5.41,5.46"/><g id="Path_4512"><path class="cls-9" d="M224.76,89.82c-5.26,0-11.89-3.22-14.39-9.37-2.1-4.73-1.45-10.25,1.7-14.39,1.9-2.14,4.45-3.6,7.21-4.16,.62-.14,1.27-.21,1.9-.21,1.97,0,3.7,.71,4.52,1.86,.5,.7,.62,1.53,.34,2.33-.55,1.57-1.96,1.69-3.1,1.79-.99,.09-1.61,.17-1.93,.72-.1,.17-.12,.5,.06,.82,.16,.28,.58,.77,1.65,.81h0c.58,0,1.23-.26,1.92-.54,.78-.31,1.59-.64,2.41-.66h.16c1.76,0,3.26,1.08,3.73,2.7,.45,1.56-.18,3.11-1.64,4.03-2.17,1.38-4.18,1.52-5.79,1.64-1.37,.1-2.16,.18-2.56,.76-.27,.4-.3,.9-.08,1.32,.29,.54,.92,.84,1.79,.84,.17,0,.35-.01,.54-.04,.36-.04,.97-.29,1.62-.54,1.26-.5,2.83-1.11,4.39-1.11,.91,0,1.72,.22,2.41,.65,1.19,.74,1.93,2.03,2.02,3.56,.12,1.91-.79,3.84-2.42,5.14-1.68,1.35-3.92,2.06-6.46,2.06Z"/><path d="M221.17,62.32c2.82,0,4.9,1.56,4.27,3.36-.79,2.25-3.92,.58-4.98,2.41-.49,.85,.11,2.49,2.22,2.57,.02,0,.05,0,.07,0,1.31,0,2.87-1.15,4.31-1.2,.05,0,.09,0,.13,0,3.13,0,4.52,3.83,1.76,5.58-3.87,2.44-7.28,.76-8.52,2.57-.82,1.2-.15,3.13,2.23,3.13,.19,0,.4-.01,.62-.04,1.18-.15,3.65-1.65,5.93-1.65,.73,0,1.44,.15,2.08,.55,2.38,1.47,2.38,5.4-.47,7.68-1.64,1.31-3.78,1.92-6.07,1.92-5.36,0-11.52-3.36-13.81-8.98-2.02-4.54-1.4-9.82,1.61-13.78,1.79-2.02,4.19-3.39,6.84-3.92,.61-.14,1.21-.2,1.77-.2m0-1.25c-.68,0-1.37,.08-2.05,.23-2.86,.58-5.54,2.11-7.5,4.31-.02,.02-.04,.05-.06,.07-3.29,4.32-3.96,10.08-1.76,15.04,2.6,6.37,9.49,9.73,14.96,9.73,2.69,0,5.06-.76,6.85-2.2,1.79-1.43,2.78-3.55,2.66-5.67-.1-1.73-.95-3.2-2.31-4.05-.79-.49-1.71-.74-2.74-.74-1.67,0-3.31,.64-4.62,1.16-.58,.23-1.19,.47-1.47,.5-.16,.02-.32,.03-.46,.03-.62,0-1.07-.18-1.24-.51-.11-.21-.1-.47,.04-.67,.23-.34,.94-.41,2.09-.49,1.59-.11,3.77-.27,6.07-1.73,1.68-1.06,2.43-2.92,1.9-4.73-.55-1.89-2.29-3.16-4.33-3.16-.06,0-.12,0-.18,0-.94,.03-1.83,.39-2.62,.71-.6,.24-1.23,.49-1.64,.49-.54-.02-.93-.17-1.11-.42-.11-.14-.1-.27-.09-.29,.15-.25,.57-.31,1.43-.39,1.17-.1,2.95-.26,3.63-2.21,.35-1,.2-2.03-.42-2.9-.93-1.31-2.86-2.13-5.03-2.13h0Z"/></g><path id="Path_4513" class="cls-6" d="M210.73,79.68c1.97-5.25,7.36-7.05,7.36-7.05"/><path id="Path_4514" class="cls-6" d="M220.54,84.81s-7.15-.24-9.31-3.92"/><path id="Path_4515" class="cls-6" d="M216.29,79.06c-1.83,.08-3.61,.61-5.18,1.55"/><path id="Path_4516" class="cls-7" d="M171.68,85.17c-.32,.16-.64,.32-.94,.49-.63,3.4,2.88,7.73,7.51,5.37,4.78-2.44,3.76-6.57,9.07-8.11s7.91,3.94,5.45,7.02c-3.35,4.19-11.49,1.52-13.65,7.13-.97,2.53,.89,4.97,2.36,5.9,2.2,1.13,4.82,1.08,6.97-.15,1.8-1.19,4.23-.69,5.42,1.11,.35,.53,.57,1.14,.63,1.78l10.63-4.49c-.43-2.1-2.4-4.44-5.15-3.16-4.45,2.08-7.66-4.16-3.19-6.15,3.47-1.55,3.96-.11,6.61-1.78,1.93-1.33,2.41-3.98,1.08-5.91-.63-.91-1.58-1.53-2.66-1.75-2.05-.33-3.39,.77-4.99,.18-2.34-.85-2.94-3.29-1.41-6.66,.49-1.07,.65-2.27,.46-3.43-1.02,.25-2,.61-2.95,1.06l-21.24,11.53Z"/><g id="Group_2213"><path id="Path_4517" class="cls-1" d="M195.4,75.98c-1.53,3.37-.93,5.81,1.41,6.66,1.6,.59,2.94-.51,4.99-.18,2.3,.46,3.79,2.7,3.33,5-.22,1.08-.84,2.03-1.75,2.66-2.65,1.67-3.13,.23-6.61,1.78-4.47,1.99-1.26,8.23,3.19,6.15,2.75-1.28,4.71,1.05,5.15,3.16l.93-.39c7.51-3.62,10.66-12.65,7.03-20.16,0,0,0,0,0,0h0c-3.11-6.43-10.29-9.81-17.22-8.1,.19,1.17,.03,2.36-.46,3.44Z"/><path id="Path_4518" class="cls-8" d="M188.43,102.8c-2.15,1.23-4.77,1.29-6.97,.15-1.47-.93-3.33-3.37-2.36-5.9,2.16-5.6,10.29-2.94,13.65-7.13,2.46-3.08-.15-8.55-5.45-7.02s-4.29,5.67-9.07,8.11c-4.62,2.36-8.14-1.97-7.51-5.37-6.87,3.82-10.08,11.46-6.61,18.65h0c3.63,7.51,12.26,9.5,19.77,5.88l10.59-4.47c-.21-2.15-2.12-3.73-4.27-3.52-.64,.06-1.25,.28-1.78,.63Z"/></g></g><g id="Jack-O-Lantern"><path id="Path_4485" class="cls-8" d="M86.76,34.38c1.71-3.26,4.27-6,7.41-7.93,1.03-.59,2.02-1.13,2.98-1.65,4.77-2.61,8.21-4.49,10.97-9.33,1.31-2.19,1.49-4.89,.47-7.23-.76-1.93-2.33-3.43-4.29-4.09-1.67-.46-3.45-.18-4.9,.76-1.21,.86-1.98,2.2-2.11,3.68-.22,1.41,.54,2.78,1.85,3.35,.98,.41,2.11,.23,2.92-.45,.56-.45,1.36-.46,1.94-.03l.2,.15c.67,.53,.77,1.5,.24,2.17-.07,.09-.16,.18-.25,.25-1.77,1.47-4.2,1.84-6.32,.96-2.68-1.13-4.26-3.93-3.86-6.81,.25-2.41,1.53-4.6,3.52-6,2.23-1.47,4.98-1.93,7.56-1.25,2.98,.9,5.39,3.11,6.54,6,1.43,3.3,1.2,7.09-.64,10.18-3.22,5.65-7.41,7.94-12.26,10.59-.93,.51-1.91,1.04-2.92,1.62-3.03,1.9-5.4,4.69-6.79,7.99"/><g id="Group_2207"><path id="Path_4486" class="cls-5" d="M91.62,123.84s3.4,7.3,14.65,6.76c10.65-.52,15.13-10.06,15.13-10.06,0,0,11.58,12.69,22.33-1.1,14.83-19.02,7.17-67.01-8-83.27-15.17-16.27-21.78-1.65-21.78-1.65,0,0-5.52-5.03-12.75-3.48s-9.58,8.79-9.58,8.79c0,0-2.34-7.24-9.58-8.79s-12.75,3.48-12.75,3.48c0,0-6.62-14.61-21.78,1.65-15.17,16.27-22.83,64.25-8,83.27,10.75,13.79,22.34,1.1,22.34,1.1,0,0,4.48,9.55,15.13,10.06,11.25,.55,14.65-6.76,14.65-6.76Z"/><path id="Path_4487" class="cls-2" d="M57.08,108.33c1.26,4.19,2.85,8.26,4.75,12.2"/><path id="Path_4488" class="cls-2" d="M69.28,34.5s-4.46,3.53-8.77,12.23"/><path id="Path_4489" class="cls-2" d="M126.15,108.33c-1.26,4.19-2.85,8.26-4.75,12.2"/><path id="Path_4490" class="cls-2" d="M113.95,34.5s4.46,3.53,8.77,12.23"/><path id="Path_4491" class="cls-2" d="M94.37,114.43c-1.39,6.73-2.75,9.41-2.75,9.41"/><path id="Path_4492" class="cls-2" d="M91.61,39.81s1.3,4.25,2.66,11.23"/></g><path id="Path_4493" d="M91.61,89.14c-3.74,0-7.47-.3-11.15-.89-.71-.11-1.36,.38-1.47,1.09-.01,.09-.02,.18-.01,.27,.1,1.6,.23,2.94,.35,3.91,.08,.71-.43,1.35-1.14,1.44-.13,.02-.27,.01-.4-.02-2.5-.47-4.98-1.04-7.42-1.72-.46-.13-.81-.5-.92-.96-.46-2.05-.78-4.14-.98-6.23-.05-.5-.37-.92-.84-1.09-4.32-1.57-8.47-3.57-12.4-5.95-.61-.37-1.41-.17-1.77,.44-.18,.3-.23,.67-.14,1.01,4.92,17.06,20.54,28.81,38.3,28.81,.34,0,.69,0,1.03-.01,.49-.01,.93-.3,1.13-.75,.81-1.79,1.49-3.63,2.01-5.52,.13-.49,.54-.85,1.03-.94,3.07-.53,6.06-1.44,8.91-2.68h0s0,0,0,0h0c.07,.96,.11,1.92,.11,2.9,0,.8-.03,1.6-.08,2.39-.05,.72,.49,1.34,1.21,1.39,.2,.01,.41-.02,.59-.1,10.86-4.76,19.05-14.1,22.35-25.49,.19-.69-.21-1.4-.9-1.59-.35-.1-.72-.04-1.03,.15-10.96,6.66-23.54,10.17-36.37,10.15Z"/><g id="Group_2208"><circle id="Ellipse_1" cx="116.19" cy="65.65" r="8.5"/><path id="Path_4494" d="M62.31,59.08c-1.46,2.68-2.68,5.5-3.63,8.4-.46,1.41,.28,2.92,1.66,3.44,6.49,2.43,13.37,3.67,20.3,3.66h.12c1.53-.02,2.75-1.27,2.73-2.8-.01-1.05-.62-2-1.56-2.45-5.64-2.79-10.8-6.47-15.26-10.91-1.09-1.07-2.84-1.05-3.91,.05-.18,.18-.33,.39-.45,.62Z"/></g></g><g id="Eye_2"><ellipse id="Ellipse_2" class="cls-4" cx="21.62" cy="51.13" rx="21" ry="20.5"/><circle id="Ellipse_3" class="cls-3" cx="16.74" cy="47.78" r="11.08"/><ellipse id="Ellipse_4" cx="14.29" cy="47.78" rx="4.15" ry="7.55"/><path id="Path_4505" class="cls-4" d="M7.7,35.57c-1.6-1.24-2.98-2.74-4.09-4.43"/><path id="Path_4506" class="cls-4" d="M12.39,32.46c-.98-1.78-1.66-3.72-2-5.73"/><path id="Path_4507" class="cls-4" d="M21.27,30.46c-.77-1.93-1.21-3.98-1.29-6.06"/></g><g id="Candy_2"><path id="Path_4519" class="cls-1" d="M185.6,48.33c.57-1.92-.29-3.98-2.07-4.91h0c-1.77-.93-3.96-.47-5.21,1.09l-12.23,15.27c-.73,.91-.61,2.23,.26,2.99,3.2,2.72,6.97,4.7,11.03,5.78,1.13,.29,2.28-.37,2.61-1.49l5.6-18.75Z"/><path id="Path_4520" class="cls-7" d="M175.2,48.4l-6.84,8.54c3.58,3.28,7.94,5.57,12.67,6.64l3.13-10.49c-3.25-1.02-6.28-2.61-8.97-4.7h0Z"/></g></g></g></svg>