<?xml version="1.0" encoding="UTF-8"?><svg id="Layer_2" xmlns="http://www.w3.org/2000/svg" viewBox="0 0 129.52 101.25"><defs><style>.cls-1{fill:#c9bbeb;}.cls-1,.cls-2,.cls-3,.cls-4,.cls-5,.cls-6,.cls-7{stroke:#000;stroke-linecap:round;stroke-width:1.25px;}.cls-1,.cls-2,.cls-3,.cls-7{stroke-linejoin:round;}.cls-2{fill:#b4e5bf;}.cls-3,.cls-5{fill:none;}.cls-4{fill:#fff;}.cls-4,.cls-5,.cls-6{stroke-miterlimit:10;}.cls-6{fill:#7956cc;}.cls-7{fill:#43bf5e;}</style></defs><g id="Layer_1-2"><g id="Group_2225"><g id="Ghost_2"><path id="Path_4552" class="cls-4" d="M27.72,.72C12.42,1.84,1.75,18.62,.74,41.36c-1,22.73,4.5,40.11,8.96,45.88,4.11,5.31,7.61,2.07,9,.01,1.06-1.57,3.42-1.45,5.02,.66s3.17,4.74,6.14,3.94c2.63-.71,1.59-3.48,3.37-5.44,1.97-2.17,6.71,2,9.81,.2s5.15-4.89,.97-13.52c-4.05-8.36,.85-15.23,4.76-24.57C54.75,34.25,56.69-1.42,27.72,.72Z"/><circle id="Ellipse_14" cx="9.59" cy="26.31" r="2.34"/><circle id="Ellipse_15" cx="20.55" cy="26.31" r="2.34"/><path id="Path_4553" d="M14.69,44.12c.66,0,1.3,.25,1.79,.69,.58,.54,1.33,.84,2.11,.86h.37c1.83-.07,3.25-1.61,3.18-3.44,0-.24-.05-.48-.11-.72l-1.15-4.94c-1.03-3.63-2.77-5.91-6.19-5.91s-5.27,2.48-6.19,5.91l-1.15,4.94c-.47,1.77,.58,3.58,2.35,4.05,.23,.06,.47,.1,.72,.11h.37c.79-.02,1.54-.32,2.11-.86,.49-.44,1.13-.69,1.79-.69Z"/><path id="Path_4554" class="cls-3" d="M24.48,88.93c-3.33-4.66-5.18-10.22-5.31-15.94"/><path id="Path_4555" class="cls-5" d="M44.82,57.4s-3.64,9.51-7.28,12.48"/></g><g id="Potion"><g id="Group_2222"><g id="Group_2221"><path id="Path_4556" class="cls-1" d="M103,64.32l11.69-11.69c-1.23,1.23-4.8-.34-7.97-3.51s-4.74-6.74-3.51-7.97l-11.69,11.69c-1.72,1.71-4.23,2.35-6.56,1.69-12.49-3.46-25.42,3.86-28.88,16.35-3.46,12.49,3.86,25.42,16.35,28.88,12.49,3.46,25.42-3.86,28.88-16.35,1.15-4.14,1.14-8.52-.04-12.66-.63-2.3,.03-4.76,1.72-6.43Z"/></g><ellipse id="Ellipse_16" class="cls-1" cx="108.95" cy="46.89" rx="3.15" ry="8.11" transform="translate(-1.25 90.78) rotate(-45)"/><path id="Path_4557" class="cls-7" d="M97,76.81h0c.18-.97-.1-1.97-.76-2.71l-.03-.03c-1.17-1.31-3.16-1.45-4.5-.32-4.58,3.8-9.89,6.46-16.43,6.59-4.54,.1-9.04-.76-13.23-2.5-.54-.23-1.16-.04-1.48,.44l-.02,.02c-.19,.3-.24,.66-.14,1h0c1.13,8.34,7.67,14.9,16,16.06,10.05,1.21,19.18-5.94,20.41-15.98,.1-.85,.16-1.71,.17-2.57Z"/><path id="Path_4558" class="cls-2" d="M96.21,74.07c-1.17-1.31-3.16-1.45-4.5-.32-4.58,3.8-9.89,6.46-16.43,6.59-4.54,.1-9.04-.76-13.23-2.5-.54-.23-1.16-.04-1.48,.44l-.02,.02c-.36,.56-.21,1.3,.35,1.67,.02,.01,.04,.02,.05,.03,10.82,6.31,24.3,5.88,34.7-1.11,1.47-1,1.84-3,.84-4.47-.08-.11-.16-.22-.25-.32l-.03-.03Z"/></g><g id="Group_2223"><path id="Path_4559" class="cls-7" d="M71.52,46.89c-4.38,0-7.93-3.55-7.93-7.92s3.55-7.93,7.92-7.93c4.38,0,7.93,3.55,7.93,7.92h0c0,4.38-3.55,7.92-7.92,7.93Z"/><path id="Path_4560" class="cls-3" d="M71.52,34.61c2.4,0,4.35,1.95,4.35,4.35h0"/></g><path id="Path_4561" class="cls-7" d="M58.71,30.79c0,1.92-1.55,3.47-3.47,3.47s-3.47-1.55-3.47-3.47,1.55-3.47,3.47-3.47h0c1.91,0,3.47,1.55,3.47,3.47Z"/><g id="Group_2224"><path id="Path_4562" class="cls-7" d="M56.49,50.86c0,3.39-2.75,6.14-6.14,6.14s-6.14-2.75-6.14-6.14,2.75-6.14,6.14-6.14c3.39,0,6.14,2.75,6.14,6.14Z"/><path id="Path_4563" class="cls-3" d="M46.98,50.86c0-1.86,1.51-3.37,3.37-3.37h0"/></g></g><path id="Thunder" class="cls-6" d="M127.7,1.18l-33.68,11.47c-.48,.16-.74,.68-.57,1.16,.1,.3,.35,.52,.65,.6l10.26,2.49c.49,.12,.79,.61,.68,1.11-.06,.27-.25,.49-.5,.61l-14.42,6.88c-.46,.22-.65,.77-.43,1.22,.13,.27,.37,.46,.67,.51l8.47,1.53c.5,.09,.83,.57,.74,1.07-.05,.25-.2,.48-.42,.61l-9.96,6.22c-.43,.27-.56,.83-.29,1.26,.23,.37,.69,.53,1.1,.37l24.91-9.31c.47-.18,.72-.71,.54-1.18-.11-.29-.36-.51-.66-.57l-7.9-1.78c-.49-.11-.81-.6-.69-1.1,.06-.28,.25-.51,.51-.63l16.02-7.43c.46-.21,.66-.76,.45-1.22-.11-.24-.32-.42-.57-.49l-7.08-2.09c-.49-.14-.76-.65-.62-1.14,.06-.22,.21-.41,.4-.53l13.18-7.99c.43-.27,.55-.84,.28-1.27-.22-.35-.66-.51-1.05-.38Z"/></g></g></svg>