<?xml version="1.0" encoding="UTF-8"?><svg id="Layer_2" xmlns="http://www.w3.org/2000/svg" viewBox="0 0 61.74 101.25"><defs><style>.cls-1{fill:#ba5b31;}.cls-1,.cls-2,.cls-3,.cls-4,.cls-5{stroke:#000;stroke-linecap:round;stroke-linejoin:round;stroke-width:1.25px;}.cls-2{fill:#fff;}.cls-3{fill:#ffa4de;}.cls-4{fill:none;}.cls-5{fill:#43bf5e;}</style></defs><g id="Layer_1-2"><g id="Flower"><path class="cls-5" d="M30,82.16h-2.38c0-5.32,2.32-6.99,4.18-8.34,1.22-.88,2.03-1.46,2.2-2.95,.18-1.55-.6-2.13-2.23-3.19-1.79-1.17-4.25-2.77-4.15-6.85,.09-3.57,2.16-6.01,4.17-8.36,2.01-2.36,3.9-4.58,4.01-7.95,.08-2.62-1.09-4.85-3.47-6.63-1.88-1.4-3.84-1.99-3.85-1.99l.67-2.28c3.21,.93,9.24,4.43,9.03,10.98-.13,4.21-2.49,6.98-4.57,9.42-1.9,2.23-3.54,4.15-3.6,6.88-.07,2.75,1.39,3.7,3.07,4.8,1.63,1.06,3.66,2.38,3.3,5.46-.3,2.53-1.82,3.63-3.17,4.6-1.64,1.19-3.2,2.31-3.2,6.41Z"/><path class="cls-3" d="M61.02,38.95c.84-3.14-4.26-7.23-11.39-9.14-1.51-.41-3-.68-4.4-.83,1.32-.51,2.68-1.16,4.04-1.94,6.39-3.69,10.26-8.96,8.64-11.78s-8.12-2.1-14.52,1.59c-1.36,.78-2.6,1.64-3.7,2.53,.57-1.29,1.08-2.72,1.48-4.23,1.91-7.13,.92-13.59-2.22-14.43s-7.23,4.26-9.14,11.39c-.41,1.51-.68,3-.83,4.4-.51-1.32-1.16-2.68-1.94-4.04C23.35,6.08,18.07,2.21,15.26,3.83c-2.81,1.62-2.1,8.12,1.59,14.52,.78,1.36,1.64,2.6,2.53,3.7-1.29-.57-2.72-1.08-4.23-1.48-7.13-1.91-13.59-.92-14.43,2.22s4.26,7.23,11.39,9.14c1.51,.41,3,.68,4.4,.83-1.32,.51-2.68,1.16-4.04,1.94-6.39,3.69-10.26,8.96-8.64,11.78,1.62,2.81,8.12,2.1,14.52-1.59,1.36-.78,2.6-1.64,3.7-2.53-.57,1.29-1.08,2.72-1.48,4.23-1.91,7.13-.92,13.59,2.22,14.43s7.23-4.26,9.14-11.39c.41-1.51,.68-3,.83-4.4,.51,1.32,1.16,2.68,1.94,4.04,3.69,6.39,8.96,10.26,11.78,8.64,2.81-1.62,2.1-8.12-1.59-14.52-.78-1.36-1.64-2.6-2.53-3.7,1.29,.57,2.71,1.08,4.23,1.48,7.13,1.91,13.59,.92,14.43-2.22Z"/><g><path class="cls-4" d="M31.41,25.87c-.31-2.02-.31-5.25,.83-9.5,.41-1.52,.88-2.86,1.37-4.02"/><path class="cls-4" d="M37.76,13.45c-.15,1.25-.42,2.64-.82,4.17-1.14,4.26-2.76,7.06-4.04,8.65"/><path class="cls-4" d="M25.87,30.32c-2.02,.31-5.25,.31-9.5-.83-1.52-.41-2.86-.88-4.02-1.37"/><path class="cls-4" d="M13.45,23.98c1.25,.15,2.64,.42,4.17,.82,4.26,1.14,7.06,2.76,8.65,4.04"/><path class="cls-4" d="M27.72,26.95c-1.65-1.2-3.93-3.49-6.13-7.31-.79-1.37-1.4-2.64-1.87-3.81"/><path class="cls-4" d="M23.43,13.69c.78,.99,1.57,2.16,2.36,3.53,2.2,3.82,3.04,6.94,3.26,8.97"/><path class="cls-4" d="M35.56,29.05c2.03-.22,5.15-1.06,8.97-3.26,1.37-.79,2.53-1.59,3.53-2.36"/><path class="cls-4" d="M45.91,19.71c-1.17,.47-2.45,1.09-3.81,1.87-3.82,2.2-6.1,4.49-7.31,6.14"/><path class="cls-4" d="M35.47,32.9c1.59,1.28,4.39,2.89,8.64,4.03,1.52,.41,2.91,.67,4.17,.82"/><path class="cls-4" d="M49.39,33.61c-1.16-.49-2.5-.96-4.02-1.37-4.26-1.14-7.49-1.14-9.5-.83"/><path class="cls-4" d="M28.84,35.47c-1.28,1.59-2.89,4.39-4.03,8.64-.41,1.52-.67,2.91-.82,4.17"/><path class="cls-4" d="M28.13,49.39c.49-1.16,.96-2.5,1.37-4.02,1.14-4.26,1.14-7.49,.83-9.5"/><path class="cls-4" d="M26.18,32.69c-2.03,.22-5.15,1.06-8.97,3.26-1.37,.79-2.53,1.59-3.53,2.36"/><path class="cls-4" d="M15.83,42.03c1.17-.47,2.45-1.09,3.81-1.87,3.82-2.2,6.1-4.49,7.31-6.14"/><path class="cls-4" d="M34.02,34.79c1.65,1.2,3.93,3.49,6.13,7.31,.79,1.37,1.4,2.64,1.87,3.81"/><path class="cls-4" d="M38.31,48.05c-.78-.99-1.57-2.16-2.36-3.53-2.2-3.82-3.04-6.94-3.26-8.97"/></g><g><path class="cls-2" d="M17.42,30.15c-.47,.37-.47,1.08,0,1.44,3.71,2.9,8.38,4.63,13.45,4.63s9.74-1.73,13.45-4.63c.47-.37,.47-1.08,0-1.44-3.71-2.9-8.38-4.63-13.45-4.63s-9.74,1.73-13.45,4.63Z"/><path d="M23.3,26.87c1.54,4.03,4.51,7.35,8.3,9.34,4.79-.16,9.19-1.86,12.72-4.62,.47-.37,.47-1.08,0-1.44-3.71-2.9-8.38-4.63-13.45-4.63-2.66,0-5.21,.48-7.57,1.35Z"/></g><path class="cls-1" d="M36.97,100.63h-12.19c-2.25,0-4.15-1.66-4.46-3.89l-2.89-21.09h26.89l-2.89,21.09c-.31,2.23-2.21,3.89-4.46,3.89Z"/><rect class="cls-1" x="15.45" y="72.41" width="30.84" height="6.48" rx="3.24" ry="3.24"/></g></g></svg>