<?xml version="1.0" encoding="UTF-8"?><svg id="Layer_2" xmlns="http://www.w3.org/2000/svg" viewBox="0 0 177.09 101.25"><defs><style>.cls-1{fill:#b4e5bf;}.cls-1,.cls-2,.cls-3,.cls-4,.cls-5,.cls-6,.cls-7,.cls-8{stroke:#000;stroke-linecap:round;stroke-width:1.25px;}.cls-1,.cls-2,.cls-3,.cls-4,.cls-8{stroke-linejoin:round;}.cls-2{fill:#fff;}.cls-3,.cls-9,.cls-5{fill:#ffa4de;}.cls-4,.cls-6{fill:none;}.cls-10,.cls-7{fill:#7956cc;}.cls-5,.cls-6,.cls-7{stroke-miterlimit:10;}.cls-8{fill:#43bf5e;}</style></defs><g id="Layer_1-2"><g id="Group_2220"><g id="Card"><rect id="Rectangle_2378" class="cls-8" x="32.24" y="3.98" width="56.63" height="93.28" rx="10.46" ry="10.46" transform="translate(-10.91 17.12) rotate(-14.77)"/><ellipse id="Ellipse_13" class="cls-1" cx="60.55" cy="50.62" rx="23.34" ry="40.3" transform="translate(-10.91 17.12) rotate(-14.77)"/><g id="Group_2218"><path id="Path_4538" class="cls-2" d="M42.15,54.44c-.43,.56-.32,1.36,.24,1.79,.08,.06,.18,.12,.28,.16,12.86,5.52,27.83,1.57,36.29-9.57,.43-.56,.32-1.36-.24-1.79-.08-.06-.18-.12-.27-.16-12.86-5.51-27.82-1.57-36.29,9.57h0Z"/><line id="Line_112" class="cls-4" x1="58.65" y1="43.4" x2="56.21" y2="34.15"/><line id="Line_113" class="cls-4" x1="64.9" y1="67.1" x2="62.46" y2="57.84"/><line id="Line_114" class="cls-4" x1="46.69" y1="49.64" x2="43.5" y2="46.08"/><line id="Line_115" class="cls-4" x1="48.98" y1="58.32" x2="47.96" y2="62.99"/><line id="Line_116" class="cls-4" x1="72.13" y1="42.93" x2="73.15" y2="38.26"/><line id="Line_117" class="cls-4" x1="74.42" y1="51.61" x2="77.61" y2="55.17"/><path id="Path_4539" d="M48.92,47.92c3.51,4.87,8.67,8.3,14.52,9.65,6.19-1.84,11.62-5.61,15.52-10.76,.43-.56,.32-1.36-.24-1.79-.08-.06-.18-.12-.27-.16-9.71-4.16-20.87-3-29.52,3.05h0Z"/></g></g><g id="Swirl"><path class="cls-10" d="M121.21,63.53c-.95,0-1.87-.34-2.59-.95-3.37-2.58-6.04-10.88-6.78-21.12-.49-4.93-.29-9.91,.6-14.8-1.76-1.82-3.51-2.86-4.85-2.86-.15,0-.29,.01-.42,.04-1.46,.28-2.12,2.3-2.38,3.48-.22,1.03-1.16,1.78-2.21,1.78-.01,0-.12,0-.14,0-1.24-.08-2.19-1.15-2.11-2.39,0-.11,.02-.23,.05-.35,.51-2.27,1.96-6.18,5.94-6.95,.43-.08,.88-.13,1.32-.13,2.05,0,4.23,.9,6.34,2.61,1.68-3.55,3.83-4.62,5.01-4.93,.47-.12,.95-.19,1.45-.19,2.3,0,4.9,1.38,7.54,3.99,1.27-3.92,3.16-6.15,5.64-6.63,.41-.08,.82-.12,1.24-.12,2.79,0,5.72,1.74,8.51,5.05,.94-.63,2.01-1.06,3.13-1.25,.38-.07,.79-.11,1.18-.11,3.98,0,6.68,3.92,7.94,6.25,.29,.53,.35,1.14,.17,1.72s-.56,1.05-1.09,1.34c-.08,.04-.16,.08-.24,.11-.26,.11-.54,.16-.83,.16-.83,0-1.58-.45-1.98-1.18-1.3-2.43-2.8-3.88-4-3.88-.1,0-.19,0-.29,.03-.5,.07-.96,.25-1.36,.51,1.75,2.91,3.1,6.03,4.03,9.29,.8,2.8,2.42,9.69,.33,13.09-.57,.99-1.55,1.69-2.69,1.92-.27,.05-.53,.07-.79,.07-1.03,0-2.03-.37-2.82-1.04-2.41-1.88-4.09-6.55-4.36-12.16-.19-3.98-.28-8.11,.87-11.17-2.02-2.63-4.19-4.25-5.72-4.25-.12,0-.24,.01-.36,.03-.83,.16-2.09,2.26-2.92,6.49,2.12,3,3.83,6.28,5.09,9.73,1.82,5.16,4.55,16.14,1.87,20.82-.57,1.1-1.62,1.9-2.86,2.15-.28,.05-.55,.08-.81,.08-1.05,0-2.06-.38-2.86-1.06-3.75-2.95-5.41-12.23-5.71-19.93-.15-3.53,.02-7.11,.5-10.62-2.41-3-4.87-4.93-6.32-4.93-.11,0-.21,.01-.3,.04-1.03,.27-2.02,1.79-2.74,4.17,3.06,4.14,5.24,8.77,6.49,13.76,2.76,10.34,3.1,18.6,.92,22.1-.61,1.08-1.68,1.85-2.91,2.12-.25,.04-.47,.06-.7,.06Zm-4.9-31.39c-.22,2.99-.2,6.01,.04,9,.77,10.79,3.59,16.36,4.74,17.64,1.08-2.16,1.03-8.66-1.56-18.37-.74-2.88-1.83-5.65-3.23-8.27Zm14.47,.36c-.04,1.39-.04,2.78,.02,4.16,.36,9.31,2.46,15.15,3.9,16.5,.97-2.23,.23-9.69-2.3-16.86-.46-1.29-1-2.56-1.61-3.79Zm13.35-3.54c-.06,1.58-.04,3.17,.07,4.74,.21,4.33,1.4,7.6,2.47,8.69,.28-1.07,.41-4.15-1-9.11-.42-1.47-.93-2.92-1.54-4.32Z"/><path d="M134.85,14.63c2.9,0,5.85,2.1,8.4,5.28,.97-.77,2.12-1.28,3.35-1.49,.37-.07,.73-.11,1.08-.11,3.65,0,6.19,3.69,7.39,5.92,.43,.79,.13,1.78-.66,2.21-.06,.03-.11,.06-.17,.08-.2,.08-.4,.12-.6,.12-.58,0-1.14-.31-1.43-.85-.95-1.78-2.68-4.21-4.56-4.21-.14,0-.27,.01-.41,.04-.77,.11-1.49,.45-2.06,.97,1.86,2.99,3.29,6.23,4.25,9.61,.6,2.12,2.42,9.31,.4,12.6-.49,.85-1.32,1.44-2.28,1.64-.22,.04-.45,.06-.67,.06-.88,0-1.73-.31-2.41-.89-2.29-1.79-3.88-6.28-4.14-11.71-.21-4.38-.24-8.37,.96-11.23-2.23-3-4.63-4.78-6.43-4.78-.16,0-.32,.01-.47,.04-1.34,.26-2.66,2.98-3.46,7.25,2.16,3.02,3.9,6.32,5.17,9.8,2.07,5.88,4.29,16.13,1.91,20.3-.49,.95-1.39,1.63-2.44,1.85-.23,.04-.46,.06-.69,.06-.89,0-1.76-.32-2.45-.91-3.61-2.84-5.21-12.27-5.49-19.48-.15-3.6,.03-7.21,.53-10.77-2.57-3.26-5.26-5.38-6.98-5.38-.16,0-.32,.02-.46,.06-1.27,.34-2.44,2.01-3.27,4.9,3.09,4.11,5.32,8.8,6.57,13.79,2.72,10.19,3.09,18.27,1,21.62-.54,.94-1.45,1.61-2.51,1.84-.19,.03-.38,.05-.57,.05-.79,0-1.57-.28-2.18-.8-3.21-2.46-5.85-10.77-6.56-20.68-.49-4.99-.27-10.03,.65-14.96-1.96-2.1-3.95-3.29-5.52-3.29-.19,0-.37,.02-.54,.05-1.77,.34-2.55,2.5-2.88,3.96-.16,.76-.84,1.29-1.6,1.29-.03,0-.07,0-.1,0-.9-.06-1.58-.83-1.53-1.73,0-.08,.02-.17,.04-.25,.51-2.24,1.86-5.78,5.45-6.48,.4-.08,.8-.11,1.2-.11,2.17,0,4.43,1.08,6.57,3,1.65-4.01,3.91-5.07,4.94-5.35,.42-.11,.85-.17,1.29-.17,2.55,0,5.3,1.85,7.83,4.57,1.19-4.32,3.03-6.75,5.47-7.22,.37-.07,.75-.11,1.12-.11m12.02,28.61s.03,0,.04,0c.55-.32,1.16-3.8-.64-10.13-.64-2.27-1.52-4.48-2.61-6.57-.23,2.4-.26,4.81-.09,7.21,.24,4.8,1.64,8.32,2.9,9.3,.11,.09,.28,.19,.4,.19m-25.67,16.39c.13-.09,.24-.21,.32-.35,1.29-2.06,1.36-8.75-1.38-19.04-.92-3.57-2.36-6.99-4.28-10.15h0c-.39,3.68-.44,7.4-.13,11.09,.85,11.89,4.25,18.01,5.47,18.45m13.64-5.69s.05,0,.06,0c.05-.01,.15-.12,.23-.27,1.33-2.33,.33-10.55-2.16-17.58-.72-2.03-1.63-3.99-2.72-5.85h0c-.15,2.15-.18,4.3-.09,6.46,.35,9.17,2.45,15.63,4.24,17.05,.22,.17,.35,.2,.43,.2m.01-40.56c-.46,0-.91,.04-1.36,.13-2.51,.49-4.45,2.55-5.79,6.13-2.52-2.3-5.01-3.5-7.27-3.5-.55,0-1.09,.07-1.61,.21-1.2,.32-3.33,1.34-5.07,4.58-2.04-1.49-4.13-2.28-6.12-2.28-.49,0-.97,.05-1.44,.14-3.2,.62-5.49,3.26-6.43,7.43-.03,.15-.05,.3-.06,.44-.1,1.59,1.11,2.96,2.69,3.06,.06,0,.12,0,.18,0,1.35,0,2.54-.96,2.82-2.28,.18-.82,.74-2.78,1.89-3,.1-.02,.2-.03,.31-.03,1.1,0,2.64,.9,4.18,2.44-.85,4.84-1.03,9.78-.55,14.67,.74,10.35,3.5,18.81,7.02,21.54,.83,.7,1.88,1.08,2.97,1.08,.26,0,.52-.02,.78-.07,.02,0,.03,0,.05,0,1.4-.3,2.61-1.18,3.33-2.42,2.29-3.7,1.98-11.93-.86-22.58-1.24-4.95-3.39-9.57-6.4-13.71,.75-2.3,1.64-3.3,2.21-3.45,.04-.01,.09-.02,.14-.02,.99,0,3.16,1.41,5.67,4.49-.45,3.46-.61,6.98-.47,10.46,.1,2.7,.88,16.37,5.94,20.39,.91,.77,2.06,1.19,3.25,1.19,.31,0,.62-.03,.92-.08,1.44-.3,2.64-1.2,3.31-2.48,2.77-4.89,.02-16.07-1.83-21.31-1.25-3.43-2.94-6.68-5.02-9.67,.9-4.42,2.1-5.65,2.38-5.74,.07-.01,.15-.02,.23-.02,.97,0,2.84,.99,5.01,3.74-1.07,3.12-.98,7.18-.79,11.09,.29,5.86,2.01,10.57,4.6,12.62,.9,.75,2.03,1.17,3.2,1.17,.3,0,.6-.03,.89-.08,1.33-.27,2.47-1.08,3.14-2.24,2.21-3.59,.54-10.68-.28-13.56-.88-3.1-2.15-6.08-3.76-8.87,.17-.07,.36-.11,.54-.14,.02,0,.04,0,.06-.01,.06-.01,.11-.02,.17-.02,.93,0,2.32,1.43,3.45,3.55,.51,.93,1.47,1.51,2.53,1.51,.37,0,.72-.07,1.07-.21,.1-.04,.2-.09,.3-.14,.68-.36,1.17-.97,1.39-1.71,.22-.74,.14-1.52-.22-2.19-1.32-2.46-4.18-6.58-8.49-6.58-.43,0-.88,.04-1.31,.13-1,.17-1.98,.53-2.88,1.05-2.8-3.19-5.77-4.86-8.63-4.86h0Zm11.36,27.08c-.65-1.48-1.26-3.82-1.4-6.78-.03-.43-.05-.86-.07-1.29,.11,.35,.22,.7,.32,1.05,.91,3.21,1.16,5.53,1.16,7.01h0Zm-25.33,16.92c-1.25-2.19-3.28-7.5-3.92-16.29-.18-2.17-.23-4.36-.17-6.54,.88,1.93,1.59,3.93,2.12,6,2.31,8.66,2.48,14.27,1.96,16.83h0Zm13.51-5.7c-1.25-2.28-2.69-7.54-2.98-15.04-.02-.41-.03-.83-.04-1.25,.15,.37,.29,.74,.42,1.11,1.15,3.27,2.04,7.02,2.45,10.29,.27,2.21,.27,3.82,.15,4.89h0Z"/></g><g id="Candy_4"><g id="Path_4540"><path class="cls-9" d="M100.78,78.54c-1.95,0-3.9-.48-5.64-1.38-2.12-1.05-3.62-2.92-3.7-4.66-.05-.96,.36-1.76,1.14-2.25,.39-.24,.8-.36,1.21-.36,.82,0,1.51,.47,2.12,.88,.51,.34,.99,.67,1.43,.67,.11,0,.22-.02,.34-.06,.16-.06,.36-.27,.41-.6,.05-.29,.03-.86-.71-1.5-.38-.33-1.02-.52-1.69-.73-.75-.23-1.52-.47-2.14-.94-1.08-.69-1.69-2.01-1.51-3.33,.23-1.69,1.69-2.96,3.39-2.96,.16,0,.31,.01,.47,.03,2.38,.28,3.91,1.35,5.15,2.2,.79,.55,1.41,.98,1.96,.98,.1,0,.2-.01,.3-.05,.43-.13,.75-.5,.81-.94,.08-.63-.36-1.3-1.21-1.83-.28-.17-.86-.36-1.48-.55-1.87-.59-4.43-1.39-5.22-3.66-.43-1.24-.21-2.62,.62-3.78,1.04-1.46,2.82-2.33,4.77-2.33,3.06,.01,6.1,1.79,8.38,4.87,2.77,3.74,3.73,8.6,2.5,12.66-1.25,4.67-4.95,8.29-9.66,9.45-.7,.12-1.37,.17-2.04,.17Z"/><path d="M101.6,52.01s.02,0,.03,0c6.51,.03,12.58,9.01,10.25,16.72-1.2,4.46-4.73,7.92-9.21,9.02-.63,.1-1.26,.16-1.89,.16-1.85,0-3.69-.45-5.35-1.31-3.11-1.54-4.33-4.7-2.52-5.82,.31-.19,.6-.27,.89-.27,1.25,0,2.29,1.54,3.55,1.54,.18,0,.37-.03,.56-.11,.85-.33,1.38-1.86-.1-3.15-.93-.81-2.78-.88-3.87-1.7-.92-.59-1.42-1.66-1.27-2.74,.19-1.4,1.39-2.42,2.77-2.42,.13,0,.26,0,.39,.03,3.87,.45,5.44,3.19,7.18,3.19,.16,0,.32-.02,.48-.07,1.4-.42,2.04-2.48-.25-3.9-1.23-.77-5.48-1.14-6.44-3.89-.86-2.45,1.42-5.28,4.8-5.28m0-1.25c-2.15,0-4.13,.97-5.28,2.6-.94,1.33-1.2,2.92-.7,4.35,.9,2.56,3.74,3.46,5.62,4.05,.53,.17,1.12,.35,1.34,.49,.62,.39,.97,.84,.92,1.21-.03,.2-.17,.37-.37,.43-.04,.01-.08,.02-.12,.02-.35,0-.95-.42-1.6-.87-1.22-.85-2.9-2.02-5.44-2.31-.16-.02-.35-.04-.53-.04-2.01,0-3.74,1.5-4.01,3.5-.21,1.55,.49,3.09,1.79,3.94,.7,.51,1.55,.77,2.3,1,.59,.18,1.19,.37,1.47,.61,.32,.28,.5,.58,.5,.84,0,.13-.05,.21-.07,.23,0,0,0,0,0,0-.02,0-.05,0-.07,0-.25,0-.69-.3-1.09-.56-.65-.44-1.46-.98-2.47-.98h0c-.53,0-1.05,.15-1.54,.46-.97,.6-1.49,1.62-1.43,2.81,.09,1.95,1.73,4.04,4.06,5.19,1.8,.94,3.85,1.44,5.9,1.44,.7,0,1.4-.06,2.09-.17h.05s.05-.02,.05-.02c4.93-1.21,8.81-5.01,10.12-9.91,1.27-4.21,.27-9.28-2.61-13.18-2.4-3.24-5.62-5.11-8.85-5.12h-.03Z"/></g><path id="Path_4541" class="cls-6" d="M111.72,69.25c-2.9,1.55-6.32,1.84-9.44,.8"/><path id="Path_4542" class="cls-6" d="M107.62,59.81s5.03,4.35,4.44,8.27"/><path id="Path_4543" class="cls-6" d="M112.39,65.9s-4.09-.77-7.1,.78"/><g id="Path_4544"><path class="cls-10" d="M166.27,93.95c-3.03-.01-6.07-1.79-8.35-4.87-2.77-3.75-3.73-8.6-2.5-12.66,1.25-4.67,4.96-8.29,9.67-9.45,.7-.12,1.37-.17,2.04-.17,1.96,0,3.9,.48,5.64,1.38,2.12,1.05,3.62,2.92,3.7,4.66,.05,.97-.36,1.76-1.13,2.25-.39,.24-.8,.36-1.21,.36-.82,0-1.51-.47-2.12-.88-.51-.34-.99-.67-1.43-.67-.11,0-.23,.02-.34,.07-.17,.06-.36,.27-.41,.6-.05,.29-.03,.87,.71,1.5,.38,.33,1.02,.52,1.69,.73,.75,.23,1.52,.47,2.14,.94,1.08,.69,1.69,2.01,1.51,3.33-.23,1.69-1.69,2.96-3.39,2.96h0c-.16,0-.31-.01-.47-.03-2.37-.28-3.91-1.35-5.14-2.2-.79-.55-1.41-.98-1.96-.98-.1,0-.2,.02-.3,.05-.43,.13-.75,.5-.81,.94-.08,.63,.36,1.3,1.21,1.83,.28,.17,.86,.36,1.48,.55,1.87,.59,4.43,1.39,5.22,3.66,.43,1.24,.21,2.62-.62,3.78-1.04,1.46-2.82,2.33-4.77,2.33h-.03Z"/><path d="M167.12,67.43c1.85,0,3.69,.45,5.35,1.31,3.11,1.54,4.34,4.7,2.53,5.82-.31,.19-.6,.27-.88,.27-1.25,0-2.29-1.55-3.55-1.55-.18,0-.37,.03-.57,.11-.85,.33-1.38,1.86,.1,3.15,.93,.81,2.78,.88,3.87,1.7,.92,.59,1.42,1.66,1.27,2.74-.19,1.4-1.39,2.42-2.77,2.42-.13,0-.26,0-.39-.03-3.87-.45-5.44-3.19-7.19-3.19-.16,0-.32,.02-.48,.07-1.4,.42-2.04,2.48,.25,3.9,1.23,.76,5.48,1.14,6.44,3.89,.86,2.45-1.42,5.28-4.8,5.28,0,0-.02,0-.03,0-6.51-.03-12.58-9.01-10.25-16.72,1.2-4.46,4.73-7.92,9.21-9.02,.63-.1,1.26-.16,1.89-.16m0-1.25s0,0,0,0c-.7,0-1.4,.06-2.09,.17h-.05s-.05,.02-.05,.02c-4.93,1.21-8.81,5.01-10.12,9.91-1.27,4.21-.27,9.28,2.61,13.18,2.4,3.24,5.62,5.1,8.85,5.12,2.19,0,4.16-.97,5.31-2.6,.94-1.33,1.2-2.92,.7-4.35-.9-2.56-3.74-3.46-5.62-4.05-.53-.17-1.12-.35-1.34-.49-.62-.39-.96-.84-.92-1.21,.03-.2,.17-.37,.37-.43,.04-.01,.08-.02,.12-.02,.35,0,.95,.42,1.6,.87,1.22,.85,2.9,2.02,5.44,2.31,.16,.02,.35,.03,.53,.03,2.01,0,3.74-1.5,4.01-3.5,.21-1.55-.49-3.09-1.79-3.94-.7-.51-1.55-.77-2.3-1.01-.59-.18-1.19-.37-1.47-.61-.32-.28-.5-.58-.5-.84,0-.14,.05-.21,.07-.23,.02,0,.05,0,.08,0,.25,0,.69,.3,1.08,.56,.65,.44,1.46,.98,2.47,.98,.53,0,1.05-.15,1.54-.46,.97-.6,1.49-1.62,1.43-2.81-.1-1.95-1.73-4.04-4.06-5.19-1.8-.94-3.85-1.44-5.9-1.44h0Z"/></g><path id="Path_4545" class="cls-6" d="M156.18,76.09c2.9-1.55,6.32-1.84,9.44-.8"/><path id="Path_4546" class="cls-6" d="M160.28,85.53s-5.03-4.35-4.44-8.27"/><path id="Path_4547" class="cls-6" d="M160.56,78.89c-1.37-1.01-2.97-1.66-4.65-1.9"/><path id="Path_4548" class="cls-8" d="M124.73,57.25c-.32-.08-.65-.14-.97-.19-1.98,1.72-2.19,4.72-.47,6.7,.71,.82,1.69,1.38,2.76,1.56,4.88,1.03,6.56-2.55,11.29-.57s3.42,7.47-.16,8.26c-4.87,1.07-9.2-5.61-14.03-2.82-2.18,1.26-2.26,4.11-1.74,5.65,.93,2.1,2.86,3.59,5.13,3.96,2,.19,3.46,1.97,3.27,3.97-.06,.59-.26,1.16-.59,1.65l10.31,2.97c.92-1.78,.86-4.61-1.88-5.29-4.43-1.1-3.11-7.48,1.28-6.31,3.42,.91,2.93,2.23,5.82,2.57,2.17,.16,4.07-1.47,4.23-3.64,.08-1.02-.25-2.03-.9-2.82-1.29-1.43-2.9-1.42-3.72-2.78-1.19-1.99-.2-4.1,2.87-5.64,.98-.49,1.79-1.26,2.34-2.21-.88-.41-1.8-.73-2.75-.95l-22.09-4.07Z"/><g id="Group_2219"><path id="Path_4549" class="cls-7" d="M147.25,64.46c-3.07,1.55-4.06,3.66-2.87,5.64,.82,1.36,2.43,1.35,3.72,2.78,1.39,1.68,1.17,4.16-.51,5.56-.79,.66-1.8,.98-2.82,.9-2.89-.34-2.4-1.67-5.82-2.57-4.39-1.17-5.72,5.21-1.28,6.31,2.73,.68,2.79,3.52,1.88,5.29l.91,.26c7.55,1.76,15.1-2.93,16.87-10.48h0c1.51-6.46-1.71-13.1-7.72-15.91-.54,.95-1.36,1.72-2.34,2.22Z"/><path id="Path_4550" class="cls-5" d="M126.54,79.78c-2.27-.37-4.2-1.86-5.13-3.96-.52-1.53-.44-4.39,1.74-5.65,4.83-2.79,9.16,3.89,14.03,2.82,3.58-.79,4.89-6.27,.16-8.26s-6.41,1.6-11.29,.57c-2.58-.46-4.31-2.92-3.85-5.5,.19-1.07,.74-2.05,1.56-2.76-7.2-1.25-13.99,2.4-15.68,9.63h0c-1.76,7.55,3.31,14.03,10.86,15.8l10.27,2.95c1.11-1.68,.65-3.93-1.03-5.04-.5-.33-1.07-.53-1.66-.59Z"/></g></g><path id="Path_4551" class="cls-3" d="M11.97,68.22l4.28-10.57c.14-.36,.55-.53,.91-.39,.25,.1,.42,.33,.44,.6l.74,9.99c.03,.39,.36,.68,.75,.65,.07,0,.13-.02,.19-.04l7.74-2.83c.36-.13,.77,.05,.9,.42,.11,.29,0,.62-.24,.81l-6.92,5.12c-.31,.23-.38,.67-.15,.98,.09,.12,.21,.2,.34,.25l8.86,2.94c.37,.12,.57,.52,.45,.88-.1,.3-.39,.5-.71,.48l-8.52-.44c-.39-.02-.72,.28-.74,.66,0,.06,0,.13,.02,.19l2.09,9.31c.08,.38-.16,.75-.54,.83-.27,.06-.55-.05-.72-.28l-5.24-7.47c-.22-.32-.66-.4-.98-.17-.07,.05-.13,.11-.17,.17l-5.34,7.52c-.23,.31-.66,.39-.98,.16-.23-.16-.34-.45-.28-.72l2.08-9.19c.09-.38-.15-.76-.53-.84-.11-.03-.23-.02-.35,0l-7.87,2.17c-.37,.1-.76-.11-.87-.49-.09-.3,.04-.63,.31-.79l7.74-4.75c.33-.2,.43-.63,.23-.97-.03-.04-.06-.08-.09-.12l-5.84-6.05c-.27-.28-.27-.72,.01-.99,.21-.21,.53-.26,.8-.13l7.22,3.47c.35,.16,.77,0,.93-.34,0,0,0-.01,0-.02Z"/></g></g></svg>