<?xml version="1.0" encoding="UTF-8"?><svg id="Layer_2" xmlns="http://www.w3.org/2000/svg" viewBox="0 0 152.25 61.64"><defs><style>.cls-1{fill:#fff;}.cls-1,.cls-2{stroke-linejoin:round;}.cls-1,.cls-2,.cls-3{stroke:#000;stroke-linecap:round;stroke-width:1.25px;}.cls-2{fill:none;}.cls-3{fill:#7956cc;stroke-miterlimit:10;}</style></defs><g id="Layer_1-2"><g id="Bat"><path id="Path_4495" class="cls-3" d="M58.48,28.18c0-3.8,1.22-7.51,3.5-10.55,.01-.05,.02-.1,.03-.15-15.61-1.28-30.52-7.05-42.93-16.61C7.12,15.43,.6,33.71,.63,52.56c0,1.88,.07,3.73,.19,5.58,8.47-2.11,17.42-1.14,25.25,2.73,7.61-8.52,19.19-12.34,30.38-10.03,1.84-3.75,4.4-7.1,7.53-9.87-3.51-3.32-5.5-7.95-5.5-12.79Z"/><path id="Path_4496" class="cls-2" d="M26.07,60.86C15.92,31.16,19.08,.86,19.08,.86c9.64,18.59,22.26,35.47,37.36,49.97"/><path id="Path_4497" class="cls-3" d="M93.77,28.18c0-3.8-1.22-7.51-3.5-10.55-.01-.05-.02-.1-.03-.15,15.61-1.28,30.52-7.05,42.93-16.61,11.96,14.57,18.49,32.84,18.46,51.69,0,1.88-.07,3.73-.19,5.58-8.47-2.11-17.42-1.14-25.25,2.73-7.61-8.52-19.19-12.34-30.38-10.03-1.84-3.75-4.4-7.1-7.53-9.87,3.51-3.32,5.5-7.95,5.5-12.79Z"/><path id="Path_4498" class="cls-2" d="M126.18,60.86c10.15-29.71,6.98-60,6.98-60-9.64,18.59-22.26,35.47-37.36,49.97"/><path id="Path_4499" class="cls-3" d="M90.05,17.38c.11-.82,.17-1.65,.17-2.48,0-3.27-.84-6.49-2.46-9.33-.5-.9-1.63-1.23-2.53-.73-.16,.09-.31,.2-.44,.33-1.65,1.76-2.95,3.81-3.83,6.06-3.16-.9-6.51-.9-9.66,0-.88-2.25-2.18-4.3-3.83-6.06-.72-.74-1.9-.75-2.63-.04-.13,.13-.24,.28-.33,.44-1.62,2.84-2.47,6.06-2.46,9.33,0,.83,.06,1.66,.17,2.48-5.97,7.69-4.58,18.76,3.11,24.73s18.76,4.58,24.73-3.11c4.94-6.36,4.94-15.26,0-21.62h0Z"/><g id="Group_2210"><path id="Path_4500" class="cls-2" d="M63.97,25.21c6.86,6.33,17.44,6.33,24.3,0"/><g id="Group_2209"><path id="Path_4501" class="cls-1" d="M64.56,25.72c-.39,1.64-.59,3.32-.59,5.01v.45c.02,.74,.63,1.33,1.37,1.31,.54-.01,1.01-.34,1.21-.84,.48-1.22,1.08-2.38,1.77-3.49-1.35-.65-2.62-1.48-3.76-2.45Z"/></g></g><g id="Group_2212"><g id="Group_2211"><path id="Path_4502" class="cls-1" d="M87.69,25.72c.39,1.64,.59,3.32,.59,5.01v.45c-.02,.74-.63,1.33-1.37,1.31-.54-.01-1.01-.34-1.21-.84-.48-1.22-1.08-2.38-1.77-3.49,1.35-.65,2.62-1.48,3.76-2.45Z"/></g></g><path id="Path_4503" d="M85.59,22.34v-.03c-.27-.66-1.01-.98-1.66-.73-.05,.02-.1,.04-.15,.07-1.72,.91-3.19,2.24-4.28,3.85,1.53-.86,3.24-1.37,5-1.48,.69-.04,1.21-.63,1.17-1.32,0-.12-.03-.25-.08-.36Z"/><path id="Path_4504" d="M66.66,22.34v-.03c.27-.66,1.01-.98,1.66-.73,.05,.02,.1,.04,.15,.07,1.72,.91,3.19,2.24,4.28,3.85-1.53-.86-3.24-1.37-5-1.48-.69-.04-1.21-.63-1.17-1.32,0-.12,.03-.25,.08-.36Z"/></g></g></svg>