<svg xmlns="http://www.w3.org/2000/svg" viewBox="0 0 101.07 127.56"><defs><style>.cls-1{fill:#ed2991;}.cls-2{fill:#eb77af;}</style></defs><g id="Layer_2" data-name="Layer 2"><g id="Layer_1-2" data-name="Layer 1"><path class="cls-1" d="M36.71,69.5C35.05,58,40.57,49.84,48.77,42.91c2-1.72,4.31-3.18,6.25-5,5.38-5,10.67-10.21,16-15.37,3.69-3.61,7.32-7.29,11.76-11.7-1.69-2.24-3.53-5.35-6-7.82-4.11-4.1-8.95-4-12.84.25-2.54,2.8-4.32,6.27-6.56,9.36-4.21,5.79-8.41,11.59-12.79,17.25-3.11,4-6.83,7.63-9.69,11.81-4.79,7-5.53,14.62-1.84,22.46a15.8,15.8,0,0,1,.67,2.17c-11.24.19-13.06.84-20.81,7.36C5.36,80,.15,87.08,0,91,9.39,79.29,20.44,70.17,36.71,69.5Z"/><path class="cls-2" d="M100.79,89.12a1,1,0,0,0-1.41,0L91.5,96.71l5.43-9.84a1,1,0,0,0-.39-1.36,1,1,0,0,0-1.36.4L87.37,100a1,1,0,0,0-.09.29,6.67,6.67,0,0,0-3.16.35,3.54,3.54,0,0,0-2.33,2.82,8.07,8.07,0,0,1,1.35-3.64,121.42,121.42,0,0,0,16.7-60c.1-7.26-1.29-14.38-5.62-20.51C90.5,14,85.35,13.23,80.44,17.35c-2.81,2.37-5,5.42-7.68,8-4.92,4.88-9.88,9.73-15,14.46-4.07,3.78-8.66,7-12.44,11.09-5.16,5.5-7.1,12.25-4.89,19.68,1.62,5.44,3.67,10.75,5.53,16.11.29.84.6,1.68.91,2.51l-1.15.55c-2.35-4.07-5.32-7.92-6.86-12.28-1.42-4-3.71-4.91-7.24-4.33-2.26.37-4.73.69-6.64,1.82A129.1,129.1,0,0,0,9.65,85.07a30.84,30.84,0,0,0-7.17,8.84c-3.72,6.49-2.23,12.66,4.13,16.55A40.07,40.07,0,0,0,19,115.67c9.28,1.89,18.74,2.94,27.34,4.22-2.66-.39-10.74,5.58-5.49,7.47,3.21,1.16,6.2-3.08,8.84-4.52a36.68,36.68,0,0,1,11.46-3.67,113,113,0,0,0,14.54-3.35,14.91,14.91,0,0,0,9.13-7.6c1.32-2.54,5.19-1.24,5.09-5a4.91,4.91,0,0,0-.43-1.87l11.26-10.86A1,1,0,0,0,100.79,89.12Z"/></g></g></svg>