<svg xmlns="http://www.w3.org/2000/svg" viewBox="0 0 146.33 152.9"><defs><style>.cls-1{fill:#fff;}.cls-2{fill:#87aad9;}.cls-3{fill:#678cc7;}.cls-4{fill:#ed2991;}</style></defs><g id="Layer_2" data-name="Layer 2"><g id="Layer_1-2" data-name="Layer 1"><path class="cls-1" d="M0,60.53v84a8,8,0,0,0,8,8H138.33a8,8,0,0,0,8-8v-84L78.39,2A8,8,0,0,0,67.94,2Z"/><path class="cls-2" d="M0,60.53v84a8,8,0,0,0,8,8H138.33a8,8,0,0,0,8-8v-84L73.16,152.9Z"/><path class="cls-3" d="M67.94,85.94,0,144.53a8,8,0,0,0,8,8H138.33a8,8,0,0,0,8-8L78.39,85.94A8,8,0,0,0,67.94,85.94Z"/><path class="cls-4" d="M88.1,31.38c-10.67-2.71-14,4.17-14.94,7-.91-2.83-4.26-9.71-14.93-7-11.69,3-11.49,21.56-2,30.69C61.63,67.29,70.92,73.46,73,74.83c0,.07,0,.13,0,.19l.13-.09.14.09c0-.06,0-.12,0-.19,2.1-1.37,11.39-7.54,16.8-12.76C99.59,52.94,99.78,34.35,88.1,31.38Z"/></g></g></svg>