<svg xmlns="http://www.w3.org/2000/svg" viewBox="0 0 103.13 180.95"><defs><style>.cls-1{fill:#a8cd8b;}.cls-2{fill:#eb77af;}.cls-3{fill:#ed2991;}.cls-4{fill:#e01580;}</style></defs><g id="Layer_2" data-name="Layer 2"><g id="Layer_1-2" data-name="Layer 1"><path class="cls-1" d="M78,118.08c-9.74,6-16.43,16.58-20.65,25.45V87.81H46.09v56.48c-4.19-9-11-20-21-26.21C6,106.26,0,109.38,0,109.38s2.46,41.64,25.78,59,25.78,11.78,25.78,11.78h0s2.47,5.53,25.78-11.78,25.79-59,25.79-59S97.13,106.26,78,118.08Z"/><ellipse class="cls-2" cx="51.74" cy="24.28" rx="26.44" ry="23.93"/><path class="cls-3" d="M17.2.35,15.7,35.88s-1.13,20.46,0,28.53,5.63,19.9,17.65,26.84,18.39,4.88,18.39,4.88V36.44S51.6,24.9,46.67,16.87s-12-13.51-20-15.62S17.2.35,17.2.35Z"/><path class="cls-4" d="M86.28.35l1.51,35.53s1.12,20.46,0,28.53-5.64,19.9-17.65,26.84-18.4,4.88-18.4,4.88V36.44s.15-11.54,5.07-19.57,12-13.51,20-15.62S86.28.35,86.28.35Z"/></g></g></svg>