<svg xmlns="http://www.w3.org/2000/svg" width="325.533" height="436.784" viewBox="0 0 325.533 436.784">
    <g data-name="Group 2181">
        <path data-name="Path 4093" d="M210.169 199.19a89.913 89.913 0 0 0 42.408-53.872c1.438-5.1-6.43-7.2-7.855-2.171a82.324 82.324 0 0 1-38.678 49.015c-4.572 2.564-.475 9.591 4.111 7.027z" transform="translate(72.78 50.01)" style="fill:#c69021"/>
        <path data-name="Path 4094" d="M226.308 157.551a.794.794 0 0 1-.231.136l.977-.407-.136.027 1.085-.149h-.271l1.085.149a.9.9 0 0 1-.271-.081l.977.407a1.064 1.064 0 0 1-.244-.149l.828.638a.727.727 0 0 1-.2-.2l.638.828a2.158 2.158 0 0 1-.176-.3l.407.977a3.486 3.486 0 0 1-.217-.841l.149 1.085c-.217-1.723-.366-3.459-.556-5.2l-.285-2.645c-.041-.407-.081-.814-.122-1.207a5.763 5.763 0 0 0-.393-1.791 8.745 8.745 0 0 0-.393-.8l.556 2.049v-.109c-.2.678-.38 1.37-.57 2.049l.027-.054-3.514 2.021h.054c-.678-.19-1.37-.366-2.049-.556l.068.027-.828-.638.041.041-1.045-1.791v.027q2.523-2.5 5.02-5.006h-.054a4.268 4.268 0 0 0-3.134.393 4.065 4.065 0 0 0 .977 7.434h.054a4.137 4.137 0 0 0 3.961-1.031 4.088 4.088 0 0 0 1.045-3.961 4.286 4.286 0 0 0-4.1-3.093 4.056 4.056 0 0 0-3.514 2.021 4.573 4.573 0 0 0-.5 2.768 4.734 4.734 0 0 0 .665 1.818l-.407-.977.041.109-.149-1.085c.271 2.5.529 4.992.8 7.489.176 1.628.19 3.351 1.085 4.775a5.425 5.425 0 0 0 3.066 2.347 4.738 4.738 0 0 0 3.921-.543 4.4 4.4 0 0 0 1.872-2.428 4.07 4.07 0 0 0-2.835-5.006 3.947 3.947 0 0 0-3.134.407z" transform="translate(78.972 51.994)" style="fill:#c69021"/>
        <path data-name="Path 4095" d="M46.7 205.959a82.246 82.246 0 0 1-38.68-49.015c-1.424-5.033-9.279-2.89-7.855 2.171a90.16 90.16 0 0 0 42.422 53.872c4.626 2.591 8.682-4.463 4.111-7.027z" transform="translate(.007 54.935)" style="fill:#c69021"/>
        <path data-name="Path 4096" d="M12.436 178.375a4.769 4.769 0 0 0 3.839.556 5.4 5.4 0 0 0 3.08-2.279c.95-1.424.963-3.215 1.126-4.857.271-2.5.529-4.992.8-7.489l-.149 1.085.041-.109-.407.977a4.541 4.541 0 0 0 .163-4.6 4.056 4.056 0 0 0-3.514-2.021 4.286 4.286 0 0 0-4.1 3.093 4.135 4.135 0 0 0 1.045 3.961 4.226 4.226 0 0 0 3.961 1.045h.054a4.119 4.119 0 0 0 2.849-5.02 4.174 4.174 0 0 0-5.006-2.849h-.054q2.5 2.523 5.006 5.02v-.027c-.339.6-.692 1.194-1.045 1.791l.041-.041-.828.638.068-.027-2.049.556h.054a486.067 486.067 0 0 1-3.514-2.021l.027.054-.556-2.049v.109c.176-.678.353-1.37.543-2.049-.054.109-.122.2-.19.312a4.9 4.9 0 0 0-.583 2.171c-.054.434-.095.882-.136 1.316l-.285 2.645c-.19 1.736-.339 3.473-.556 5.2l.149-1.085a3.841 3.841 0 0 1-.217.841l.407-.977a2.159 2.159 0 0 1-.176.3l.638-.828a.727.727 0 0 1-.2.2l.828-.638a2.36 2.36 0 0 1-.244.149l.977-.407a.9.9 0 0 1-.271.081l1.085-.149a.91.91 0 0 1-.271 0l1.085.149-.136-.027.977.407a.576.576 0 0 1-.231-.136 4.084 4.084 0 0 0-3.134-.407A4.185 4.185 0 0 0 11 172.813a4.092 4.092 0 0 0-.407 3.134 4.61 4.61 0 0 0 1.872 2.428z" transform="translate(3.73 56.919)" style="fill:#c69021"/>
        <path data-name="Path 4097" d="M224.662 103.815c7.95 5.2 15.1 18 17.514 27.255 4.531 17.379 2.333 33.468-6.7 49.856-9.686 17.568-29.181 28-47.821 34.35a190.3 190.3 0 0 1-77.966 9.714c-12.861-1.153-25.722-3.8-36.833-10.012-12.115-6.783-21.679-17.623-28.788-29.751-15.886-27.092-19.875-64.169-4.016-93.689 15.478-28.815 46.83-46.167 78.86-52.529 16.687-3.31 34.214-4.016 49.87 1.709 12.847 4.694 24.46 12.888 33.889 22.724 11.129 11.613 19.929 25.858 22.9 42.042" transform="translate(10.696 12.99)" style="fill:#f9f6e3"/>
        <path data-name="Path 4098" d="M167.936 52.825C169.2 63.027 138.5 77.6 103.428 84.557c-31.284 6.2-55.012 4-55.921-4.314S68.6 59.364 99.575 51.4c34.716-8.927 67.113-8.764 68.361 1.424z" transform="translate(16.942 16.01)" style="fill:#e5e1d1"/>
        <path data-name="Path 4099" d="M51.76 94.649c23.185 2.591 51.8 1.411 75.714-7.6C139.3 82.588 151.4 77.04 160.562 67.977Q146.725 34.441 131.53 1.828a2.286 2.286 0 0 0-.977-1.235 2.661 2.661 0 0 0-1.465-.109c-2.863-.624-17.853-.977-32.464 1.221-18.355 2.768-36.466 8.764-37.606 8.913a2.624 2.624 0 0 0-1.424.665 2.844 2.844 0 0 0-.529 1.628c-2.686 26.5-3.676 53.194-5.02 77.9l-.271 3.853z" transform="translate(18.469 -.011)" style="fill:#da0002"/>
        <path data-name="Path 4100" d="M121.121 118.791c.258.176-.339.448-.434.149s.217-.556.475-.733a115.845 115.845 0 0 1 30.117-13.444c1.194-.339 2.645-.6 3.527.258.814.787.719 2.089.529 3.2a42 42 0 0 1-4.64 13.146c-2.347 4.246-5.7 8.262-10.283 9.822-4.735 1.614-10.066.339-14.435-2.089-3.324-1.845-6.553-4.925-6.376-8.723.041-.773.529-1.75 1.275-1.56" transform="translate(42.661 37.234)" style="fill:#c69021"/>
        <path data-name="Path 4101" d="M127.758 111.43a8.476 8.476 0 0 0-.923 9.035c.3.583 1.18.068.882-.516a7.415 7.415 0 0 1 .76-7.814c.407-.5-.312-1.235-.719-.719z" transform="translate(44.924 39.658)" style="fill:#a57217"/>
        <path data-name="Path 4102" d="M132.552 109.7a12.8 12.8 0 0 0-2.157 9.686.511.511 0 0 0 .977 0 1.583 1.583 0 0 1 .054-.244c.122-.638-.855-.909-.977-.271a1.576 1.576 0 0 1-.054.244h.977a11.82 11.82 0 0 1 2.062-8.9c.38-.543-.5-1.045-.882-.516z" transform="translate(46.439 39.028)" style="fill:#a57217"/>
        <path data-name="Path 4103" d="M137.762 107.31a5.286 5.286 0 0 0-1.574 1.994 15.006 15.006 0 0 0-1.126 2.469 15.688 15.688 0 0 0-.678 2.578 3.173 3.173 0 0 0 .163 2.469c.393.516 1.275 0 .882-.516s-.109-1.452 0-2.049a15.53 15.53 0 0 1 .61-2.2 15.364 15.364 0 0 1 .95-2.1 4.761 4.761 0 0 1 1.275-1.764c.556-.339.041-1.221-.516-.882z" transform="translate(47.875 38.229)" style="fill:#a57217"/>
        <path data-name="Path 4104" d="M116.37 118.292c0 6.268-4.721 12.332-11 13.336-6.865 1.085-12.318-4.246-11.654-11.613.638-6.946 6.5-12.3 12.657-12.3 5.7 0 10 4.626 10 10.582z" transform="translate(33.412 38.399)" style="fill:#873e22"/>
        <path data-name="Path 4105" d="M146.87 104.492c0 6.268 4.721 12.332 11 13.336 6.865 1.085 12.318-4.246 11.654-11.613-.638-6.946-6.5-12.3-12.657-12.3-5.696-.005-9.997 4.621-9.997 10.577z" transform="translate(52.388 33.477)" style="fill:#873e22"/>
        <path data-name="Path 4106" d="M110.5 141.615a105.111 105.111 0 0 0 15.466.448c9.7-.353 19.834-1.75 28.652-6.01a29.14 29.14 0 0 0 12.169-10.405 6.012 6.012 0 0 0 .529-4.64c-.2-.76-1.194-2.564-2.049-1.221-5.169 8.235-14.964 11.966-24.107 13.811a104.19 104.19 0 0 1-25.315 1.642c-1.791-.081-3.582-.19-5.359-.393-1.94-.217-2.211 6.525 0 6.783z" transform="translate(38.858 42.534)" style="fill:#873e22"/>
        <path data-name="Path 4107" d="M62.478 54.1a7.868 7.868 0 0 1 .57 1.275 33.094 33.094 0 0 0 2.116 5.82c1.031 1.791 2.93 3.31 4.992 3.08a16.557 16.557 0 0 0-8.262 8.913 19.536 19.536 0 0 0-2.863-5.725 6.7 6.7 0 0 0-5.562-2.7 12.674 12.674 0 0 0 8.872-9.89l.136-.76z" transform="translate(19.078 19.28)" style="fill:#f9f6e3"/>
        <path data-name="Path 4108" d="M74.075 53.057a9.318 9.318 0 0 1 .773 1.153 32.811 32.811 0 0 0 3.08 5.372c1.329 1.587 3.459 2.754 5.44 2.171a16.526 16.526 0 0 0-6.607 10.188 19.589 19.589 0 0 0-3.8-5.155 6.654 6.654 0 0 0-5.942-1.709A12.669 12.669 0 0 0 74.061 53.8v-.77z" transform="translate(23.911 18.898)" style="fill:#f9f6e3"/>
        <path data-name="Path 4109" d="M87.115 50.637a9.316 9.316 0 0 1 .773 1.153 32.811 32.811 0 0 0 3.08 5.372c1.33 1.587 3.459 2.754 5.44 2.171A16.526 16.526 0 0 0 89.8 69.522a19.59 19.59 0 0 0-3.8-5.156 6.654 6.654 0 0 0-5.942-1.709A12.669 12.669 0 0 0 87.1 51.383v-.773z" transform="translate(28.561 18.035)" style="fill:#f9f6e3"/>
        <path data-name="Path 4110" d="M99.372 47.7a8.345 8.345 0 0 1 .841 1.112 33.417 33.417 0 0 0 3.392 5.182c1.411 1.506 3.609 2.55 5.562 1.859a16.526 16.526 0 0 0-6 10.568 19.673 19.673 0 0 0-4.1-4.925 6.63 6.63 0 0 0-6.017-1.356 12.7 12.7 0 0 0 6.376-11.667l-.041-.773z" transform="translate(33.194 16.997)" style="fill:#f9f6e3"/>
        <path data-name="Path 4111" d="M111.345 44.2a9.454 9.454 0 0 1 .9 1.072 34.183 34.183 0 0 0 3.636 5.006c1.492 1.438 3.731 2.361 5.644 1.574a16.6 16.6 0 0 0-5.481 10.84 19.9 19.9 0 0 0-4.328-4.708 6.685 6.685 0 0 0-6.091-1.058 12.694 12.694 0 0 0 5.793-11.966l-.081-.773z" transform="translate(37.677 15.745)" style="fill:#f9f6e3"/>
        <path data-name="Path 4112" d="M122.267 40.48a11.145 11.145 0 0 1 .936 1.031 33.432 33.432 0 0 0 3.826 4.87c1.547 1.384 3.812 2.225 5.7 1.37a16.574 16.574 0 0 0-5.074 11.043 19.362 19.362 0 0 0-4.5-4.545 6.654 6.654 0 0 0-6.118-.828 12.69 12.69 0 0 0 5.345-12.169l-.109-.773z" transform="translate(41.746 14.422)" style="fill:#f9f6e3"/>
        <path data-name="Path 4113" d="M28.777 250.979c-2.863 15.913-4.26 32.614-1.167 48.554 3.989 20.5 15.344 38.434 29.751 51.213 14.557 12.915 32.039 20.854 50.019 25.79a176 176 0 0 0 88.846 1.14c24.786-6.118 48.907-17.948 67.343-37.809s30.431-47.985 29.318-77.112c-.99-25.939-11.9-50.019-22.412-72.8-5.562-12.033-11.531-24.555-21.625-31.813-11.165-8.031-25.5-8.058-38.189-4.6-12.644 3.432-24.392 9.971-36.711 14.448-35.571 12.915-73.475 8-109.453 3.052 0 0-30.267 49.544-35.747 79.919z" transform="translate(9.232 53.965)" style="fill:#f9f6e3"/>
        <path data-name="Path 4114" d="M67.584 213.167C120 218.4 174.215 218.81 223.8 200.469c4.979-1.845 9.985-3.921 14.1-7.367a27.457 27.457 0 0 0 8.995-14.747c.705-3.039.692-6.729-1.642-8.7s-5.793-1.235-8.7-.339a245.062 245.062 0 0 0-26.142 9.727c-7.285 3.188-14.435 6.742-21.855 9.564A176.972 176.972 0 0 1 157.8 196.7c-22.439 4.111-45.407 6-68.035 3.215-5.616-.692-11.518-1.628-16.782.5s-8 7.543-5.413 12.752" transform="translate(23.754 60.045)" style="fill:#e5e1d1"/>
        <path data-name="Path 4115" d="M193.266 176.785s38.189-10.934 43.331-50.426c.814-6.254 12.155 3.3 15.3 8.764a31.148 31.148 0 0 1-1.289 32.532c-1.465 2.116-3.256 4.219-3.5 6.783-.353 3.907 3 7.149 3.771 10.989.746 3.7-1.085 7.57-3.826 10.161s-6.295 4.151-9.822 5.522c-25.356 9.836-52.855 12.44-79.96 14.611-33.482 2.673-67.588 4.748-100.3-2.9a14.758 14.758 0 0 1-5.576-2.184c-1.967-1.465-3.107-3.771-4.056-6.037-2.293-5.454 4.246-22.222 6.159-27.825s56.843 15.344 139.761 0" transform="translate(16.723 44.319)" style="fill:#134d36"/>
        <path data-name="Path 4116" d="M190.53 160.719c-3.039.529-6.064 1.886-8.954 2.944s-5.657 2.076-8.384 3.351a115.849 115.849 0 0 1-19.427 6.5 249.307 249.307 0 0 1-50.25 8.289c-6.118.326-13.092.828-18.871-1.4-2.442-.95-3.5 2.985-1.085 3.921 5.2 2.008 11.4 1.831 16.877 1.669a204.89 204.89 0 0 0 24.6-2.456c8.818-1.343 17.582-3.052 26.237-5.2a148.51 148.51 0 0 0 21.069-6.553c3.12-1.289 5.481-2.4 8.669-3.6 3.405-1.275 7-2.93 10.6-3.554 2.578-.448 1.479-4.368-1.085-3.921z" transform="translate(29.323 57.291)" style="fill:#0a3822"/>
        <path data-name="Path 4117" d="M207.276 160.265a99.686 99.686 0 0 1-61.551 17.27c-2.618-.136-2.6 3.934 0 4.07a103.3 103.3 0 0 0 63.6-17.826c2.143-1.479.109-5.006-2.049-3.514z" transform="translate(51.281 57.013)" style="fill:#0a3822"/>
        <path data-name="Path 4118" d="M35.874 103.394a84.537 84.537 0 0 0 26.739 72.4c1.6 1.465 4.016-.923 2.4-2.4a81.389 81.389 0 0 1-25.749-70c.271-2.157-3.12-2.143-3.392 0z" transform="translate(12.58 36.284)" style="fill:#e5e1d1"/>
        <path data-name="Path 4119" d="M64.668 167.99c-14.516 7.774-29.29 15.737-40.713 27.608-2.9 3.012-5.7 6.566-5.969 10.745a14.365 14.365 0 0 0 1.831 7.434c5.834 11.274 19.278 15.94 31.555 19.183a7.8 7.8 0 0 0 4.613.244c1.7-.638 2.7-2.333 3.568-3.934a250.6 250.6 0 0 0 19.631-47.591 3.712 3.712 0 0 0 .163-2.293 3.659 3.659 0 0 0-1.221-1.438q-6.023-5.026-12.183-9.931h-1.288z" transform="translate(6.415 59.897)" style="fill:#134d36"/>
        <path data-name="Path 4120" d="M62.749 184.878c-4.165 12.155-8.37 24.569-8.7 37.9-.081 3.392.176 7.068 2.157 9.944a12.582 12.582 0 0 0 4.843 3.975c9.049 4.545 18.979 1.058 27.526-2.795a5.111 5.111 0 0 0 2.713-2.089c.624-1.235.326-2.849-.014-4.314A233.12 233.12 0 0 0 77.9 186.763a3.473 3.473 0 0 0-1.085-1.587 2.76 2.76 0 0 0-1.411-.353q-5.962-.366-11.925-.583l-.733.61z" transform="translate(19.282 65.692)" style="fill:#134d36"/>
        <path data-name="Path 4121" d="M47.432 181.641a49.438 49.438 0 0 0 30.7 14.068c2.171.176 2.157-3.215 0-3.392a45.878 45.878 0 0 1-28.3-13.078 1.7 1.7 0 0 0-2.4 2.4z" transform="translate(16.746 63.733)" style="fill:#0a3822"/>
        <path data-name="Path 4122" d="M63.34 21.155A189.489 189.489 0 0 1 123.534 10c4.355-.081 4.368-6.865 0-6.783-.6 0-1.207.027-1.8.027-4.355.081-4.368 6.865 0 6.783.6 0 1.207-.027 1.8-.027V3.234a195.272 195.272 0 0 0-62 11.4 3.5 3.5 0 0 0-2.374 4.178 3.438 3.438 0 0 0 4.178 2.374z" transform="translate(21.066 1.134)" style="fill:#af141c"/>
        <circle data-name="Ellipse 30" cx="7.434" cy="7.434" r="7.434" transform="translate(200.032 282.695)" style="fill:#873e22"/>
        <circle data-name="Ellipse 31" cx="8.71" cy="8.71" r="8.71" transform="translate(204.617 308.797)" style="fill:#873e22"/>
    </g>
</svg>
