<svg data-name="icon_ginger bread" xmlns="http://www.w3.org/2000/svg" width="228.244" height="272.482" viewBox="0 0 228.244 272.482">
    <g data-name="Group 2149">
        <path data-name="Path 3912" d="M151.148 110.714c11.409-10.473 22.4-22.29 27.282-37.023 7.909-23.85-3.364-52.217-24.772-65.281s-50.82-10.51-70.627 4.965C71.486 22.4 62.845 36.112 62.872 50.791c.027 15.127 5.372 31.284 12.7 43.277C55.369 96.347 36.987 82.1 16.8 79.335c-4.029-.556-8.425-.556-11.8 1.709C.127 84.314-.89 91.4 1.09 96.93s6.268 9.876 10.419 14.028Q23.455 122.9 35.4 134.835c2.4 2.4 4.87 4.925 5.888 8.153 1.438 4.6-.393 9.524-2.184 14q-10.725 26.618-21.463 53.222c-3.012 7.462-6.064 15.154-5.983 23.2s4.056 16.565 11.5 19.576c10.663 4.314 22.018-4 30.1-12.2s17.731-17.636 29.1-15.9c8.859 1.357 15.045 9.117 20.892 15.886a171 171 0 0 0 21.747 21.109c5.209 4.233 10.84 8.235 17.351 9.89s14.109.516 18.749-4.368c6.023-6.335 5.291-16.266 4.165-24.908q-3.724-28.469-7.434-56.979c-.434-3.31-.828-6.865.651-9.863 2.225-4.531 7.733-6.146 12.617-7.434a285.818 285.818 0 0 0 42.286-14.747c4.789-2.1 9.768-4.558 12.6-8.954 5.861-9.062-.855-21.91-10.609-26.427s-21.082-3.188-31.786-2.021-23.09 0-32.424-5.372" transform="translate(.061 -.004)" style="fill:#7c2b23"/>
        <path data-name="Path 3913" d="M141.921 109.514c10.948-9.659 21.516-20.607 26.359-34.391 7.828-22.3-2.374-49.151-22.371-61.741s-47.686-10.65-66.6 3.527C68.3 25.172 59.926 37.883 59.7 51.667c-.244 14.19 4.5 29.453 11.179 40.848C51.813 94.306 34.787 80.6 15.862 77.674c-3.771-.583-7.909-.665-11.111 1.411C.112 82.069-.974 88.689.79 93.926s5.7 9.388 9.524 13.363l22.018 22.873c2.211 2.293 4.5 4.721 5.386 7.787 1.275 4.355-.543 8.954-2.32 13.132q-10.6 24.888-21.191 49.775c-2.971 6.987-6 14.19-6.078 21.774s3.5 15.737 10.473 18.735c9.971 4.3 20.852-3.337 28.625-10.921S64.281 214.124 74.985 216c8.343 1.465 14.055 8.927 19.468 15.452a162.7 162.7 0 0 0 20.227 20.445c4.87 4.124 10.134 8.045 16.28 9.741s13.363.787 17.853-3.744c5.806-5.874 5.277-15.33 4.341-23.538l-6.146-54.089c-.353-3.147-.678-6.5.773-9.32 2.184-4.233 7.421-5.657 12.061-6.783a269.493 269.493 0 0 0 40.306-13.146c4.572-1.9 9.334-4.124 12.088-8.235 5.684-8.452-.5-20.716-9.673-25.152s-19.915-3.392-30.063-2.469-21.842-.407-30.579-5.644" transform="translate(.009 1.78)" style="fill:#873e22"/>
        <circle data-name="Ellipse 1" cx="6.037" cy="6.037" r="6.037" transform="translate(118.935 56.404)" style="fill:#e5e1d1"/>
        <circle data-name="Ellipse 2" cx="6.037" cy="6.037" r="6.037" transform="translate(88.397 47.708)" style="fill:#e5e1d1"/>
        <circle data-name="Ellipse 3" cx="10.229" cy="10.229" r="10.229" transform="translate(96.076 56.105)" style="fill:#da0002"/>
        <path data-name="Path 3914" d="M113.665 62.893c-7.272 7.122-23.958 5.2-32.763 2.483a36.526 36.526 0 0 1-22.154-18.518c-1.207-2.4-4.789-.285-3.6 2.1A40.975 40.975 0 0 0 82.11 70.043c10.107 2.55 26.414 3.731 34.5-4.192 1.913-1.886-1.031-4.816-2.944-2.944z" transform="translate(19.596 16.329)" style="fill:#e5e1d1"/>
        <path data-name="Path 3915" d="M105.552 24.753a18.04 18.04 0 0 1 4.328 5.671c.421.923 1.058 2.211.38 3.134a5.729 5.729 0 0 1-2.917 1.56 13.7 13.7 0 0 1-13.431-3.636 9.867 9.867 0 0 1-1.723-2.428 6.671 6.671 0 0 1-.516-1.3c-.081-.3-.109-1.18-.38-.95.787-.665 2.483 1.14 2.863 1.682.9 1.275-.109 1.913-1.343 2.361-3.771 1.4-8.533.122-11.708-2.13-3.839-2.727-5.467-8.56-1.194-11.748 1.682-1.262.041-4.138-1.669-2.863-5.739 4.273-5.277 12.25.109 16.646a17.743 17.743 0 0 0 9.307 3.812c3.066.339 7-.041 9.2-2.483 2.564-2.849-.068-6.661-2.917-8.086a4.759 4.759 0 0 0-4.3-.095c-1.519.855-1.655 2.51-1.33 4.056 1.506 7.217 9.727 11.355 16.565 10.894 3.351-.217 8.682-1.655 8.981-5.766s-3.242-8.194-5.983-10.7c-1.574-1.438-3.921.9-2.347 2.347z" transform="translate(26.447 4.911)" style="fill:#c69021"/>
        <circle data-name="Ellipse 4" cx="14.19" cy="14.19" r="14.19" transform="translate(80.664 126.067)" style="fill:#da0002"/>
        <circle data-name="Ellipse 5" cx="14.19" cy="14.19" r="14.19" transform="translate(71.575 166.359)" style="fill:#da0002"/>
        <path data-name="Path 3916" d="M24.32 66.288c.936 2.6 2.049 5.657.38 8.208a8.051 8.051 0 0 1-2.578 2.347c-.936.556-2.266.828-2.971 1.682A3.007 3.007 0 0 0 19 81.5a6.907 6.907 0 0 1 .421 3.771 4.914 4.914 0 0 1-5.549 3.921c-1.316-.231-1.872 1.764-.556 2.008a6.95 6.95 0 0 0 6.975-2.8 7.579 7.579 0 0 0 1.3-3.758 8.4 8.4 0 0 0-.122-2.1c-.122-.692-.61-1.452-.651-2.13-.054-.868.936-1.017 1.56-1.33a11.539 11.539 0 0 0 1.822-1.126 8.74 8.74 0 0 0 2.632-3c1.519-2.985.556-6.254-.516-9.212-.448-1.248-2.469-.705-2.008.556z" transform="translate(4.494 23.19)" style="fill:#e5e1d1"/>
        <path data-name="Path 3917" d="M139 88.308c-2.985 1.614-3.785 5.033-3.283 8.181a23.765 23.765 0 0 0 1.913 5.969c.393.868 1.085 1.438.339 2.13a9.458 9.458 0 0 0-1.384 1.465c-4.3 6.186 1.465 12.752 5.861 16.754.99.9 2.469-.57 1.465-1.465-2.252-2.062-4.653-4.206-5.915-7.041-1.14-2.537-1.112-6.051 1.14-7.977.773-.665 1.614-1.153 1.424-2.32-.217-1.452-1.329-2.944-1.831-4.328-1.1-3.052-2.225-7.638 1.316-9.551 1.18-.638.136-2.428-1.045-1.791z" transform="translate(48.184 31.45)" style="fill:#e5e1d1"/>
        <path data-name="Path 3918" d="M40.709 176.368c.936-1.777 1.926-3.744 1.56-5.82a4.281 4.281 0 0 0-2.9-3.541c-1.994-.57-3.839.583-5.345 1.75-.393.3-.99.99-1.479 1.112-.787.19-.828-.448-.787-1.112a21.4 21.4 0 0 0 .109-3.609c-.529-4.138-4.518-5.047-7.774-3.08-.9.543-1.682 1.221-2.55 1.791a3.789 3.789 0 0 1-.9.529c-.543.122-.543-.054-.705-.393a7.692 7.692 0 0 1-.19-2.021 7.967 7.967 0 0 0-2.089-5.142 4.179 4.179 0 0 0-4.992-.855c-1.8.963-2.727 2.971-4.165 4.341-.963.936.5 2.4 1.465 1.465 1.248-1.207 2.388-3.8 4.206-4.192 3.12-.651 3.446 4.111 3.636 6.023.163 1.655.733 3.283 2.74 2.957 2.184-.366 3.622-2.51 5.644-3.256 1.452-.529 2.9-.258 3.446 1.357a8.336 8.336 0 0 1 .081 3.229c-.122 1.587-.366 4.341 1.94 4.423 2.049.068 3.473-2.116 5.155-2.957s3.364-.041 3.459 1.926a8.215 8.215 0 0 1-1.357 4.043c-.651 1.235 1.167 2.238 1.791 1.045z" transform="translate(2.932 55.449)" style="fill:#e5e1d1"/>
        <path data-name="Path 3919" d="M123.152 178.879c-1.4-3.717-5.6-10.84-10.622-9.184-1.926.624-2.55 2.6-2.89 4.4a8.009 8.009 0 0 1-.583 2.469c-1.058 1.818-3.039-.543-3.826-1.519-1.642-2.062-3.2-4.409-5.969-4.992a4.6 4.6 0 0 0-5.06 2.279 8.671 8.671 0 0 0-.9 3.08c-.149 1.058.014 2.347-.244 3.378-.705 2.713-5.888-3.283-6.96-3.921-2.293-1.37-5.06-.882-6.281 1.614-1.316 2.673.041 5.467 1.384 7.828a1.037 1.037 0 0 0 1.799-1.05c-.963-1.682-3.147-5.915-.149-7.014 2.428-.882 4.775 3.066 6.43 4.26 1.262.909 3.27 1.682 4.721.719 1.574-1.045 1.14-3.473 1.316-5.087.258-2.4 1.438-5.087 4.368-3.771 2.388 1.072 3.446 3.8 5.277 5.508 1.221 1.153 3 1.981 4.613 1.1 1.3-.719 1.7-2.211 1.954-3.568a9.812 9.812 0 0 1 .665-2.713c.746-1.438 2.279-1.153 3.5-.475 2.6 1.452 4.45 4.531 5.454 7.244.461 1.248 2.483.705 2.008-.556z" transform="translate(28.288 60.427)" style="fill:#e5e1d1"/>
        <path data-name="Path 3920" d="M116.462 85.111C95.882 90.28 75.206 82.276 57.719 71.8c-4.613-2.754-8.8 4.436-4.206 7.19 19.468 11.654 42.368 19.875 65.159 14.15 5.2-1.3 3-9.334-2.211-8.031z" transform="translate(18.387 25.382)" style="fill:#134d36"/>
    </g>
</svg>
