<svg data-name="icon_snow globe" xmlns="http://www.w3.org/2000/svg" width="100" height="120.857" viewBox="0 0 100 120.857">
    <defs>
        <clipPath id="ldv0awn3va">
            <circle data-name="Ellipse 9" cx="50" cy="50" r="50" style="fill:none"/>
        </clipPath>
    </defs>
    <g data-name="Group 2163">
        <path data-name="Path 3956" d="M29.507 131.94q-10.842 13.6-20.6 28.023 2.4.256 4.8.5a417.081 417.081 0 0 0 65.193 1.454 82.449 82.449 0 0 0 14.777-1.831q-6.677-12.02-13.35-24.04a8.7 8.7 0 0 0-2.4-3.1c-1.414-.977-3.252-1.025-4.967-1.032q-21.284-.123-42.567-.253c-.26 0-.567.02-.7.246" transform="translate(-2.823 -41.716)" style="fill:#c69021"/>
        <circle data-name="Ellipse 7" cx="50" cy="50" r="50" style="fill:#f9f6e3"/>
        <g data-name="Group 2162" style="clip-path:url(#ldv0awn3va)">
            <ellipse data-name="Ellipse 8" cx="33.42" cy="16.027" rx="33.42" ry="16.027" transform="translate(16.58 77.634)" style="fill:#e5e1d1"/>
        </g>
        <path data-name="Path 3957" d="M52.511 102.451a90.578 90.578 0 0 0 .02 10.008h4.3a6.08 6.08 0 0 0-.027-.342 2.152 2.152 0 1 0-4.3 0c.007.116.014.232.027.342a2.152 2.152 0 0 0 4.3 0 90.578 90.578 0 0 1-.02-10.008 2.165 2.165 0 0 0-2.152-2.152 2.2 2.2 0 0 0-2.152 2.152z" transform="translate(-16.597 -31.779)" style="fill:#c69021"/>
        <path data-name="Path 3958" d="M55.693 89.6c-1.168.635-8.833 1.742-13.192.485a3.83 3.83 0 0 1-2.364-1.53 9.453 9.453 0 0 1-1.011-4.721 63.451 63.451 0 0 1 .813-10.077q1.066-7.511 2.528-14.859a37.225 37.225 0 0 1 2.125-7.644 4.272 4.272 0 0 1 1.681-2.207c1.3-.588 2.569 1.018 3.464 2.644 4.707 8.587 6.2 20.46 7.125 31.8a13.927 13.927 0 0 1-.089 4.2 3.928 3.928 0 0 1-.355 1.175 1.976 1.976 0 0 1-.724.738z" transform="translate(-12.395 -15.503)" style="fill:#134d36"/>
        <path data-name="Path 3959" d="M71.719 106.581a90.577 90.577 0 0 1-.02 10.008 2.169 2.169 0 0 0 2.152 2.152A2.2 2.2 0 0 0 76 116.589a6.08 6.08 0 0 1 .027-.342 2.16 2.16 0 0 0-2.152-2.152 2.2 2.2 0 0 0-2.152 2.152 6.08 6.08 0 0 1-.027.342H76a90.574 90.574 0 0 0 .02-10.008 2.152 2.152 0 1 0-4.3 0z" transform="translate(-22.717 -33.087)" style="fill:#c69021"/>
        <path data-name="Path 3960" d="M64.145 93.235c1.168.635 8.833 1.742 13.192.485a3.83 3.83 0 0 0 2.364-1.53 9.453 9.453 0 0 0 1.011-4.721 63.452 63.452 0 0 0-.812-10.077q-1.066-7.511-2.528-14.859a37.225 37.225 0 0 0-2.125-7.644 4.272 4.272 0 0 0-1.681-2.207C72.268 52.1 71 53.7 70.1 55.326c-4.707 8.587-6.2 20.46-7.125 31.8a13.927 13.927 0 0 0 .089 4.2 3.928 3.928 0 0 0 .355 1.175 1.976 1.976 0 0 0 .724.738z" transform="translate(-19.918 -16.653)" style="fill:#134d36"/>
        <path data-name="Path 3961" d="M94.069 103.531a90.579 90.579 0 0 1-.02 10.008 2.169 2.169 0 0 0 2.152 2.152 2.2 2.2 0 0 0 2.152-2.152 6.08 6.08 0 0 1 .027-.342 2.16 2.16 0 0 0-2.152-2.152 2.2 2.2 0 0 0-2.152 2.152 6.08 6.08 0 0 1-.027.342h4.3a90.574 90.574 0 0 0 .02-10.008 2.152 2.152 0 0 0-4.3 0z" transform="translate(-29.798 -32.121)" style="fill:#c69021"/>
        <path data-name="Path 3962" d="M88.325 90.015c1.168.635 8.833 1.742 13.192.485a3.83 3.83 0 0 0 2.364-1.53 9.453 9.453 0 0 0 1.011-4.721 63.452 63.452 0 0 0-.813-10.077q-1.066-7.511-2.528-14.859a37.225 37.225 0 0 0-2.125-7.644 4.272 4.272 0 0 0-1.681-2.207c-1.3-.588-2.569 1.018-3.464 2.644-4.707 8.587-6.2 20.46-7.125 31.8a13.927 13.927 0 0 0 .089 4.2 3.928 3.928 0 0 0 .355 1.175 1.976 1.976 0 0 0 .724.738z" transform="translate(-27.579 -15.633)" style="fill:#134d36"/>
        <path data-name="Path 3963" d="M45.911 49.942a3.827 3.827 0 0 1 3.245-1.667 4.716 4.716 0 0 1 3.156 2.2 13.212 13.212 0 0 1 2.473 6.811 2.881 2.881 0 0 1-.7 2.466 3.021 3.021 0 0 1-1.325.533 3.374 3.374 0 0 1-2.111-.041c-.512-.232-.909-.7-1.462-.833a7.971 7.971 0 0 0-1.558.061 2.911 2.911 0 0 1-2.371-2.336c-.321-1.141-.287-5.622.656-7.187" transform="translate(-14.281 -15.292)" style="fill:#e5e1d1"/>
        <path data-name="Path 3964" d="M78.249 54.254a4 4 0 0 0-3.361-2.3c-1.428.055-2.651 1.237-3.58 2.507a18.044 18.044 0 0 0-3.208 8.292 3.967 3.967 0 0 0 .56 3.108 2.963 2.963 0 0 0 1.38.758 3.235 3.235 0 0 0 2.275.1c.574-.26 1.038-.813 1.64-.936a7.349 7.349 0 0 1 1.674.184c1.284.027 2.3-1.339 2.746-2.739s.758-6.955-.13-8.97" transform="translate(-21.554 -16.462)" style="fill:#e5e1d1"/>
        <path data-name="Path 3965" d="M99.409 49.588a3.849 3.849 0 0 0-3.129-1.878 4.707 4.707 0 0 0-3.293 1.99 13.171 13.171 0 0 0-2.9 6.64 2.9 2.9 0 0 0 .54 2.507 3.046 3.046 0 0 0 1.284.622 3.328 3.328 0 0 0 2.1.1c.526-.2.956-.649 1.51-.738a7.526 7.526 0 0 1 1.551.164 2.918 2.918 0 0 0 2.521-2.179c.4-1.12.649-5.588-.191-7.214" transform="translate(-28.525 -15.116)" style="fill:#e5e1d1"/>
        <circle data-name="Ellipse 10" cx="4.591" cy="4.591" r="4.591" transform="translate(59.202 16.444)" style="fill:#e5e1d1"/>
        <circle data-name="Ellipse 11" cx="3.696" cy="3.696" r="3.696" transform="translate(37.232 11.238)" style="fill:#e5e1d1"/>
        <circle data-name="Ellipse 12" cx="4.529" cy="4.529" r="4.529" transform="translate(15.767 28.549)" style="fill:#e5e1d1"/>
        <circle data-name="Ellipse 13" cx="4.529" cy="4.529" r="4.529" transform="translate(80.913 64.032)" style="fill:#e5e1d1"/>
        <circle data-name="Ellipse 14" cx="3.696" cy="3.696" r="3.696" transform="translate(81.746 39.261)" style="fill:#e5e1d1"/>
        <circle data-name="Ellipse 15" cx="3.696" cy="3.696" r="3.696" transform="translate(12.064 62.468)" style="fill:#e5e1d1"/>
        <path data-name="Path 3966" d="M101.09 18.025a40.017 40.017 0 0 1 17.318 14.531 42.909 42.909 0 0 1 7.023 23.876 45.58 45.58 0 0 1-2.555 14.811c-.458 1.312 1.619 1.872 2.07.574a47.186 47.186 0 0 0 1.086-27.483 43.349 43.349 0 0 0-12.707-20.939 41.162 41.162 0 0 0-11.149-7.221c-1.257-.547-2.35 1.3-1.086 1.858z" transform="translate(-31.852 -5.093)" style="fill:#e5e1d1"/>
        <path data-name="Path 3967" d="M31.888 167.769a353.131 353.131 0 0 0 41.044.806q5.769-.225 11.525-.635c1.708-.123 1.722-2.8 0-2.678a353.112 353.112 0 0 1-41.044.547q-5.769-.256-11.518-.71c-1.715-.137-1.708 2.541 0 2.678z" transform="translate(-9.699 -52.309)" style="fill:#f9f6e3"/>
    </g>
</svg>
