<svg xmlns="http://www.w3.org/2000/svg" width="157.234" height="117.091" viewBox="0 0 157.234 117.091">
    <g data-name="Group 2184">
        <path data-name="Path 4135" d="M78.4 52.764c-2.795 3.147-7.692 3.636-11.681 2.32s-7.3-4.124-10.487-6.865q-4.619-3.948-9.239-7.909C45.949 46.944 39.722 52 33.088 52.967s-13.43-1.628-18.748-5.725c1.94 3.568.095 8.248-3.08 10.785S3.975 61.514 0 62.382a30.121 30.121 0 0 1 26.441 20.567c5.752-6.295 17.365-5.494 22.208 1.519a5.93 5.93 0 0 0 1.872 2.089c1.886 1 3.989-.651 5.806-1.764a12.7 12.7 0 0 1 15.737 2.428c1.343 1.547 11.436-11.938 11.6-14.136.421-5.779-4.3-14.313-5.25-20.309z" transform="translate(0 14.362)" style="fill:#134d36"/>
        <path data-name="Path 4136" d="M27.457 61.344c6.593 2.388 14.218 2.632 21.164 2.863s14.462.231 21.5-1.031c2.388-.434 1.37-4.056-1-3.636-12.291 2.225-28.829 2.469-40.658-1.818-2.279-.828-3.269 2.808-1 3.636z" transform="translate(9.335 20.529)" style="fill:#0a3822"/>
        <path data-name="Path 4137" d="M100.923 87c-2.171-4.26-.651-9.659 2.4-13.336s7.394-6.01 11.626-8.248l12.223-6.485c-6.58-3.866-9.361-12.549-7.611-19.983s7.3-13.539 13.851-17.473c-4.585.57-8.764-3.337-10.148-7.733s-.664-9.174.07-13.732a34.29 34.29 0 0 1-32.749 19.454c4.273 8.7-1.4 20.675-10.826 22.886a6.805 6.805 0 0 0-3 1.112c-1.845 1.574-.963 4.49-.543 6.878A14.45 14.45 0 0 1 67.1 66c-2.2.773 7.9 17.066 10.148 18.152 5.942 2.849 16.944 1.4 23.687 2.876z" transform="translate(23.82 -.01)" style="fill:#134d36"/>
        <path data-name="Path 4138" d="M79.267 60.249c13.214-6.566 21.476-17.026 27.716-30.131 1.18-2.483-2.51-4.653-3.7-2.157C97.337 40.428 89.686 50.3 77.1 56.559c-2.469 1.221-.3 4.925 2.157 3.7z" transform="translate(27.107 9.564)" style="fill:#0a3822"/>
        <circle data-name="Ellipse 32" cx="17.189" cy="17.189" r="17.189" transform="translate(68.266 82.714)" style="fill:#da0002"/>
        <circle data-name="Ellipse 33" cx="14.218" cy="14.218" r="14.218" transform="translate(100.703 71.427)" style="fill:#da0002"/>
        <path data-name="Path 4139" d="M55.11 77.82c5.237 5.739 13.648 7.18 20.119 2.88a.735.735 0 0 0 .271-.651.968.968 0 0 1 .3.882c-1.424 4.45-6.648 6.742-11.124 6.254-4.816-.488-9.374-4.49-9.564-9.361z" transform="translate(19.654 27.74)" style="fill:#af141c"/>
        <path data-name="Path 4140" d="M82.75 72.541a12.478 12.478 0 0 0 12.9-9.2c.081-.353.231-.76-.122-1.072a.745.745 0 0 1 .665.339c3.5 7.706-7.055 15.533-13.444 9.944z" transform="translate(29.512 22.193)" style="fill:#af141c"/>
        <circle data-name="Ellipse 34" cx="16.958" cy="16.958" r="16.958" transform="translate(73.245 52.312)" style="fill:#da0002"/>
        <path data-name="Path 4141" d="M61.49 59.335a14.86 14.86 0 0 0 18.247-4.857c.244-.353.57-.746.312-1.248a.925.925 0 0 1 .61.651c.516 4.423-3.107 8.479-7.19 9.808-4.368 1.465-9.9-.2-11.979-4.355z" transform="translate(21.93 18.97)" style="fill:#af141c"/>
    </g>
</svg>
