<svg xmlns="http://www.w3.org/2000/svg" width="259.852" height="311.507" viewBox="0 0 259.852 311.507">
    <g data-name="Group 2168">
        <path data-name="Path 3981" d="M67.693 120.7a58.783 58.783 0 0 1-14.57 55.975C38.661 191.475 18.271 200.2 6.59 217.78c-9.971 15-7.76 34.743 8.913 43.643 16.877 8.995 39.994 11.966 58.58 7.719 20.946-4.789 33.577-24.718 54.225-29.317 7.339-1.642 4.233-12.915-3.107-11.274-16.551 3.69-27.336 16.5-41.594 24.514-16.944 9.524-38.854 6.96-56.49.692-9.008-3.2-16.415-9.049-14.855-19.495 1.465-9.754 9.456-17.3 16.66-23.321 14.353-12.02 31.108-21.164 41.527-37.28 10.7-16.565 13.4-37.1 8.533-56.07-1.872-7.285-13.159-4.192-11.274 3.107z" transform="translate(.217 40.46)" style="fill:#134d36"/>
        <g data-name="Group 2166">
            <path data-name="Path 3982" d="M45.012 168.143c-.312-.977-30.755-50.019-40.089-77.885A96.03 96.03 0 0 1 .759 47.9C2.2 36.589 5.792 25.329 12.724 16.281S30.239.611 41.634.055a64.929 64.929 0 0 1 22.643 3.351C69 4.939 80.828 11.614 87.461 19.007c15.344 17.08 17.379 41.662 24.908 63.341.99-6.295 2.211-13.078 6.81-17.5 7.991-7.679 22.439-3.473 28.6 5.752s6.037 21.218 4.531 32.193a155.1 155.1 0 0 1-7.909 31.935c-2.673 7.353-6.064 14.733-11.884 19.956-5.209 4.667-11.925 7.217-18.545 9.469a330.623 330.623 0 0 1-43.1 11.45c-5.25 1.017-10.772 1.913-15.9.353a17.52 17.52 0 0 1-9.958-7.828" transform="translate(-.003 .003)" style="fill:#f9f6e3"/>
            <path data-name="Path 3983" d="M30.958 14.8c15.4-5.074 30.2 3.269 39.017 15.846 8.1 11.559 11.5 25.5 14.855 39 .909 3.649 6.539 2.1 5.644-1.56-4.057-16.335-8.493-33.266-19.956-46.154C60.221 10.374 44.524 4.187 29.412 9.166c-3.554 1.167-2.035 6.824 1.56 5.644z" transform="translate(9.765 2.654)" style="fill:#e5e1d1"/>
            <path data-name="Path 3984" d="M93.808 55.484c17.786-1.221 15.262 23.687 13.254 34.364-.692 3.676 4.938 5.25 5.644 1.56 1.8-9.5 3.446-19.522-.407-28.747-3.175-7.6-9.89-13.607-18.491-13.01-3.731.258-3.758 6.1 0 5.847z" transform="translate(32.451 17.696)" style="fill:#e5e1d1"/>
            <path data-name="Path 3985" d="M42.559 121.4c4.979-.027 10.134 6.023 14.76 4.816 4.07-1.058 6.2-6.444 9.239-9.971a12.7 12.7 0 0 1 15.086-3.554c4.314 1.913 8.56 6.132 12.685 4.911 5.711-1.682 8.113-13.146 14.028-13.485 4.355-.244 8.33 6 12.495 4.762 2.333-.692 4.1-3.649 6.417-4.45 3.392-1.167 6.634 2.55 8.967 6.295a21.475 21.475 0 0 1 3.405 8.208 16.57 16.57 0 0 1-4.3 13.526c-2.957 2.944-6.661 3.894-10.27 4.151-2.727.2-5.522.054-8.167 1.126-4.911 2.008-8.411 7.841-12.969 10.934a14.363 14.363 0 0 1-16.158-.109c-1.452-.936-2.917-2.157-4.5-2.32-1.655-.176-3.161.828-4.585 1.777-3.2 2.143-6.5 4.233-10.175 4.87a12.06 12.06 0 0 1-11.07-3.758 26.844 26.844 0 0 0-2.306-2.483c-2.4-2.021-5.386-1.547-7.679-.163s-4.219 3.527-6.566 4.789a6.516 6.516 0 0 1-7.855-.882s-8.275-10.2-6.295-18.057c1.704-6.8 13.754-10.933 15.786-10.933z" transform="translate(9.424 37.131)" style="fill:#873e22"/>
            <circle data-name="Ellipse 16" cx="14.611" cy="14.611" r="14.611" transform="translate(52.064 144.458)" style="fill:#da0002"/>
            <path data-name="Path 3986" d="M43.03 121.01a12.825 12.825 0 0 0 16.17 1.872c.312-.2.692-.421.651-.9a.8.8 0 0 1 .285.719c-2.659 8.289-16.063 6.987-17.094-1.7z" transform="translate(15.343 43.16)" style="fill:#af141c"/>
            <circle data-name="Ellipse 17" cx="14.611" cy="14.611" r="14.611" transform="translate(82.222 138.367)" style="fill:#da0002"/>
            <path data-name="Path 3987" d="M65.26 116.51a12.825 12.825 0 0 0 16.171 1.872c.312-.2.692-.421.651-.9a.8.8 0 0 1 .285.719c-2.659 8.289-16.063 6.987-17.094-1.7z" transform="translate(23.271 41.556)" style="fill:#af141c"/>
        </g>
        <g data-name="Group 2167" transform="translate(70.471 129.339)">
            <path data-name="Path 3988" d="M137.362 250.622c.733-.719 50.426-30.077 71.59-50.467a95.652 95.652 0 0 0 23.307-35.6c3.961-10.69 6-22.33 4.043-33.577s-8.275-21.991-18.111-27.77a65.232 65.232 0 0 0-21.625-7.516c-4.884-.828-18.464-.393-27.77 3.093-21.5 8.031-34.7 28.869-51.417 44.606 2.049-6.037 4.1-12.617 2.062-18.667-3.527-10.514-18.274-13.471-28-8.14s-15.181 16.008-18.925 26.441a155.95 155.95 0 0 0-7.787 31.962c-1.031 7.746-1.452 15.859 1.289 23.185 2.456 6.539 7.217 11.925 12.047 16.972a332.473 332.473 0 0 0 32.9 30.117c4.178 3.337 8.655 6.675 13.919 7.679a17.585 17.585 0 0 0 12.454-2.32" transform="translate(-47.672 -95.335)" style="fill:#f9f6e3"/>
            <path data-name="Path 3989" d="M196.9 112.546c-10.758-11.124-27.051-13.241-41.31-8.208-16.632 5.874-28.72 19.142-40.1 32-2.483 2.808 1.628 6.96 4.138 4.138 9.442-10.663 19.2-21.815 32.193-28.218s30-6.919 40.943 4.423c2.618 2.713 6.756-1.424 4.138-4.138z" transform="translate(-29.56 -93.045)" style="fill:#e5e1d1"/>
            <path data-name="Path 3990" d="M109.031 116.9c-7.312-4.49-15.886-2.483-22.29 2.713-7.8 6.322-11.057 16.035-13.865 25.328-1.1 3.609 4.545 5.155 5.644 1.56 3.147-10.378 12.467-33.807 27.58-24.555 3.215 1.967 6.159-3.08 2.957-5.047z" transform="translate(-44.534 -88.53)" style="fill:#e5e1d1"/>
            <path data-name="Path 3991" d="M139.915 215.748c-4.4-2.333-11.762.651-15.316-2.564-3.12-2.822-2.5-8.587-3.568-13.119a12.676 12.676 0 0 0-11.721-10.134c-4.708-.3-10.433 1.479-13.526-1.519-4.287-4.138-1.1-15.411-6.186-18.45-3.744-2.238-10.161 1.452-13.268-1.574-1.75-1.7-1.94-5.128-3.622-6.919-2.469-2.6-7.055-.814-10.867 1.424a21.613 21.613 0 0 0-6.824 5.7 16.6 16.6 0 0 0-2.456 13.973c1.275 3.989 4.111 6.539 7.177 8.438 2.32 1.438 4.87 2.6 6.715 4.775 3.432 4.056 3.826 10.84 6.43 15.7a14.353 14.353 0 0 0 14.367 7.394c1.723-.163 3.582-.556 5.06.027 1.547.611 2.415 2.2 3.242 3.69 1.845 3.378 3.812 6.756 6.756 9.035a12.071 12.071 0 0 0 11.545 1.791 29.934 29.934 0 0 1 3.188-1.14c3.066-.678 5.481 1.126 6.892 3.419s2.1 5.074 3.609 7.285a6.522 6.522 0 0 0 7.367 2.862s12.047-5.209 13.946-13.078c1.642-6.81-7.136-16.063-8.94-17.012z" transform="translate(-51.948 -72.209)" style="fill:#873e22"/>
            <circle data-name="Ellipse 18" cx="14.611" cy="14.611" r="14.611" transform="translate(60.088 122.606)" style="fill:#da0002"/>
            <path data-name="Path 3992" d="M114.912 204.459c-4.925 7.217-17.419 2.143-15.94-6.417a.776.776 0 0 1 .583-.5c-.258.407-.014.773.163 1.1a12.826 12.826 0 0 0 15.194 5.82z" transform="translate(-35.221 -58.885)" style="fill:#af141c"/>
            <circle data-name="Ellipse 19" cx="14.611" cy="14.611" r="14.611" transform="translate(36.184 103.233)" style="fill:#da0002"/>
            <path data-name="Path 3993" d="M97.292 190.179c-4.925 7.217-17.419 2.143-15.94-6.417a.776.776 0 0 1 .583-.5c-.258.407-.014.773.163 1.1a12.819 12.819 0 0 0 15.194 5.82z" transform="translate(-41.505 -63.978)" style="fill:#af141c"/>
        </g>
    </g>
</svg>
