<svg xmlns="http://www.w3.org/2000/svg" width="251.098" height="209.226" viewBox="0 0 251.098 209.226">
    <g data-name="Group 2180">
        <g data-name="Group 2178" transform="translate(0 35.831)">
            <path data-name="Path 4075" d="M135.175 86.13a151.294 151.294 0 0 1-10.6 39.668c-1.655 3.907-5.494 13.838-8.818 15.71-4.328 2.428-12.63 2.279-16.782 1.411-20.35-4.246-40.374-13.661-57.006-25.6C32.4 110.455 24 103.916 16.415 94.8c-1.574-1.886-4.585-4.938-4.585-7.76 0-2.238 1.845-3.907 3.107-5.752 4.111-6.023 8.194-12.006 12.793-17.663 8.913-10.989 19.278-20.96 31.338-27.92 19.753-11.423 45.149-13.4 60.981.2 13.241 11.369 17.46 31.365 15.127 50.236z" transform="translate(14.384 -26.408)" style="fill:#c69021"/>
            <ellipse data-name="Ellipse 20" cx="20.187" cy="59.801" rx="20.187" ry="59.801" transform="rotate(-60.68 70.27 18.418)" style="fill:#da0002"/>
            <ellipse data-name="Ellipse 21" cx="22.832" cy="72.729" rx="22.832" ry="72.729" transform="rotate(-60.76 67.96 39.84)" style="fill:#c69021"/>
            <ellipse data-name="Ellipse 22" cx="10.853" cy="54.985" rx="10.853" ry="54.985" transform="rotate(-60.68 80.016 26.762)" style="fill:#873e22"/>
            <path data-name="Path 4076" d="M49.089 96.875c-5.576 9.958-11.572 19.712-16.768 29.887a4.129 4.129 0 0 0 1.438 5.508 4.078 4.078 0 0 0 5.508-1.438c5.209-10.175 11.192-19.929 16.768-29.887 2.537-4.518-4.409-8.574-6.946-4.056z" transform="translate(21.514 -1.975)" style="fill:#c69021"/>
            <circle data-name="Ellipse 23" cx="12.508" cy="12.508" r="12.508" transform="translate(42.629 117.556)" style="fill:#da0002"/>
            <path data-name="Path 4077" d="M27.21 124.28c3.839 4.49 10.215 4.992 15.33 2.686a.464.464 0 0 0 .258-.448.662.662 0 0 1 .122.678c-3.364 6.444-15.439 4.789-15.71-2.917z" transform="translate(19.869 8.497)" style="fill:#af141c"/>
        </g>
        <g data-name="Group 2179" transform="translate(86.91 45.016)">
            <path data-name="Path 4078" d="M161.547 57.627a162.692 162.692 0 0 1 24.107 37.063c1.94 4.138 7.122 14.38 6.213 18.4-1.167 5.209-7.285 11.748-10.975 14.448-18.057 13.227-40.048 22.466-61.578 27.187-12.4 2.713-23.673 4.721-36.453 4.219-2.645-.109-7.258.122-9.51-1.926-1.791-1.614-1.791-4.3-2.361-6.648-1.845-7.638-3.69-15.221-4.911-22.981-2.374-15.059-2.876-30.538.231-45.217 5.1-24.04 21.815-45.8 44.118-48.663 18.64-2.4 37.7 8.642 51.118 24.107z" transform="translate(-53.871 -33.178)" style="fill:#c69021"/>
            <ellipse data-name="Ellipse 24" cx="64.413" cy="21.747" rx="64.413" ry="21.747" transform="rotate(-18.68 293.27 20.256)" style="fill:#da0002"/>
            <ellipse data-name="Ellipse 25" cx="78.346" cy="24.596" rx="78.346" ry="24.596" transform="rotate(-18.75 339.13 55.99)" style="fill:#c69021"/>
            <ellipse data-name="Ellipse 26" cx="59.231" cy="11.694" rx="59.231" ry="11.694" transform="rotate(-18.68 392.218 -10.24)" style="fill:#873e22"/>
            <path data-name="Path 4079" d="M114.75 117.8c3.948 11.654 7.448 23.47 11.83 34.961a4.452 4.452 0 0 0 5.332 3.025c2.089-.57 3.866-3.134 3.025-5.332-4.382-11.491-7.882-23.321-11.83-34.961a4.434 4.434 0 0 0-5.332-3.025 4.376 4.376 0 0 0-3.025 5.332z" transform="translate(-35.889 -4.955)" style="fill:#c69021"/>
            <circle data-name="Ellipse 27" cx="13.471" cy="13.471" r="13.471" transform="translate(82.429 137.267)" style="fill:#da0002"/>
            <path data-name="Path 4080" d="M124.58 153.349c6.363.163 11.369-4.572 13.2-10.338a.506.506 0 0 0-.163-.529c.244-.054.5.176.638.393 2.727 7.339-7.3 15.8-13.661 10.46z" transform="translate(-32.315 5.801)" style="fill:#af141c"/>
        </g>
        <path data-name="Path 4081" d="M98.124 41.432C76.662 53.343 67.22 78.021 67.613 101.6c.054 2.89 4.531 2.89 4.49 0-.366-22.045 8.181-45.135 28.3-56.3 2.523-1.4.271-5.277-2.266-3.88z" transform="translate(34.274 14.67)" style="fill:#a57217"/>
        <path data-name="Path 4082" d="M86.269 39.46a64.647 64.647 0 0 0 .624 17.935c1.045 6.851 2.523 13.865 6.39 19.617a12.275 12.275 0 0 0 3.432 3.609 5.853 5.853 0 0 0 4.789.814c2.917-.909 4.111-4.273 5.44-7.014a3.146 3.146 0 0 1 1.248-1.519 3.015 3.015 0 0 1 1.587-.19c2.89.231 5.766 1.289 8.628.828a4.005 4.005 0 0 0 1.791-.678 4.123 4.123 0 0 0 1.153-3.934c-.448-2.808-2.238-5.182-3.989-7.434Q110.73 52.9 104.1 44.3c-1.669-2.157-3.446-4.409-5.956-5.508a16.526 16.526 0 0 0-5.006-1.017c-2.266-.217-4.775-.38-6.58 1a1.3 1.3 0 0 0-.3.678z" transform="translate(40.797 13.427)" style="fill:#134d36"/>
        <path data-name="Path 4083" d="M97.758 40.65a65.245 65.245 0 0 1-4.911 17.27c-2.673 6.4-5.779 12.847-10.921 17.514a12.073 12.073 0 0 1-4.206 2.673 5.857 5.857 0 0 1-4.843-.366c-2.6-1.587-2.957-5.128-3.6-8.126a2.392 2.392 0 0 0-2.333-2.347c-2.863-.461-5.915-.136-8.574-1.262a3.42 3.42 0 0 1-1.764-5.182c1.112-2.618 3.419-4.49 5.657-6.268q8.506-6.736 17.012-13.485c2.143-1.7 4.409-3.459 7.109-3.907a16.23 16.23 0 0 1 5.115.217c2.252.326 4.721.787 6.146 2.564a1.279 1.279 0 0 1 .122.733z" transform="translate(30.19 13.214)" style="fill:#134d36"/>
        <path data-name="Path 4084" d="M101.622 28.242c3.663 7.448-4.952 16.361-2.252 24.2 1.642 4.789 6.878 7.244 11.735 8.723a79.678 79.678 0 0 0 29.656 3.107 5.657 5.657 0 0 0 3.487-1.14c1.14-1.085 1.207-2.876 1.045-4.436-.5-4.64-8.506-12.522-8.438-17.189.081-5.752 9.239-7.651 12.834-12.155 2.361-2.957 5.155-6.77 3.378-10.093a7.407 7.407 0 0 0-3.785-3.012c-4.762-2.049-10.121-2.13-15.289-1.777-12.291.828-24.691 4.111-32.356 13.77" transform="translate(45.414 5.11)" style="fill:#134d36"/>
        <path data-name="Path 4085" d="M97.484 28.844c-6.173 5.562-1.479 17.026-6.905 23.307-3.31 3.839-9.089 4.178-14.136 3.731a79.369 79.369 0 0 1-28.679-8.14 5.555 5.555 0 0 1-2.808-2.361c-.665-1.438-.054-3.12.692-4.5 2.2-4.111 12.549-8.465 14.218-12.82 2.062-5.372-5.739-10.541-7.394-16.049-1.085-3.609-2.279-8.194.61-10.622A7.433 7.433 0 0 1 57.707 0C62.89-.121 67.9 1.792 72.562 4.031c11.1 5.345 21.394 13 24.921 24.813" transform="translate(26.096 .004)" style="fill:#134d36"/>
        <path data-name="Path 4086" d="M103.37 36.043c6.417-2.184 13.39-.61 19.9.366a1.753 1.753 0 0 0 2.076-1.18 1.7 1.7 0 0 0-1.18-2.076c-7.1-1.058-14.679-2.74-21.693-.366-2.035.692-1.167 3.948.9 3.242z" transform="translate(46.298 11.268)" style="fill:#0a3822"/>
        <path data-name="Path 4087" d="M76.734 29.784a12.874 12.874 0 0 0-4.206-5.237c-1.886-1.547-3.88-2.93-5.915-4.287a1.708 1.708 0 0 0-2.306.6 1.737 1.737 0 0 0 .6 2.306c.909.61 1.8 1.207 2.686 1.845s1.655 1.194 2.4 1.8a22.757 22.757 0 0 1 2.171 1.954c.176.19.339.38.516.57.081.095.122.163.014.014.081.109.149.2.217.312.122.19.244.38.353.583a2.527 2.527 0 0 1 .136.271c.217.434-.109-.3.068.163a1.688 1.688 0 1 0 3.256-.9z" transform="translate(33.022 7.149)" style="fill:#0a3822"/>
        <path data-name="Path 4088" d="M89.684 39.587a24.517 24.517 0 0 0 1.14 3.5c.719 1.954 1.479 3.88 2.293 5.793 1.628 3.88 3.3 8.018 5.834 11.409a1.737 1.737 0 0 0 2.306.6 1.687 1.687 0 0 0 .6-2.306c-2.428-3.229-4.043-7.149-5.6-10.84-.8-1.9-1.56-3.812-2.266-5.739a24.31 24.31 0 0 1-1.072-3.324c-.434-2.116-3.676-1.221-3.242.9z" transform="translate(42.131 13.368)" style="fill:#0a3822"/>
        <path data-name="Path 4089" d="M82.358 39.408q-4.07 5.169-8.452 10.08a1.679 1.679 0 1 0 2.374 2.374q4.375-4.9 8.452-10.08a1.726 1.726 0 0 0 0-2.374 1.7 1.7 0 0 0-2.374 0z" transform="translate(36.352 13.887)" style="fill:#0a3822"/>
        <circle data-name="Ellipse 28" cx="15.683" cy="15.683" r="15.683" transform="translate(104.221 25.185)" style="fill:#da0002"/>
        <path data-name="Path 4090" d="M76.9 38.639a13.75 13.75 0 0 0 16.334-6.159c.19-.353.461-.746.176-1.18a.833.833 0 0 1 .624.543c1.533 9.212-11.871 14.57-17.134 6.8z" transform="translate(37.59 11.168)" style="fill:#af141c"/>
        <circle data-name="Ellipse 29" cx="15.683" cy="15.683" r="15.683" transform="translate(129.725 28.915)" style="fill:#da0002"/>
        <path data-name="Path 4091" d="M93.53 37.658a13.751 13.751 0 0 0 17.46.393c.312-.258.705-.516.61-1.031a.822.822 0 0 1 .366.733c-2.035 9.117-16.442 9.062-18.423-.109z" transform="translate(43.521 13.208)" style="fill:#af141c"/>
        <path data-name="Path 4092" d="M131.41 59.549a143.056 143.056 0 0 1 17.921 26.264c1.7 3.188 6.539.353 4.843-2.835a149.611 149.611 0 0 0-18.8-27.4 2.817 2.817 0 0 0-3.961 0 2.855 2.855 0 0 0 0 3.961z" transform="translate(56.746 19.535)" style="fill:#e5e1d1"/>
    </g>
</svg>
